%TF.GenerationSoftware,KiCad,Pcbnew,(5.1.9)-1*%
%TF.CreationDate,2021-03-08T23:04:16+01:00*%
%TF.ProjectId,RT12e_ELE_ACC-00,52543132-655f-4454-9c45-5f4143432d30,rev?*%
%TF.SameCoordinates,Original*%
%TF.FileFunction,Copper,L1,Top*%
%TF.FilePolarity,Positive*%
%FSLAX46Y46*%
G04 Gerber Fmt 4.6, Leading zero omitted, Abs format (unit mm)*
G04 Created by KiCad (PCBNEW (5.1.9)-1) date 2021-03-08 23:04:16*
%MOMM*%
%LPD*%
G01*
G04 APERTURE LIST*
%TA.AperFunction,SMDPad,CuDef*%
%ADD10R,1.600000X0.550000*%
%TD*%
%TA.AperFunction,SMDPad,CuDef*%
%ADD11R,0.550000X1.600000*%
%TD*%
%TA.AperFunction,SMDPad,CuDef*%
%ADD12R,0.800000X0.900000*%
%TD*%
%TA.AperFunction,SMDPad,CuDef*%
%ADD13R,0.900000X0.800000*%
%TD*%
%TA.AperFunction,ComponentPad*%
%ADD14R,1.350000X1.350000*%
%TD*%
%TA.AperFunction,ComponentPad*%
%ADD15O,1.350000X1.350000*%
%TD*%
%TA.AperFunction,ViaPad*%
%ADD16C,0.800000*%
%TD*%
%TA.AperFunction,Conductor*%
%ADD17C,0.177800*%
%TD*%
%TA.AperFunction,Conductor*%
%ADD18C,0.254000*%
%TD*%
%TA.AperFunction,Conductor*%
%ADD19C,0.100000*%
%TD*%
G04 APERTURE END LIST*
%TO.P,U3,1*%
%TO.N,/IAM-20680/ACC_V+*%
%TA.AperFunction,SMDPad,CuDef*%
G36*
G01*
X156643700Y-85116800D02*
X156468700Y-85116800D01*
G75*
G02*
X156381200Y-85029300I0J87500D01*
G01*
X156381200Y-84654300D01*
G75*
G02*
X156468700Y-84566800I87500J0D01*
G01*
X156643700Y-84566800D01*
G75*
G02*
X156731200Y-84654300I0J-87500D01*
G01*
X156731200Y-85029300D01*
G75*
G02*
X156643700Y-85116800I-87500J0D01*
G01*
G37*
%TD.AperFunction*%
%TO.P,U3,2*%
%TO.N,/IAM-20680/SPC*%
%TA.AperFunction,SMDPad,CuDef*%
G36*
G01*
X157143700Y-85116800D02*
X156968700Y-85116800D01*
G75*
G02*
X156881200Y-85029300I0J87500D01*
G01*
X156881200Y-84654300D01*
G75*
G02*
X156968700Y-84566800I87500J0D01*
G01*
X157143700Y-84566800D01*
G75*
G02*
X157231200Y-84654300I0J-87500D01*
G01*
X157231200Y-85029300D01*
G75*
G02*
X157143700Y-85116800I-87500J0D01*
G01*
G37*
%TD.AperFunction*%
%TO.P,U3,3*%
%TO.N,/IAM-20680/SDI*%
%TA.AperFunction,SMDPad,CuDef*%
G36*
G01*
X157643700Y-85116800D02*
X157468700Y-85116800D01*
G75*
G02*
X157381200Y-85029300I0J87500D01*
G01*
X157381200Y-84654300D01*
G75*
G02*
X157468700Y-84566800I87500J0D01*
G01*
X157643700Y-84566800D01*
G75*
G02*
X157731200Y-84654300I0J-87500D01*
G01*
X157731200Y-85029300D01*
G75*
G02*
X157643700Y-85116800I-87500J0D01*
G01*
G37*
%TD.AperFunction*%
%TO.P,U3,4*%
%TO.N,/IAM-20680/SDO*%
%TA.AperFunction,SMDPad,CuDef*%
G36*
G01*
X158143700Y-85116800D02*
X157968700Y-85116800D01*
G75*
G02*
X157881200Y-85029300I0J87500D01*
G01*
X157881200Y-84654300D01*
G75*
G02*
X157968700Y-84566800I87500J0D01*
G01*
X158143700Y-84566800D01*
G75*
G02*
X158231200Y-84654300I0J-87500D01*
G01*
X158231200Y-85029300D01*
G75*
G02*
X158143700Y-85116800I-87500J0D01*
G01*
G37*
%TD.AperFunction*%
%TO.P,U3,5*%
%TO.N,/IAM-20680/CS*%
%TA.AperFunction,SMDPad,CuDef*%
G36*
G01*
X158643700Y-85116800D02*
X158468700Y-85116800D01*
G75*
G02*
X158381200Y-85029300I0J87500D01*
G01*
X158381200Y-84654300D01*
G75*
G02*
X158468700Y-84566800I87500J0D01*
G01*
X158643700Y-84566800D01*
G75*
G02*
X158731200Y-84654300I0J-87500D01*
G01*
X158731200Y-85029300D01*
G75*
G02*
X158643700Y-85116800I-87500J0D01*
G01*
G37*
%TD.AperFunction*%
%TO.P,U3,6*%
%TO.N,/STM32/DI_IAM_INT*%
%TA.AperFunction,SMDPad,CuDef*%
G36*
G01*
X158968700Y-84291800D02*
X158593700Y-84291800D01*
G75*
G02*
X158506200Y-84204300I0J87500D01*
G01*
X158506200Y-84029300D01*
G75*
G02*
X158593700Y-83941800I87500J0D01*
G01*
X158968700Y-83941800D01*
G75*
G02*
X159056200Y-84029300I0J-87500D01*
G01*
X159056200Y-84204300D01*
G75*
G02*
X158968700Y-84291800I-87500J0D01*
G01*
G37*
%TD.AperFunction*%
%TO.P,U3,7*%
%TO.N,Net-(U3-Pad7)*%
%TA.AperFunction,SMDPad,CuDef*%
G36*
G01*
X158968700Y-83791800D02*
X158593700Y-83791800D01*
G75*
G02*
X158506200Y-83704300I0J87500D01*
G01*
X158506200Y-83529300D01*
G75*
G02*
X158593700Y-83441800I87500J0D01*
G01*
X158968700Y-83441800D01*
G75*
G02*
X159056200Y-83529300I0J-87500D01*
G01*
X159056200Y-83704300D01*
G75*
G02*
X158968700Y-83791800I-87500J0D01*
G01*
G37*
%TD.AperFunction*%
%TO.P,U3,8*%
%TO.N,GND*%
%TA.AperFunction,SMDPad,CuDef*%
G36*
G01*
X158968700Y-83291800D02*
X158593700Y-83291800D01*
G75*
G02*
X158506200Y-83204300I0J87500D01*
G01*
X158506200Y-83029300D01*
G75*
G02*
X158593700Y-82941800I87500J0D01*
G01*
X158968700Y-82941800D01*
G75*
G02*
X159056200Y-83029300I0J-87500D01*
G01*
X159056200Y-83204300D01*
G75*
G02*
X158968700Y-83291800I-87500J0D01*
G01*
G37*
%TD.AperFunction*%
%TO.P,U3,9*%
%TA.AperFunction,SMDPad,CuDef*%
G36*
G01*
X158643700Y-82666800D02*
X158468700Y-82666800D01*
G75*
G02*
X158381200Y-82579300I0J87500D01*
G01*
X158381200Y-82204300D01*
G75*
G02*
X158468700Y-82116800I87500J0D01*
G01*
X158643700Y-82116800D01*
G75*
G02*
X158731200Y-82204300I0J-87500D01*
G01*
X158731200Y-82579300D01*
G75*
G02*
X158643700Y-82666800I-87500J0D01*
G01*
G37*
%TD.AperFunction*%
%TO.P,U3,10*%
%TA.AperFunction,SMDPad,CuDef*%
G36*
G01*
X158143700Y-82666800D02*
X157968700Y-82666800D01*
G75*
G02*
X157881200Y-82579300I0J87500D01*
G01*
X157881200Y-82204300D01*
G75*
G02*
X157968700Y-82116800I87500J0D01*
G01*
X158143700Y-82116800D01*
G75*
G02*
X158231200Y-82204300I0J-87500D01*
G01*
X158231200Y-82579300D01*
G75*
G02*
X158143700Y-82666800I-87500J0D01*
G01*
G37*
%TD.AperFunction*%
%TO.P,U3,11*%
%TA.AperFunction,SMDPad,CuDef*%
G36*
G01*
X157643700Y-82666800D02*
X157468700Y-82666800D01*
G75*
G02*
X157381200Y-82579300I0J87500D01*
G01*
X157381200Y-82204300D01*
G75*
G02*
X157468700Y-82116800I87500J0D01*
G01*
X157643700Y-82116800D01*
G75*
G02*
X157731200Y-82204300I0J-87500D01*
G01*
X157731200Y-82579300D01*
G75*
G02*
X157643700Y-82666800I-87500J0D01*
G01*
G37*
%TD.AperFunction*%
%TO.P,U3,12*%
%TA.AperFunction,SMDPad,CuDef*%
G36*
G01*
X157143700Y-82666800D02*
X156968700Y-82666800D01*
G75*
G02*
X156881200Y-82579300I0J87500D01*
G01*
X156881200Y-82204300D01*
G75*
G02*
X156968700Y-82116800I87500J0D01*
G01*
X157143700Y-82116800D01*
G75*
G02*
X157231200Y-82204300I0J-87500D01*
G01*
X157231200Y-82579300D01*
G75*
G02*
X157143700Y-82666800I-87500J0D01*
G01*
G37*
%TD.AperFunction*%
%TO.P,U3,13*%
%TA.AperFunction,SMDPad,CuDef*%
G36*
G01*
X156643700Y-82666800D02*
X156468700Y-82666800D01*
G75*
G02*
X156381200Y-82579300I0J87500D01*
G01*
X156381200Y-82204300D01*
G75*
G02*
X156468700Y-82116800I87500J0D01*
G01*
X156643700Y-82116800D01*
G75*
G02*
X156731200Y-82204300I0J-87500D01*
G01*
X156731200Y-82579300D01*
G75*
G02*
X156643700Y-82666800I-87500J0D01*
G01*
G37*
%TD.AperFunction*%
%TO.P,U3,14*%
%TO.N,/IAM-20680/REGOUT*%
%TA.AperFunction,SMDPad,CuDef*%
G36*
G01*
X156518700Y-83291800D02*
X156143700Y-83291800D01*
G75*
G02*
X156056200Y-83204300I0J87500D01*
G01*
X156056200Y-83029300D01*
G75*
G02*
X156143700Y-82941800I87500J0D01*
G01*
X156518700Y-82941800D01*
G75*
G02*
X156606200Y-83029300I0J-87500D01*
G01*
X156606200Y-83204300D01*
G75*
G02*
X156518700Y-83291800I-87500J0D01*
G01*
G37*
%TD.AperFunction*%
%TO.P,U3,15*%
%TO.N,GND*%
%TA.AperFunction,SMDPad,CuDef*%
G36*
G01*
X156518700Y-83791800D02*
X156143700Y-83791800D01*
G75*
G02*
X156056200Y-83704300I0J87500D01*
G01*
X156056200Y-83529300D01*
G75*
G02*
X156143700Y-83441800I87500J0D01*
G01*
X156518700Y-83441800D01*
G75*
G02*
X156606200Y-83529300I0J-87500D01*
G01*
X156606200Y-83704300D01*
G75*
G02*
X156518700Y-83791800I-87500J0D01*
G01*
G37*
%TD.AperFunction*%
%TO.P,U3,16*%
%TO.N,/IAM-20680/ACC_V+*%
%TA.AperFunction,SMDPad,CuDef*%
G36*
G01*
X156518700Y-84291800D02*
X156143700Y-84291800D01*
G75*
G02*
X156056200Y-84204300I0J87500D01*
G01*
X156056200Y-84029300D01*
G75*
G02*
X156143700Y-83941800I87500J0D01*
G01*
X156518700Y-83941800D01*
G75*
G02*
X156606200Y-84029300I0J-87500D01*
G01*
X156606200Y-84204300D01*
G75*
G02*
X156518700Y-84291800I-87500J0D01*
G01*
G37*
%TD.AperFunction*%
%TD*%
%TO.P,C2,2*%
%TO.N,GND*%
%TA.AperFunction,SMDPad,CuDef*%
G36*
G01*
X145919000Y-83749000D02*
X145419000Y-83749000D01*
G75*
G02*
X145194000Y-83524000I0J225000D01*
G01*
X145194000Y-83074000D01*
G75*
G02*
X145419000Y-82849000I225000J0D01*
G01*
X145919000Y-82849000D01*
G75*
G02*
X146144000Y-83074000I0J-225000D01*
G01*
X146144000Y-83524000D01*
G75*
G02*
X145919000Y-83749000I-225000J0D01*
G01*
G37*
%TD.AperFunction*%
%TO.P,C2,1*%
%TO.N,+5V*%
%TA.AperFunction,SMDPad,CuDef*%
G36*
G01*
X145919000Y-85299000D02*
X145419000Y-85299000D01*
G75*
G02*
X145194000Y-85074000I0J225000D01*
G01*
X145194000Y-84624000D01*
G75*
G02*
X145419000Y-84399000I225000J0D01*
G01*
X145919000Y-84399000D01*
G75*
G02*
X146144000Y-84624000I0J-225000D01*
G01*
X146144000Y-85074000D01*
G75*
G02*
X145919000Y-85299000I-225000J0D01*
G01*
G37*
%TD.AperFunction*%
%TD*%
%TO.P,C8,1*%
%TO.N,/STM32/STM_RESET*%
%TA.AperFunction,SMDPad,CuDef*%
G36*
G01*
X162691000Y-88818000D02*
X163191000Y-88818000D01*
G75*
G02*
X163416000Y-89043000I0J-225000D01*
G01*
X163416000Y-89493000D01*
G75*
G02*
X163191000Y-89718000I-225000J0D01*
G01*
X162691000Y-89718000D01*
G75*
G02*
X162466000Y-89493000I0J225000D01*
G01*
X162466000Y-89043000D01*
G75*
G02*
X162691000Y-88818000I225000J0D01*
G01*
G37*
%TD.AperFunction*%
%TO.P,C8,2*%
%TO.N,GND*%
%TA.AperFunction,SMDPad,CuDef*%
G36*
G01*
X162691000Y-90368000D02*
X163191000Y-90368000D01*
G75*
G02*
X163416000Y-90593000I0J-225000D01*
G01*
X163416000Y-91043000D01*
G75*
G02*
X163191000Y-91268000I-225000J0D01*
G01*
X162691000Y-91268000D01*
G75*
G02*
X162466000Y-91043000I0J225000D01*
G01*
X162466000Y-90593000D01*
G75*
G02*
X162691000Y-90368000I225000J0D01*
G01*
G37*
%TD.AperFunction*%
%TD*%
%TO.P,C5,2*%
%TO.N,GND*%
%TA.AperFunction,SMDPad,CuDef*%
G36*
G01*
X162691000Y-97734000D02*
X163191000Y-97734000D01*
G75*
G02*
X163416000Y-97959000I0J-225000D01*
G01*
X163416000Y-98409000D01*
G75*
G02*
X163191000Y-98634000I-225000J0D01*
G01*
X162691000Y-98634000D01*
G75*
G02*
X162466000Y-98409000I0J225000D01*
G01*
X162466000Y-97959000D01*
G75*
G02*
X162691000Y-97734000I225000J0D01*
G01*
G37*
%TD.AperFunction*%
%TO.P,C5,1*%
%TO.N,/STM32/STM_V+*%
%TA.AperFunction,SMDPad,CuDef*%
G36*
G01*
X162691000Y-96184000D02*
X163191000Y-96184000D01*
G75*
G02*
X163416000Y-96409000I0J-225000D01*
G01*
X163416000Y-96859000D01*
G75*
G02*
X163191000Y-97084000I-225000J0D01*
G01*
X162691000Y-97084000D01*
G75*
G02*
X162466000Y-96859000I0J225000D01*
G01*
X162466000Y-96409000D01*
G75*
G02*
X162691000Y-96184000I225000J0D01*
G01*
G37*
%TD.AperFunction*%
%TD*%
D10*
%TO.P,U2,1*%
%TO.N,/STM32/STM_V+*%
X161095000Y-96780000D03*
%TO.P,U2,2*%
%TO.N,GND*%
X161095000Y-95980000D03*
%TO.P,U2,3*%
X161095000Y-95180000D03*
%TO.P,U2,4*%
%TO.N,/STM32/STM_RESET*%
X161095000Y-94380000D03*
%TO.P,U2,5*%
%TO.N,/STM32/STM_V+*%
X161095000Y-93580000D03*
%TO.P,U2,6*%
%TO.N,GND*%
X161095000Y-92780000D03*
%TO.P,U2,7*%
X161095000Y-91980000D03*
%TO.P,U2,8*%
X161095000Y-91180000D03*
D11*
%TO.P,U2,9*%
X159645000Y-89730000D03*
%TO.P,U2,10*%
%TO.N,/IAM-20680/CS*%
X158845000Y-89730000D03*
%TO.P,U2,11*%
%TO.N,/IAM-20680/SPC*%
X158045000Y-89730000D03*
%TO.P,U2,12*%
%TO.N,/IAM-20680/SDO*%
X157245000Y-89730000D03*
%TO.P,U2,13*%
%TO.N,/IAM-20680/SDI*%
X156445000Y-89730000D03*
%TO.P,U2,14*%
%TO.N,GND*%
X155645000Y-89730000D03*
%TO.P,U2,15*%
X154845000Y-89730000D03*
%TO.P,U2,16*%
X154045000Y-89730000D03*
D10*
%TO.P,U2,17*%
%TO.N,/STM32/STM_V+*%
X152595000Y-91180000D03*
%TO.P,U2,18*%
%TO.N,GND*%
X152595000Y-91980000D03*
%TO.P,U2,19*%
X152595000Y-92780000D03*
%TO.P,U2,20*%
X152595000Y-93580000D03*
%TO.P,U2,21*%
%TO.N,/CAN/CAN_RX*%
X152595000Y-94380000D03*
%TO.P,U2,22*%
%TO.N,/CAN/CAN_TX*%
X152595000Y-95180000D03*
%TO.P,U2,23*%
%TO.N,/SWD_connect.sch/SDWIO*%
X152595000Y-95980000D03*
%TO.P,U2,24*%
%TO.N,/STM32/SWCLK*%
X152595000Y-96780000D03*
D11*
%TO.P,U2,25*%
%TO.N,N/C*%
X154045000Y-98230000D03*
%TO.P,U2,26*%
%TO.N,GND*%
X154845000Y-98230000D03*
%TO.P,U2,27*%
X155645000Y-98230000D03*
%TO.P,U2,28*%
X156445000Y-98230000D03*
%TO.P,U2,29*%
X157245000Y-98230000D03*
%TO.P,U2,30*%
X158045000Y-98230000D03*
%TO.P,U2,31*%
%TO.N,/STM32/DI_IAM_INT*%
X158845000Y-98230000D03*
%TO.P,U2,32*%
%TO.N,GND*%
X159645000Y-98230000D03*
%TD*%
D12*
%TO.P,U1,1*%
%TO.N,GND*%
X149540000Y-86439500D03*
%TO.P,U1,2*%
%TO.N,+3V3*%
X147640000Y-86439500D03*
%TO.P,U1,3*%
%TO.N,+5V*%
X148590000Y-88439500D03*
%TD*%
%TO.P,C1,1*%
%TO.N,Net-(C1-Pad1)*%
%TA.AperFunction,SMDPad,CuDef*%
G36*
G01*
X142631399Y-87180200D02*
X143931401Y-87180200D01*
G75*
G02*
X144181400Y-87430199I0J-249999D01*
G01*
X144181400Y-88080201D01*
G75*
G02*
X143931401Y-88330200I-249999J0D01*
G01*
X142631399Y-88330200D01*
G75*
G02*
X142381400Y-88080201I0J249999D01*
G01*
X142381400Y-87430199D01*
G75*
G02*
X142631399Y-87180200I249999J0D01*
G01*
G37*
%TD.AperFunction*%
%TO.P,C1,2*%
%TO.N,GND*%
%TA.AperFunction,SMDPad,CuDef*%
G36*
G01*
X142631399Y-90130200D02*
X143931401Y-90130200D01*
G75*
G02*
X144181400Y-90380199I0J-249999D01*
G01*
X144181400Y-91030201D01*
G75*
G02*
X143931401Y-91280200I-249999J0D01*
G01*
X142631399Y-91280200D01*
G75*
G02*
X142381400Y-91030201I0J249999D01*
G01*
X142381400Y-90380199D01*
G75*
G02*
X142631399Y-90130200I249999J0D01*
G01*
G37*
%TD.AperFunction*%
%TD*%
%TO.P,C3,2*%
%TO.N,GND*%
%TA.AperFunction,SMDPad,CuDef*%
G36*
G01*
X149854800Y-85136800D02*
X149854800Y-84636800D01*
G75*
G02*
X150079800Y-84411800I225000J0D01*
G01*
X150529800Y-84411800D01*
G75*
G02*
X150754800Y-84636800I0J-225000D01*
G01*
X150754800Y-85136800D01*
G75*
G02*
X150529800Y-85361800I-225000J0D01*
G01*
X150079800Y-85361800D01*
G75*
G02*
X149854800Y-85136800I0J225000D01*
G01*
G37*
%TD.AperFunction*%
%TO.P,C3,1*%
%TO.N,+3V3*%
%TA.AperFunction,SMDPad,CuDef*%
G36*
G01*
X148304800Y-85136800D02*
X148304800Y-84636800D01*
G75*
G02*
X148529800Y-84411800I225000J0D01*
G01*
X148979800Y-84411800D01*
G75*
G02*
X149204800Y-84636800I0J-225000D01*
G01*
X149204800Y-85136800D01*
G75*
G02*
X148979800Y-85361800I-225000J0D01*
G01*
X148529800Y-85361800D01*
G75*
G02*
X148304800Y-85136800I0J225000D01*
G01*
G37*
%TD.AperFunction*%
%TD*%
%TO.P,C6,2*%
%TO.N,GND*%
%TA.AperFunction,SMDPad,CuDef*%
G36*
G01*
X163191000Y-92766000D02*
X162691000Y-92766000D01*
G75*
G02*
X162466000Y-92541000I0J225000D01*
G01*
X162466000Y-92091000D01*
G75*
G02*
X162691000Y-91866000I225000J0D01*
G01*
X163191000Y-91866000D01*
G75*
G02*
X163416000Y-92091000I0J-225000D01*
G01*
X163416000Y-92541000D01*
G75*
G02*
X163191000Y-92766000I-225000J0D01*
G01*
G37*
%TD.AperFunction*%
%TO.P,C6,1*%
%TO.N,/STM32/STM_V+*%
%TA.AperFunction,SMDPad,CuDef*%
G36*
G01*
X163191000Y-94316000D02*
X162691000Y-94316000D01*
G75*
G02*
X162466000Y-94091000I0J225000D01*
G01*
X162466000Y-93641000D01*
G75*
G02*
X162691000Y-93416000I225000J0D01*
G01*
X163191000Y-93416000D01*
G75*
G02*
X163416000Y-93641000I0J-225000D01*
G01*
X163416000Y-94091000D01*
G75*
G02*
X163191000Y-94316000I-225000J0D01*
G01*
G37*
%TD.AperFunction*%
%TD*%
%TO.P,C7,1*%
%TO.N,/STM32/STM_V+*%
%TA.AperFunction,SMDPad,CuDef*%
G36*
G01*
X151212000Y-90936000D02*
X151212000Y-91436000D01*
G75*
G02*
X150987000Y-91661000I-225000J0D01*
G01*
X150537000Y-91661000D01*
G75*
G02*
X150312000Y-91436000I0J225000D01*
G01*
X150312000Y-90936000D01*
G75*
G02*
X150537000Y-90711000I225000J0D01*
G01*
X150987000Y-90711000D01*
G75*
G02*
X151212000Y-90936000I0J-225000D01*
G01*
G37*
%TD.AperFunction*%
%TO.P,C7,2*%
%TO.N,GND*%
%TA.AperFunction,SMDPad,CuDef*%
G36*
G01*
X149662000Y-90936000D02*
X149662000Y-91436000D01*
G75*
G02*
X149437000Y-91661000I-225000J0D01*
G01*
X148987000Y-91661000D01*
G75*
G02*
X148762000Y-91436000I0J225000D01*
G01*
X148762000Y-90936000D01*
G75*
G02*
X148987000Y-90711000I225000J0D01*
G01*
X149437000Y-90711000D01*
G75*
G02*
X149662000Y-90936000I0J-225000D01*
G01*
G37*
%TD.AperFunction*%
%TD*%
%TO.P,C9,2*%
%TO.N,GND*%
%TA.AperFunction,SMDPad,CuDef*%
G36*
G01*
X155071000Y-87320000D02*
X155571000Y-87320000D01*
G75*
G02*
X155796000Y-87545000I0J-225000D01*
G01*
X155796000Y-87995000D01*
G75*
G02*
X155571000Y-88220000I-225000J0D01*
G01*
X155071000Y-88220000D01*
G75*
G02*
X154846000Y-87995000I0J225000D01*
G01*
X154846000Y-87545000D01*
G75*
G02*
X155071000Y-87320000I225000J0D01*
G01*
G37*
%TD.AperFunction*%
%TO.P,C9,1*%
%TO.N,/IAM-20680/ACC_V+*%
%TA.AperFunction,SMDPad,CuDef*%
G36*
G01*
X155071000Y-85770000D02*
X155571000Y-85770000D01*
G75*
G02*
X155796000Y-85995000I0J-225000D01*
G01*
X155796000Y-86445000D01*
G75*
G02*
X155571000Y-86670000I-225000J0D01*
G01*
X155071000Y-86670000D01*
G75*
G02*
X154846000Y-86445000I0J225000D01*
G01*
X154846000Y-85995000D01*
G75*
G02*
X155071000Y-85770000I225000J0D01*
G01*
G37*
%TD.AperFunction*%
%TD*%
%TO.P,C10,1*%
%TO.N,/IAM-20680/REGOUT*%
%TA.AperFunction,SMDPad,CuDef*%
G36*
G01*
X153332400Y-81772999D02*
X153332400Y-83073001D01*
G75*
G02*
X153082401Y-83323000I-249999J0D01*
G01*
X152432399Y-83323000D01*
G75*
G02*
X152182400Y-83073001I0J249999D01*
G01*
X152182400Y-81772999D01*
G75*
G02*
X152432399Y-81523000I249999J0D01*
G01*
X153082401Y-81523000D01*
G75*
G02*
X153332400Y-81772999I0J-249999D01*
G01*
G37*
%TD.AperFunction*%
%TO.P,C10,2*%
%TO.N,GND*%
%TA.AperFunction,SMDPad,CuDef*%
G36*
G01*
X150382400Y-81772999D02*
X150382400Y-83073001D01*
G75*
G02*
X150132401Y-83323000I-249999J0D01*
G01*
X149482399Y-83323000D01*
G75*
G02*
X149232400Y-83073001I0J249999D01*
G01*
X149232400Y-81772999D01*
G75*
G02*
X149482399Y-81523000I249999J0D01*
G01*
X150132401Y-81523000D01*
G75*
G02*
X150382400Y-81772999I0J-249999D01*
G01*
G37*
%TD.AperFunction*%
%TD*%
%TO.P,C11,1*%
%TO.N,/IAM-20680/ACC_V+*%
%TA.AperFunction,SMDPad,CuDef*%
G36*
G01*
X155403000Y-84395500D02*
X155403000Y-84895500D01*
G75*
G02*
X155178000Y-85120500I-225000J0D01*
G01*
X154728000Y-85120500D01*
G75*
G02*
X154503000Y-84895500I0J225000D01*
G01*
X154503000Y-84395500D01*
G75*
G02*
X154728000Y-84170500I225000J0D01*
G01*
X155178000Y-84170500D01*
G75*
G02*
X155403000Y-84395500I0J-225000D01*
G01*
G37*
%TD.AperFunction*%
%TO.P,C11,2*%
%TO.N,GND*%
%TA.AperFunction,SMDPad,CuDef*%
G36*
G01*
X153853000Y-84395500D02*
X153853000Y-84895500D01*
G75*
G02*
X153628000Y-85120500I-225000J0D01*
G01*
X153178000Y-85120500D01*
G75*
G02*
X152953000Y-84895500I0J225000D01*
G01*
X152953000Y-84395500D01*
G75*
G02*
X153178000Y-84170500I225000J0D01*
G01*
X153628000Y-84170500D01*
G75*
G02*
X153853000Y-84395500I0J-225000D01*
G01*
G37*
%TD.AperFunction*%
%TD*%
%TO.P,C13,1*%
%TO.N,+3V3*%
%TA.AperFunction,SMDPad,CuDef*%
G36*
G01*
X147402000Y-90809000D02*
X147402000Y-91309000D01*
G75*
G02*
X147177000Y-91534000I-225000J0D01*
G01*
X146727000Y-91534000D01*
G75*
G02*
X146502000Y-91309000I0J225000D01*
G01*
X146502000Y-90809000D01*
G75*
G02*
X146727000Y-90584000I225000J0D01*
G01*
X147177000Y-90584000D01*
G75*
G02*
X147402000Y-90809000I0J-225000D01*
G01*
G37*
%TD.AperFunction*%
%TO.P,C13,2*%
%TO.N,GND*%
%TA.AperFunction,SMDPad,CuDef*%
G36*
G01*
X145852000Y-90809000D02*
X145852000Y-91309000D01*
G75*
G02*
X145627000Y-91534000I-225000J0D01*
G01*
X145177000Y-91534000D01*
G75*
G02*
X144952000Y-91309000I0J225000D01*
G01*
X144952000Y-90809000D01*
G75*
G02*
X145177000Y-90584000I225000J0D01*
G01*
X145627000Y-90584000D01*
G75*
G02*
X145852000Y-90809000I0J-225000D01*
G01*
G37*
%TD.AperFunction*%
%TD*%
%TO.P,D1,1*%
%TO.N,Net-(C1-Pad1)*%
%TA.AperFunction,SMDPad,CuDef*%
G36*
G01*
X140243400Y-86087600D02*
X141493400Y-86087600D01*
G75*
G02*
X141743400Y-86337600I0J-250000D01*
G01*
X141743400Y-87087600D01*
G75*
G02*
X141493400Y-87337600I-250000J0D01*
G01*
X140243400Y-87337600D01*
G75*
G02*
X139993400Y-87087600I0J250000D01*
G01*
X139993400Y-86337600D01*
G75*
G02*
X140243400Y-86087600I250000J0D01*
G01*
G37*
%TD.AperFunction*%
%TO.P,D1,2*%
%TO.N,/VIN*%
%TA.AperFunction,SMDPad,CuDef*%
G36*
G01*
X140243400Y-88887600D02*
X141493400Y-88887600D01*
G75*
G02*
X141743400Y-89137600I0J-250000D01*
G01*
X141743400Y-89887600D01*
G75*
G02*
X141493400Y-90137600I-250000J0D01*
G01*
X140243400Y-90137600D01*
G75*
G02*
X139993400Y-89887600I0J250000D01*
G01*
X139993400Y-89137600D01*
G75*
G02*
X140243400Y-88887600I250000J0D01*
G01*
G37*
%TD.AperFunction*%
%TD*%
%TO.P,D2,2*%
%TO.N,Net-(D2-Pad2)*%
%TA.AperFunction,SMDPad,CuDef*%
G36*
G01*
X140583800Y-85136800D02*
X140583800Y-84636800D01*
G75*
G02*
X140808800Y-84411800I225000J0D01*
G01*
X141258800Y-84411800D01*
G75*
G02*
X141483800Y-84636800I0J-225000D01*
G01*
X141483800Y-85136800D01*
G75*
G02*
X141258800Y-85361800I-225000J0D01*
G01*
X140808800Y-85361800D01*
G75*
G02*
X140583800Y-85136800I0J225000D01*
G01*
G37*
%TD.AperFunction*%
%TO.P,D2,1*%
%TO.N,GND*%
%TA.AperFunction,SMDPad,CuDef*%
G36*
G01*
X139033800Y-85136800D02*
X139033800Y-84636800D01*
G75*
G02*
X139258800Y-84411800I225000J0D01*
G01*
X139708800Y-84411800D01*
G75*
G02*
X139933800Y-84636800I0J-225000D01*
G01*
X139933800Y-85136800D01*
G75*
G02*
X139708800Y-85361800I-225000J0D01*
G01*
X139258800Y-85361800D01*
G75*
G02*
X139033800Y-85136800I0J225000D01*
G01*
G37*
%TD.AperFunction*%
%TD*%
%TO.P,D3,2*%
%TO.N,Net-(D3-Pad2)*%
%TA.AperFunction,SMDPad,CuDef*%
G36*
G01*
X140583800Y-83562000D02*
X140583800Y-83062000D01*
G75*
G02*
X140808800Y-82837000I225000J0D01*
G01*
X141258800Y-82837000D01*
G75*
G02*
X141483800Y-83062000I0J-225000D01*
G01*
X141483800Y-83562000D01*
G75*
G02*
X141258800Y-83787000I-225000J0D01*
G01*
X140808800Y-83787000D01*
G75*
G02*
X140583800Y-83562000I0J225000D01*
G01*
G37*
%TD.AperFunction*%
%TO.P,D3,1*%
%TO.N,GND*%
%TA.AperFunction,SMDPad,CuDef*%
G36*
G01*
X139033800Y-83562000D02*
X139033800Y-83062000D01*
G75*
G02*
X139258800Y-82837000I225000J0D01*
G01*
X139708800Y-82837000D01*
G75*
G02*
X139933800Y-83062000I0J-225000D01*
G01*
X139933800Y-83562000D01*
G75*
G02*
X139708800Y-83787000I-225000J0D01*
G01*
X139258800Y-83787000D01*
G75*
G02*
X139033800Y-83562000I0J225000D01*
G01*
G37*
%TD.AperFunction*%
%TD*%
D13*
%TO.P,D4,3*%
%TO.N,GND*%
X142478000Y-94742000D03*
%TO.P,D4,2*%
%TO.N,/CAN+*%
X140478000Y-95692000D03*
%TO.P,D4,1*%
%TO.N,/CAN-*%
X140478000Y-93792000D03*
%TD*%
D14*
%TO.P,J1,1*%
%TO.N,/CAN+*%
X137985500Y-95631000D03*
D15*
%TO.P,J1,2*%
%TO.N,/CAN-*%
X137985500Y-93631000D03*
%TO.P,J1,3*%
%TO.N,GND*%
X137985500Y-91631000D03*
%TO.P,J1,4*%
%TO.N,/VIN*%
X137985500Y-89631000D03*
%TD*%
D14*
%TO.P,J2,1*%
%TO.N,/STM32/STM_V+*%
X163830000Y-86995000D03*
D15*
%TO.P,J2,2*%
%TO.N,/SWD_connect.sch/SDWIO*%
X161830000Y-86995000D03*
%TO.P,J2,3*%
%TO.N,GND*%
X163830000Y-84995000D03*
%TO.P,J2,4*%
%TO.N,/STM32/SWCLK*%
X161830000Y-84995000D03*
%TO.P,J2,5*%
%TO.N,GND*%
X163830000Y-82995000D03*
%TO.P,J2,6*%
%TO.N,/STM32/RESET*%
X161830000Y-82995000D03*
%TD*%
%TO.P,L1,1*%
%TO.N,Net-(C1-Pad1)*%
%TA.AperFunction,SMDPad,CuDef*%
G36*
G01*
X146236251Y-88939500D02*
X145473751Y-88939500D01*
G75*
G02*
X145255001Y-88720750I0J218750D01*
G01*
X145255001Y-88283250D01*
G75*
G02*
X145473751Y-88064500I218750J0D01*
G01*
X146236251Y-88064500D01*
G75*
G02*
X146455001Y-88283250I0J-218750D01*
G01*
X146455001Y-88720750D01*
G75*
G02*
X146236251Y-88939500I-218750J0D01*
G01*
G37*
%TD.AperFunction*%
%TO.P,L1,2*%
%TO.N,+5V*%
%TA.AperFunction,SMDPad,CuDef*%
G36*
G01*
X146236251Y-86814500D02*
X145473751Y-86814500D01*
G75*
G02*
X145255001Y-86595750I0J218750D01*
G01*
X145255001Y-86158250D01*
G75*
G02*
X145473751Y-85939500I218750J0D01*
G01*
X146236251Y-85939500D01*
G75*
G02*
X146455001Y-86158250I0J-218750D01*
G01*
X146455001Y-86595750D01*
G75*
G02*
X146236251Y-86814500I-218750J0D01*
G01*
G37*
%TD.AperFunction*%
%TD*%
%TO.P,L2,2*%
%TO.N,/STM32/STM_V+*%
%TA.AperFunction,SMDPad,CuDef*%
G36*
G01*
X153050400Y-87477850D02*
X153050400Y-86715350D01*
G75*
G02*
X153269150Y-86496600I218750J0D01*
G01*
X153706650Y-86496600D01*
G75*
G02*
X153925400Y-86715350I0J-218750D01*
G01*
X153925400Y-87477850D01*
G75*
G02*
X153706650Y-87696600I-218750J0D01*
G01*
X153269150Y-87696600D01*
G75*
G02*
X153050400Y-87477850I0J218750D01*
G01*
G37*
%TD.AperFunction*%
%TO.P,L2,1*%
%TO.N,+3V3*%
%TA.AperFunction,SMDPad,CuDef*%
G36*
G01*
X150925400Y-87477850D02*
X150925400Y-86715350D01*
G75*
G02*
X151144150Y-86496600I218750J0D01*
G01*
X151581650Y-86496600D01*
G75*
G02*
X151800400Y-86715350I0J-218750D01*
G01*
X151800400Y-87477850D01*
G75*
G02*
X151581650Y-87696600I-218750J0D01*
G01*
X151144150Y-87696600D01*
G75*
G02*
X150925400Y-87477850I0J218750D01*
G01*
G37*
%TD.AperFunction*%
%TD*%
%TO.P,U4,1*%
%TO.N,/CAN/CAN_TX*%
%TA.AperFunction,SMDPad,CuDef*%
G36*
G01*
X150389000Y-96497000D02*
X150389000Y-96797000D01*
G75*
G02*
X150239000Y-96947000I-150000J0D01*
G01*
X148589000Y-96947000D01*
G75*
G02*
X148439000Y-96797000I0J150000D01*
G01*
X148439000Y-96497000D01*
G75*
G02*
X148589000Y-96347000I150000J0D01*
G01*
X150239000Y-96347000D01*
G75*
G02*
X150389000Y-96497000I0J-150000D01*
G01*
G37*
%TD.AperFunction*%
%TO.P,U4,2*%
%TO.N,GND*%
%TA.AperFunction,SMDPad,CuDef*%
G36*
G01*
X150389000Y-95227000D02*
X150389000Y-95527000D01*
G75*
G02*
X150239000Y-95677000I-150000J0D01*
G01*
X148589000Y-95677000D01*
G75*
G02*
X148439000Y-95527000I0J150000D01*
G01*
X148439000Y-95227000D01*
G75*
G02*
X148589000Y-95077000I150000J0D01*
G01*
X150239000Y-95077000D01*
G75*
G02*
X150389000Y-95227000I0J-150000D01*
G01*
G37*
%TD.AperFunction*%
%TO.P,U4,3*%
%TO.N,+3V3*%
%TA.AperFunction,SMDPad,CuDef*%
G36*
G01*
X150389000Y-93957000D02*
X150389000Y-94257000D01*
G75*
G02*
X150239000Y-94407000I-150000J0D01*
G01*
X148589000Y-94407000D01*
G75*
G02*
X148439000Y-94257000I0J150000D01*
G01*
X148439000Y-93957000D01*
G75*
G02*
X148589000Y-93807000I150000J0D01*
G01*
X150239000Y-93807000D01*
G75*
G02*
X150389000Y-93957000I0J-150000D01*
G01*
G37*
%TD.AperFunction*%
%TO.P,U4,4*%
%TO.N,/CAN/CAN_RX*%
%TA.AperFunction,SMDPad,CuDef*%
G36*
G01*
X150389000Y-92687000D02*
X150389000Y-92987000D01*
G75*
G02*
X150239000Y-93137000I-150000J0D01*
G01*
X148589000Y-93137000D01*
G75*
G02*
X148439000Y-92987000I0J150000D01*
G01*
X148439000Y-92687000D01*
G75*
G02*
X148589000Y-92537000I150000J0D01*
G01*
X150239000Y-92537000D01*
G75*
G02*
X150389000Y-92687000I0J-150000D01*
G01*
G37*
%TD.AperFunction*%
%TO.P,U4,5*%
%TO.N,N/C*%
%TA.AperFunction,SMDPad,CuDef*%
G36*
G01*
X145439000Y-92687000D02*
X145439000Y-92987000D01*
G75*
G02*
X145289000Y-93137000I-150000J0D01*
G01*
X143639000Y-93137000D01*
G75*
G02*
X143489000Y-92987000I0J150000D01*
G01*
X143489000Y-92687000D01*
G75*
G02*
X143639000Y-92537000I150000J0D01*
G01*
X145289000Y-92537000D01*
G75*
G02*
X145439000Y-92687000I0J-150000D01*
G01*
G37*
%TD.AperFunction*%
%TO.P,U4,6*%
%TO.N,/CAN-*%
%TA.AperFunction,SMDPad,CuDef*%
G36*
G01*
X145439000Y-93957000D02*
X145439000Y-94257000D01*
G75*
G02*
X145289000Y-94407000I-150000J0D01*
G01*
X143639000Y-94407000D01*
G75*
G02*
X143489000Y-94257000I0J150000D01*
G01*
X143489000Y-93957000D01*
G75*
G02*
X143639000Y-93807000I150000J0D01*
G01*
X145289000Y-93807000D01*
G75*
G02*
X145439000Y-93957000I0J-150000D01*
G01*
G37*
%TD.AperFunction*%
%TO.P,U4,7*%
%TO.N,/CAN+*%
%TA.AperFunction,SMDPad,CuDef*%
G36*
G01*
X145439000Y-95227000D02*
X145439000Y-95527000D01*
G75*
G02*
X145289000Y-95677000I-150000J0D01*
G01*
X143639000Y-95677000D01*
G75*
G02*
X143489000Y-95527000I0J150000D01*
G01*
X143489000Y-95227000D01*
G75*
G02*
X143639000Y-95077000I150000J0D01*
G01*
X145289000Y-95077000D01*
G75*
G02*
X145439000Y-95227000I0J-150000D01*
G01*
G37*
%TD.AperFunction*%
%TO.P,U4,8*%
%TO.N,GND*%
%TA.AperFunction,SMDPad,CuDef*%
G36*
G01*
X145439000Y-96497000D02*
X145439000Y-96797000D01*
G75*
G02*
X145289000Y-96947000I-150000J0D01*
G01*
X143639000Y-96947000D01*
G75*
G02*
X143489000Y-96797000I0J150000D01*
G01*
X143489000Y-96497000D01*
G75*
G02*
X143639000Y-96347000I150000J0D01*
G01*
X145289000Y-96347000D01*
G75*
G02*
X145439000Y-96497000I0J-150000D01*
G01*
G37*
%TD.AperFunction*%
%TD*%
%TO.P,R1,2*%
%TO.N,Net-(D2-Pad2)*%
%TA.AperFunction,SMDPad,CuDef*%
G36*
G01*
X142868800Y-84611800D02*
X142868800Y-85161800D01*
G75*
G02*
X142668800Y-85361800I-200000J0D01*
G01*
X142268800Y-85361800D01*
G75*
G02*
X142068800Y-85161800I0J200000D01*
G01*
X142068800Y-84611800D01*
G75*
G02*
X142268800Y-84411800I200000J0D01*
G01*
X142668800Y-84411800D01*
G75*
G02*
X142868800Y-84611800I0J-200000D01*
G01*
G37*
%TD.AperFunction*%
%TO.P,R1,1*%
%TO.N,+5V*%
%TA.AperFunction,SMDPad,CuDef*%
G36*
G01*
X144518800Y-84611800D02*
X144518800Y-85161800D01*
G75*
G02*
X144318800Y-85361800I-200000J0D01*
G01*
X143918800Y-85361800D01*
G75*
G02*
X143718800Y-85161800I0J200000D01*
G01*
X143718800Y-84611800D01*
G75*
G02*
X143918800Y-84411800I200000J0D01*
G01*
X144318800Y-84411800D01*
G75*
G02*
X144518800Y-84611800I0J-200000D01*
G01*
G37*
%TD.AperFunction*%
%TD*%
%TO.P,R2,1*%
%TO.N,+3V3*%
%TA.AperFunction,SMDPad,CuDef*%
G36*
G01*
X144518800Y-83037000D02*
X144518800Y-83587000D01*
G75*
G02*
X144318800Y-83787000I-200000J0D01*
G01*
X143918800Y-83787000D01*
G75*
G02*
X143718800Y-83587000I0J200000D01*
G01*
X143718800Y-83037000D01*
G75*
G02*
X143918800Y-82837000I200000J0D01*
G01*
X144318800Y-82837000D01*
G75*
G02*
X144518800Y-83037000I0J-200000D01*
G01*
G37*
%TD.AperFunction*%
%TO.P,R2,2*%
%TO.N,Net-(D3-Pad2)*%
%TA.AperFunction,SMDPad,CuDef*%
G36*
G01*
X142868800Y-83037000D02*
X142868800Y-83587000D01*
G75*
G02*
X142668800Y-83787000I-200000J0D01*
G01*
X142268800Y-83787000D01*
G75*
G02*
X142068800Y-83587000I0J200000D01*
G01*
X142068800Y-83037000D01*
G75*
G02*
X142268800Y-82837000I200000J0D01*
G01*
X142668800Y-82837000D01*
G75*
G02*
X142868800Y-83037000I0J-200000D01*
G01*
G37*
%TD.AperFunction*%
%TD*%
%TO.P,R3,1*%
%TO.N,/STM32/STM_RESET*%
%TA.AperFunction,SMDPad,CuDef*%
G36*
G01*
X164740000Y-91268000D02*
X164190000Y-91268000D01*
G75*
G02*
X163990000Y-91068000I0J200000D01*
G01*
X163990000Y-90668000D01*
G75*
G02*
X164190000Y-90468000I200000J0D01*
G01*
X164740000Y-90468000D01*
G75*
G02*
X164940000Y-90668000I0J-200000D01*
G01*
X164940000Y-91068000D01*
G75*
G02*
X164740000Y-91268000I-200000J0D01*
G01*
G37*
%TD.AperFunction*%
%TO.P,R3,2*%
%TO.N,/STM32/RESET*%
%TA.AperFunction,SMDPad,CuDef*%
G36*
G01*
X164740000Y-89618000D02*
X164190000Y-89618000D01*
G75*
G02*
X163990000Y-89418000I0J200000D01*
G01*
X163990000Y-89018000D01*
G75*
G02*
X164190000Y-88818000I200000J0D01*
G01*
X164740000Y-88818000D01*
G75*
G02*
X164940000Y-89018000I0J-200000D01*
G01*
X164940000Y-89418000D01*
G75*
G02*
X164740000Y-89618000I-200000J0D01*
G01*
G37*
%TD.AperFunction*%
%TD*%
%TO.P,R4,2*%
%TO.N,/STM32/STM_RESET*%
%TA.AperFunction,SMDPad,CuDef*%
G36*
G01*
X164740000Y-92666000D02*
X164190000Y-92666000D01*
G75*
G02*
X163990000Y-92466000I0J200000D01*
G01*
X163990000Y-92066000D01*
G75*
G02*
X164190000Y-91866000I200000J0D01*
G01*
X164740000Y-91866000D01*
G75*
G02*
X164940000Y-92066000I0J-200000D01*
G01*
X164940000Y-92466000D01*
G75*
G02*
X164740000Y-92666000I-200000J0D01*
G01*
G37*
%TD.AperFunction*%
%TO.P,R4,1*%
%TO.N,/STM32/STM_V+*%
%TA.AperFunction,SMDPad,CuDef*%
G36*
G01*
X164740000Y-94316000D02*
X164190000Y-94316000D01*
G75*
G02*
X163990000Y-94116000I0J200000D01*
G01*
X163990000Y-93716000D01*
G75*
G02*
X164190000Y-93516000I200000J0D01*
G01*
X164740000Y-93516000D01*
G75*
G02*
X164940000Y-93716000I0J-200000D01*
G01*
X164940000Y-94116000D01*
G75*
G02*
X164740000Y-94316000I-200000J0D01*
G01*
G37*
%TD.AperFunction*%
%TD*%
D16*
%TO.N,GND*%
X150590000Y-85970000D03*
X161290000Y-90043000D03*
X137000000Y-81500000D03*
X139000000Y-81500000D03*
X141000000Y-81500000D03*
X143000000Y-81500000D03*
X145000000Y-81500000D03*
X147000000Y-81500000D03*
X148500000Y-81500000D03*
X137000000Y-83500000D03*
X137000000Y-85500000D03*
X137000000Y-87500000D03*
X139000000Y-87500000D03*
X139000000Y-86000000D03*
X136500000Y-89500000D03*
X136500000Y-91500000D03*
X136500000Y-93500000D03*
X136500000Y-95500000D03*
X136500000Y-97500000D03*
X136500000Y-99500000D03*
X138500000Y-99500000D03*
X138500000Y-97500000D03*
X140500000Y-97500000D03*
X140500000Y-99500000D03*
X142500000Y-99500000D03*
X142500000Y-97500000D03*
X144500000Y-97500000D03*
X144500000Y-99500000D03*
X146500000Y-99500000D03*
X146500000Y-97500000D03*
X148500000Y-97500000D03*
X148500000Y-99500000D03*
X150500000Y-99500000D03*
X150500000Y-97500000D03*
X165500000Y-99000000D03*
X165500000Y-97000000D03*
X154500000Y-94500000D03*
X154500000Y-92500000D03*
X156500000Y-91500000D03*
X156500000Y-96500000D03*
X159500000Y-91500000D03*
X147000000Y-83500000D03*
X148500000Y-83500000D03*
X151000000Y-83500000D03*
X151000000Y-81500000D03*
X143000000Y-86500000D03*
X143500000Y-89500000D03*
X140500000Y-88000000D03*
X140500000Y-91000000D03*
X140500000Y-92500000D03*
X142500000Y-92500000D03*
X146500000Y-95500000D03*
X146500000Y-93500000D03*
X151000000Y-89000000D03*
X156500000Y-88000000D03*
X156500000Y-86000000D03*
X160000000Y-83500000D03*
X160000000Y-81500000D03*
X158000000Y-81500000D03*
X156000000Y-81500000D03*
X162000000Y-81500000D03*
X164000000Y-81500000D03*
X165500000Y-81500000D03*
X165500000Y-83500000D03*
X165500000Y-85500000D03*
X165500000Y-87500000D03*
X165500000Y-89500000D03*
X165500000Y-91500000D03*
X152500000Y-90000000D03*
X147320000Y-87884000D03*
X147320000Y-89154000D03*
X145034000Y-89916000D03*
X148082000Y-91948000D03*
X159500000Y-99700000D03*
X161400000Y-99700000D03*
X141300000Y-94700000D03*
X139400000Y-94700000D03*
X155000000Y-83400000D03*
X164100000Y-97800000D03*
X154020000Y-99650000D03*
X156140000Y-99610000D03*
X158160000Y-99600000D03*
X152300000Y-99160000D03*
%TO.N,+3V3*%
X149809200Y-88569800D03*
%TO.N,/STM32/SWCLK*%
X154241500Y-96774000D03*
%TO.N,/SWD_connect.sch/SDWIO*%
X154152600Y-95758000D03*
%TO.N,/STM32/DI_IAM_INT*%
X158800800Y-96723200D03*
X159539982Y-88328500D03*
%TO.N,/IAM-20680/SPC*%
X157632400Y-83921600D03*
X158257381Y-85988741D03*
%TO.N,/IAM-20680/ACC_V+*%
X153987500Y-85598000D03*
%TO.N,/STM32/STM_V+*%
X152958800Y-88366600D03*
X163499800Y-95300800D03*
%TO.N,/STM32/STM_RESET*%
X159613600Y-94335600D03*
X164561485Y-95255515D03*
%TD*%
D17*
%TO.N,GND*%
X162991000Y-90818000D02*
X162941000Y-90868000D01*
D18*
%TO.N,Net-(C1-Pad1)*%
X142238800Y-86712600D02*
X143281400Y-87755200D01*
X140868400Y-86712600D02*
X142238800Y-86712600D01*
X145108201Y-87755200D02*
X145855001Y-88502000D01*
X143281400Y-87755200D02*
X145108201Y-87755200D01*
%TO.N,+5V*%
X145855001Y-86377000D02*
X145855001Y-86288599D01*
X145855001Y-85035001D02*
X145706800Y-84886800D01*
X145855001Y-86377000D02*
X145855001Y-85035001D01*
X145706800Y-84886800D02*
X144068800Y-84886800D01*
X148590000Y-88439500D02*
X148383500Y-88439500D01*
X146710400Y-85890400D02*
X145706800Y-84886800D01*
X146710400Y-86771382D02*
X146710400Y-86537800D01*
X147057119Y-87118101D02*
X146710400Y-86771382D01*
X146710400Y-86537800D02*
X146710400Y-85890400D01*
X146710400Y-86766400D02*
X146710400Y-86537800D01*
X147148599Y-87204599D02*
X148041831Y-87204599D01*
X147062101Y-87118101D02*
X147148599Y-87204599D01*
X148041831Y-87204599D02*
X148554079Y-87716847D01*
X147057119Y-87118101D02*
X147062101Y-87118101D01*
X148554079Y-88403579D02*
X148590000Y-88439500D01*
X148554079Y-87716847D02*
X148554079Y-88403579D01*
%TO.N,+3V3*%
X149101720Y-94107000D02*
X149414000Y-94107000D01*
X151290599Y-87168901D02*
X151362900Y-87096600D01*
X151282400Y-87096600D02*
X149809200Y-88569800D01*
X151362900Y-87096600D02*
X151282400Y-87096600D01*
X149809200Y-88569800D02*
X148666200Y-89712800D01*
X148298200Y-89712800D02*
X146952000Y-91059000D01*
X148666200Y-89712800D02*
X148298200Y-89712800D01*
X148439000Y-94107000D02*
X149414000Y-94107000D01*
X146952000Y-92620000D02*
X148439000Y-94107000D01*
X146952000Y-91059000D02*
X146952000Y-92620000D01*
X147640000Y-86489500D02*
X147912991Y-86762491D01*
X147640000Y-86439500D02*
X147640000Y-86489500D01*
X149809200Y-88569800D02*
X149809200Y-88397218D01*
X149809200Y-88397218D02*
X148399500Y-86987518D01*
X148399500Y-86987518D02*
X148399500Y-85852000D01*
X148399500Y-85852000D02*
X147764500Y-85217000D01*
X144835210Y-84028410D02*
X146321910Y-84028410D01*
X144118800Y-83312000D02*
X144835210Y-84028410D01*
X146321910Y-84028410D02*
X147383500Y-85090000D01*
D17*
%TO.N,Net-(D2-Pad2)*%
X142518800Y-84886800D02*
X141033800Y-84886800D01*
%TO.N,Net-(D3-Pad2)*%
X142518800Y-83312000D02*
X141033800Y-83312000D01*
%TO.N,/STM32/RESET*%
X162913699Y-87863041D02*
X162913699Y-84078699D01*
X162913699Y-84078699D02*
X161830000Y-82995000D01*
X164465000Y-89218000D02*
X164148000Y-89218000D01*
X162913699Y-87983699D02*
X162913699Y-87863041D01*
X164148000Y-89218000D02*
X162913699Y-87983699D01*
%TO.N,/STM32/SWCLK*%
X152601000Y-96774000D02*
X152595000Y-96780000D01*
X154178000Y-96774000D02*
X152601000Y-96774000D01*
X154178000Y-96774000D02*
X154241500Y-96774000D01*
%TO.N,/SWD_connect.sch/SDWIO*%
X152817000Y-95758000D02*
X152595000Y-95980000D01*
X154152600Y-95758000D02*
X152817000Y-95758000D01*
%TO.N,/STM32/DI_IAM_INT*%
X158800800Y-98185800D02*
X158845000Y-98230000D01*
X158800800Y-96723200D02*
X158800800Y-98185800D01*
X159539982Y-88229482D02*
X159228892Y-87918392D01*
X159539982Y-88328500D02*
X159539982Y-88229482D01*
X159228892Y-84564492D02*
X158781200Y-84116800D01*
X159228892Y-87918392D02*
X159228892Y-84564492D01*
%TO.N,/CAN/CAN_RX*%
X151932000Y-94380000D02*
X152595000Y-94380000D01*
X150389000Y-92837000D02*
X151932000Y-94380000D01*
X149414000Y-92837000D02*
X150389000Y-92837000D01*
%TO.N,/IAM-20680/SDI*%
X157556200Y-85081810D02*
X157556200Y-84841800D01*
X156445000Y-89004126D02*
X157596961Y-87852165D01*
X156445000Y-89730000D02*
X156445000Y-89004126D01*
X157285870Y-85387130D02*
X157556200Y-85116800D01*
X157556200Y-85116800D02*
X157556200Y-84841800D01*
X157285870Y-86433343D02*
X157285870Y-85387130D01*
X157596961Y-86744433D02*
X157285870Y-86433343D01*
X157596961Y-87852165D02*
X157596961Y-86744433D01*
%TO.N,/IAM-20680/SDO*%
X158056200Y-85282986D02*
X158056200Y-84841800D01*
X157245000Y-88752200D02*
X157927171Y-88070029D01*
X157245000Y-89730000D02*
X157245000Y-88752200D01*
X158056200Y-85240796D02*
X158056200Y-84841800D01*
X157616080Y-86296566D02*
X157616080Y-85680916D01*
X157616080Y-85680916D02*
X158056200Y-85240796D01*
X157927171Y-86607657D02*
X157616080Y-86296566D01*
X157927171Y-88070029D02*
X157927171Y-86607657D01*
%TO.N,/IAM-20680/SPC*%
X158257381Y-89517619D02*
X158045000Y-89730000D01*
X158257381Y-85988741D02*
X158257381Y-89517619D01*
X157056200Y-84497800D02*
X157056200Y-84841800D01*
X157632400Y-83921600D02*
X157056200Y-84497800D01*
%TO.N,/IAM-20680/CS*%
X158898682Y-85184282D02*
X158556200Y-84841800D01*
X158898682Y-89676318D02*
X158898682Y-85184282D01*
X158845000Y-89730000D02*
X158898682Y-89676318D01*
D18*
%TO.N,/IAM-20680/ACC_V+*%
X154953000Y-84696000D02*
X154953000Y-84645500D01*
X153987500Y-85661500D02*
X154953000Y-84696000D01*
X154699000Y-85598000D02*
X155321000Y-86220000D01*
X153987500Y-85598000D02*
X154699000Y-85598000D01*
X155802500Y-84645500D02*
X156331200Y-84116800D01*
X154953000Y-84645500D02*
X155802500Y-84645500D01*
X155321000Y-86077000D02*
X156556200Y-84841800D01*
X155321000Y-86220000D02*
X155321000Y-86077000D01*
D17*
%TO.N,/IAM-20680/REGOUT*%
X155637400Y-82423000D02*
X156331200Y-83116800D01*
X152757400Y-82423000D02*
X155637400Y-82423000D01*
D18*
%TO.N,/STM32/STM_V+*%
X161241000Y-96634000D02*
X161095000Y-96780000D01*
X162941000Y-96634000D02*
X161241000Y-96634000D01*
X152589000Y-91186000D02*
X152595000Y-91180000D01*
X150762000Y-91186000D02*
X152589000Y-91186000D01*
X153487900Y-87837500D02*
X152958800Y-88366600D01*
X153487900Y-87096600D02*
X153487900Y-87837500D01*
X162655000Y-93580000D02*
X161095000Y-93580000D01*
X162941000Y-93866000D02*
X162655000Y-93580000D01*
X162941000Y-95859600D02*
X163499800Y-95300800D01*
X162941000Y-96634000D02*
X162941000Y-95859600D01*
X163499800Y-94424800D02*
X162941000Y-93866000D01*
X163499800Y-95300800D02*
X163499800Y-94424800D01*
X163499800Y-94881200D02*
X164465000Y-93916000D01*
X163499800Y-95300800D02*
X163499800Y-94881200D01*
X150762000Y-90563400D02*
X152958800Y-88366600D01*
X150762000Y-91186000D02*
X150762000Y-90563400D01*
D17*
%TO.N,/CAN/CAN_TX*%
X151885658Y-95180000D02*
X152595000Y-95180000D01*
X150418658Y-96647000D02*
X151885658Y-95180000D01*
X149414000Y-96647000D02*
X150418658Y-96647000D01*
%TO.N,/CAN+*%
X140417000Y-95631000D02*
X140478000Y-95692000D01*
X137985500Y-95631000D02*
X140417000Y-95631000D01*
X144149000Y-95692000D02*
X144464000Y-95377000D01*
X140478000Y-95692000D02*
X144149000Y-95692000D01*
%TO.N,/CAN-*%
X140317000Y-93631000D02*
X140478000Y-93792000D01*
X137985500Y-93631000D02*
X140317000Y-93631000D01*
X144149000Y-93792000D02*
X144464000Y-94107000D01*
X140478000Y-93792000D02*
X144149000Y-93792000D01*
D18*
%TO.N,/VIN*%
X138103900Y-89512600D02*
X137985500Y-89631000D01*
X140868400Y-89512600D02*
X138103900Y-89512600D01*
D17*
%TO.N,/STM32/STM_RESET*%
X164465000Y-92316000D02*
X164554200Y-92316000D01*
X161050600Y-94335600D02*
X161095000Y-94380000D01*
X159613600Y-94335600D02*
X161050600Y-94335600D01*
X165181310Y-94635690D02*
X164561485Y-95255515D01*
X165181310Y-92982310D02*
X165181310Y-94635690D01*
X164465000Y-92266000D02*
X165181310Y-92982310D01*
X163300464Y-89627464D02*
X162941000Y-89268000D01*
X163300464Y-90043000D02*
X163300464Y-89627464D01*
X163703000Y-90445536D02*
X163300464Y-90043000D01*
X163703000Y-91440000D02*
X163703000Y-90445536D01*
X164465000Y-92202000D02*
X163703000Y-91440000D01*
X164465000Y-92266000D02*
X164465000Y-92202000D01*
X162941000Y-89344000D02*
X164465000Y-90868000D01*
X162941000Y-89268000D02*
X162941000Y-89344000D01*
%TD*%
D18*
%TO.N,GND*%
X166420601Y-100170600D02*
X136079400Y-100170600D01*
X136079400Y-94956000D01*
X137029749Y-94956000D01*
X137029749Y-96306000D01*
X137035144Y-96360772D01*
X137051120Y-96413439D01*
X137077064Y-96461977D01*
X137111979Y-96504521D01*
X137154523Y-96539436D01*
X137203061Y-96565380D01*
X137255728Y-96581356D01*
X137310500Y-96586751D01*
X138660500Y-96586751D01*
X138715272Y-96581356D01*
X138767939Y-96565380D01*
X138816477Y-96539436D01*
X138859021Y-96504521D01*
X138893936Y-96461977D01*
X138919880Y-96413439D01*
X138935856Y-96360772D01*
X138941251Y-96306000D01*
X138941251Y-95999300D01*
X139747249Y-95999300D01*
X139747249Y-96092000D01*
X139752644Y-96146772D01*
X139768620Y-96199439D01*
X139794564Y-96247977D01*
X139829479Y-96290521D01*
X139872023Y-96325436D01*
X139920561Y-96351380D01*
X139973228Y-96367356D01*
X140028000Y-96372751D01*
X140928000Y-96372751D01*
X140982772Y-96367356D01*
X141035439Y-96351380D01*
X141083977Y-96325436D01*
X141126521Y-96290521D01*
X141161436Y-96247977D01*
X141187380Y-96199439D01*
X141203356Y-96146772D01*
X141208751Y-96092000D01*
X141208751Y-96060300D01*
X144130915Y-96060300D01*
X144149000Y-96062081D01*
X144167085Y-96060300D01*
X144167093Y-96060300D01*
X144221199Y-96054971D01*
X144290624Y-96033911D01*
X144354607Y-95999712D01*
X144405735Y-95957751D01*
X145289000Y-95957751D01*
X145373035Y-95949474D01*
X145453841Y-95924962D01*
X145528312Y-95885156D01*
X145593587Y-95831587D01*
X145647156Y-95766312D01*
X145686962Y-95691841D01*
X145711474Y-95611035D01*
X145719751Y-95527000D01*
X145719751Y-95227000D01*
X145711474Y-95142965D01*
X145686962Y-95062159D01*
X145647156Y-94987688D01*
X145593587Y-94922413D01*
X145528312Y-94868844D01*
X145453841Y-94829038D01*
X145373035Y-94804526D01*
X145289000Y-94796249D01*
X143639000Y-94796249D01*
X143554965Y-94804526D01*
X143474159Y-94829038D01*
X143399688Y-94868844D01*
X143334413Y-94922413D01*
X143280844Y-94987688D01*
X143241038Y-95062159D01*
X143216526Y-95142965D01*
X143208249Y-95227000D01*
X143208249Y-95323700D01*
X141208751Y-95323700D01*
X141208751Y-95292000D01*
X141203356Y-95237228D01*
X141187380Y-95184561D01*
X141161436Y-95136023D01*
X141126521Y-95093479D01*
X141083977Y-95058564D01*
X141035439Y-95032620D01*
X140982772Y-95016644D01*
X140928000Y-95011249D01*
X140028000Y-95011249D01*
X139973228Y-95016644D01*
X139920561Y-95032620D01*
X139872023Y-95058564D01*
X139829479Y-95093479D01*
X139794564Y-95136023D01*
X139768620Y-95184561D01*
X139752644Y-95237228D01*
X139750135Y-95262700D01*
X138941251Y-95262700D01*
X138941251Y-94956000D01*
X138935856Y-94901228D01*
X138919880Y-94848561D01*
X138893936Y-94800023D01*
X138859021Y-94757479D01*
X138816477Y-94722564D01*
X138767939Y-94696620D01*
X138715272Y-94680644D01*
X138660500Y-94675249D01*
X137310500Y-94675249D01*
X137255728Y-94680644D01*
X137203061Y-94696620D01*
X137154523Y-94722564D01*
X137111979Y-94757479D01*
X137077064Y-94800023D01*
X137051120Y-94848561D01*
X137035144Y-94901228D01*
X137029749Y-94956000D01*
X136079400Y-94956000D01*
X136079400Y-93537000D01*
X137031100Y-93537000D01*
X137031100Y-93725000D01*
X137067777Y-93909388D01*
X137139722Y-94083078D01*
X137244169Y-94239395D01*
X137377105Y-94372331D01*
X137533422Y-94476778D01*
X137707112Y-94548723D01*
X137891500Y-94585400D01*
X138079500Y-94585400D01*
X138263888Y-94548723D01*
X138437578Y-94476778D01*
X138593895Y-94372331D01*
X138726831Y-94239395D01*
X138831278Y-94083078D01*
X138865980Y-93999300D01*
X139747249Y-93999300D01*
X139747249Y-94192000D01*
X139752644Y-94246772D01*
X139768620Y-94299439D01*
X139794564Y-94347977D01*
X139829479Y-94390521D01*
X139872023Y-94425436D01*
X139920561Y-94451380D01*
X139973228Y-94467356D01*
X140028000Y-94472751D01*
X140928000Y-94472751D01*
X140982772Y-94467356D01*
X141035439Y-94451380D01*
X141083977Y-94425436D01*
X141126521Y-94390521D01*
X141161436Y-94347977D01*
X141187380Y-94299439D01*
X141203356Y-94246772D01*
X141208751Y-94192000D01*
X141208751Y-94160300D01*
X143208249Y-94160300D01*
X143208249Y-94257000D01*
X143216526Y-94341035D01*
X143241038Y-94421841D01*
X143280844Y-94496312D01*
X143334413Y-94561587D01*
X143399688Y-94615156D01*
X143474159Y-94654962D01*
X143554965Y-94679474D01*
X143639000Y-94687751D01*
X145289000Y-94687751D01*
X145373035Y-94679474D01*
X145453841Y-94654962D01*
X145528312Y-94615156D01*
X145593587Y-94561587D01*
X145647156Y-94496312D01*
X145686962Y-94421841D01*
X145711474Y-94341035D01*
X145719751Y-94257000D01*
X145719751Y-93957000D01*
X145711474Y-93872965D01*
X145686962Y-93792159D01*
X145647156Y-93717688D01*
X145593587Y-93652413D01*
X145528312Y-93598844D01*
X145453841Y-93559038D01*
X145373035Y-93534526D01*
X145289000Y-93526249D01*
X144405735Y-93526249D01*
X144354607Y-93484288D01*
X144290624Y-93450089D01*
X144221199Y-93429029D01*
X144167093Y-93423700D01*
X144167085Y-93423700D01*
X144149000Y-93421919D01*
X144130915Y-93423700D01*
X141208751Y-93423700D01*
X141208751Y-93392000D01*
X141203356Y-93337228D01*
X141187380Y-93284561D01*
X141161436Y-93236023D01*
X141126521Y-93193479D01*
X141083977Y-93158564D01*
X141035439Y-93132620D01*
X140982772Y-93116644D01*
X140928000Y-93111249D01*
X140028000Y-93111249D01*
X139973228Y-93116644D01*
X139920561Y-93132620D01*
X139872023Y-93158564D01*
X139829479Y-93193479D01*
X139794564Y-93236023D01*
X139780305Y-93262700D01*
X138865980Y-93262700D01*
X138831278Y-93178922D01*
X138726831Y-93022605D01*
X138593895Y-92889669D01*
X138437578Y-92785222D01*
X138263888Y-92713277D01*
X138131785Y-92687000D01*
X143208249Y-92687000D01*
X143208249Y-92987000D01*
X143216526Y-93071035D01*
X143241038Y-93151841D01*
X143280844Y-93226312D01*
X143334413Y-93291587D01*
X143399688Y-93345156D01*
X143474159Y-93384962D01*
X143554965Y-93409474D01*
X143639000Y-93417751D01*
X145289000Y-93417751D01*
X145373035Y-93409474D01*
X145453841Y-93384962D01*
X145528312Y-93345156D01*
X145593587Y-93291587D01*
X145647156Y-93226312D01*
X145686962Y-93151841D01*
X145711474Y-93071035D01*
X145719751Y-92987000D01*
X145719751Y-92687000D01*
X145711474Y-92602965D01*
X145686962Y-92522159D01*
X145647156Y-92447688D01*
X145593587Y-92382413D01*
X145528312Y-92328844D01*
X145453841Y-92289038D01*
X145373035Y-92264526D01*
X145289000Y-92256249D01*
X143639000Y-92256249D01*
X143554965Y-92264526D01*
X143474159Y-92289038D01*
X143399688Y-92328844D01*
X143334413Y-92382413D01*
X143280844Y-92447688D01*
X143241038Y-92522159D01*
X143216526Y-92602965D01*
X143208249Y-92687000D01*
X138131785Y-92687000D01*
X138079500Y-92676600D01*
X137891500Y-92676600D01*
X137707112Y-92713277D01*
X137533422Y-92785222D01*
X137377105Y-92889669D01*
X137244169Y-93022605D01*
X137139722Y-93178922D01*
X137067777Y-93352612D01*
X137031100Y-93537000D01*
X136079400Y-93537000D01*
X136079400Y-89537000D01*
X137031100Y-89537000D01*
X137031100Y-89725000D01*
X137067777Y-89909388D01*
X137139722Y-90083078D01*
X137244169Y-90239395D01*
X137377105Y-90372331D01*
X137533422Y-90476778D01*
X137707112Y-90548723D01*
X137891500Y-90585400D01*
X138079500Y-90585400D01*
X138263888Y-90548723D01*
X138437578Y-90476778D01*
X138593895Y-90372331D01*
X138726831Y-90239395D01*
X138831278Y-90083078D01*
X138899242Y-89919000D01*
X139715742Y-89919000D01*
X139722847Y-89991144D01*
X139753050Y-90090710D01*
X139802097Y-90182469D01*
X139868102Y-90262898D01*
X139948531Y-90328903D01*
X140040290Y-90377950D01*
X140139856Y-90408153D01*
X140243400Y-90418351D01*
X141493400Y-90418351D01*
X141596944Y-90408153D01*
X141696510Y-90377950D01*
X141788269Y-90328903D01*
X141868698Y-90262898D01*
X141934703Y-90182469D01*
X141983750Y-90090710D01*
X142013953Y-89991144D01*
X142024151Y-89887600D01*
X142024151Y-89137600D01*
X142013953Y-89034056D01*
X141983750Y-88934490D01*
X141934703Y-88842731D01*
X141868698Y-88762302D01*
X141788269Y-88696297D01*
X141696510Y-88647250D01*
X141596944Y-88617047D01*
X141493400Y-88606849D01*
X140243400Y-88606849D01*
X140139856Y-88617047D01*
X140040290Y-88647250D01*
X139948531Y-88696297D01*
X139868102Y-88762302D01*
X139802097Y-88842731D01*
X139753050Y-88934490D01*
X139722847Y-89034056D01*
X139715742Y-89106200D01*
X138782687Y-89106200D01*
X138726831Y-89022605D01*
X138593895Y-88889669D01*
X138437578Y-88785222D01*
X138263888Y-88713277D01*
X138079500Y-88676600D01*
X137891500Y-88676600D01*
X137707112Y-88713277D01*
X137533422Y-88785222D01*
X137377105Y-88889669D01*
X137244169Y-89022605D01*
X137139722Y-89178922D01*
X137067777Y-89352612D01*
X137031100Y-89537000D01*
X136079400Y-89537000D01*
X136079400Y-86337600D01*
X139712649Y-86337600D01*
X139712649Y-87087600D01*
X139722847Y-87191144D01*
X139753050Y-87290710D01*
X139802097Y-87382469D01*
X139868102Y-87462898D01*
X139948531Y-87528903D01*
X140040290Y-87577950D01*
X140139856Y-87608153D01*
X140243400Y-87618351D01*
X141493400Y-87618351D01*
X141596944Y-87608153D01*
X141696510Y-87577950D01*
X141788269Y-87528903D01*
X141868698Y-87462898D01*
X141934703Y-87382469D01*
X141983750Y-87290710D01*
X142013953Y-87191144D01*
X142021058Y-87119000D01*
X142070464Y-87119000D01*
X142154114Y-87202650D01*
X142141050Y-87227090D01*
X142110847Y-87326655D01*
X142100649Y-87430199D01*
X142100649Y-88080201D01*
X142110847Y-88183745D01*
X142141050Y-88283310D01*
X142190097Y-88375070D01*
X142256102Y-88455498D01*
X142336530Y-88521503D01*
X142428290Y-88570550D01*
X142527855Y-88600753D01*
X142631399Y-88610951D01*
X143931401Y-88610951D01*
X144034945Y-88600753D01*
X144134510Y-88570550D01*
X144226270Y-88521503D01*
X144306698Y-88455498D01*
X144372703Y-88375070D01*
X144421750Y-88283310D01*
X144451953Y-88183745D01*
X144454134Y-88161600D01*
X144939865Y-88161600D01*
X144982074Y-88203810D01*
X144974250Y-88283250D01*
X144974250Y-88720750D01*
X144983848Y-88818198D01*
X145012272Y-88911901D01*
X145058431Y-88998258D01*
X145120550Y-89073951D01*
X145196243Y-89136070D01*
X145282600Y-89182229D01*
X145376303Y-89210653D01*
X145473751Y-89220251D01*
X146236251Y-89220251D01*
X146333699Y-89210653D01*
X146427402Y-89182229D01*
X146513759Y-89136070D01*
X146589452Y-89073951D01*
X146651571Y-88998258D01*
X146697730Y-88911901D01*
X146726154Y-88818198D01*
X146735752Y-88720750D01*
X146735752Y-88283250D01*
X146726154Y-88185802D01*
X146697730Y-88092099D01*
X146651571Y-88005742D01*
X146589452Y-87930049D01*
X146513759Y-87867930D01*
X146427402Y-87821771D01*
X146333699Y-87793347D01*
X146236251Y-87783749D01*
X145711486Y-87783749D01*
X145409682Y-87481945D01*
X145396959Y-87466442D01*
X145335077Y-87415656D01*
X145264476Y-87377919D01*
X145187869Y-87354681D01*
X145128161Y-87348800D01*
X145128154Y-87348800D01*
X145108201Y-87346835D01*
X145088248Y-87348800D01*
X144454134Y-87348800D01*
X144451953Y-87326655D01*
X144421750Y-87227090D01*
X144372703Y-87135330D01*
X144306698Y-87054902D01*
X144226270Y-86988897D01*
X144134510Y-86939850D01*
X144034945Y-86909647D01*
X143931401Y-86899449D01*
X143000385Y-86899449D01*
X142540282Y-86439346D01*
X142527558Y-86423842D01*
X142465676Y-86373056D01*
X142395075Y-86335319D01*
X142318468Y-86312081D01*
X142258760Y-86306200D01*
X142258753Y-86306200D01*
X142238800Y-86304235D01*
X142218847Y-86306200D01*
X142021058Y-86306200D01*
X142013953Y-86234056D01*
X141983750Y-86134490D01*
X141934703Y-86042731D01*
X141868698Y-85962302D01*
X141788269Y-85896297D01*
X141696510Y-85847250D01*
X141596944Y-85817047D01*
X141493400Y-85806849D01*
X140243400Y-85806849D01*
X140139856Y-85817047D01*
X140040290Y-85847250D01*
X139948531Y-85896297D01*
X139868102Y-85962302D01*
X139802097Y-86042731D01*
X139753050Y-86134490D01*
X139722847Y-86234056D01*
X139712649Y-86337600D01*
X136079400Y-86337600D01*
X136079400Y-84636800D01*
X140303049Y-84636800D01*
X140303049Y-85136800D01*
X140312767Y-85235467D01*
X140341547Y-85330343D01*
X140388283Y-85417780D01*
X140451180Y-85494420D01*
X140527820Y-85557317D01*
X140615257Y-85604053D01*
X140710133Y-85632833D01*
X140808800Y-85642551D01*
X141258800Y-85642551D01*
X141357467Y-85632833D01*
X141452343Y-85604053D01*
X141539780Y-85557317D01*
X141616420Y-85494420D01*
X141679317Y-85417780D01*
X141726053Y-85330343D01*
X141748877Y-85255100D01*
X141797238Y-85255100D01*
X141797286Y-85255590D01*
X141824644Y-85345775D01*
X141869070Y-85428891D01*
X141928858Y-85501742D01*
X142001709Y-85561530D01*
X142084825Y-85605956D01*
X142175010Y-85633314D01*
X142268800Y-85642551D01*
X142668800Y-85642551D01*
X142762590Y-85633314D01*
X142852775Y-85605956D01*
X142935891Y-85561530D01*
X143008742Y-85501742D01*
X143068530Y-85428891D01*
X143112956Y-85345775D01*
X143140314Y-85255590D01*
X143149551Y-85161800D01*
X143149551Y-84611800D01*
X143140314Y-84518010D01*
X143112956Y-84427825D01*
X143068530Y-84344709D01*
X143008742Y-84271858D01*
X142935891Y-84212070D01*
X142852775Y-84167644D01*
X142762590Y-84140286D01*
X142668800Y-84131049D01*
X142268800Y-84131049D01*
X142175010Y-84140286D01*
X142084825Y-84167644D01*
X142001709Y-84212070D01*
X141928858Y-84271858D01*
X141869070Y-84344709D01*
X141824644Y-84427825D01*
X141797286Y-84518010D01*
X141797238Y-84518500D01*
X141748877Y-84518500D01*
X141726053Y-84443257D01*
X141679317Y-84355820D01*
X141616420Y-84279180D01*
X141539780Y-84216283D01*
X141452343Y-84169547D01*
X141357467Y-84140767D01*
X141258800Y-84131049D01*
X140808800Y-84131049D01*
X140710133Y-84140767D01*
X140615257Y-84169547D01*
X140527820Y-84216283D01*
X140451180Y-84279180D01*
X140388283Y-84355820D01*
X140341547Y-84443257D01*
X140312767Y-84538133D01*
X140303049Y-84636800D01*
X136079400Y-84636800D01*
X136079400Y-83062000D01*
X140303049Y-83062000D01*
X140303049Y-83562000D01*
X140312767Y-83660667D01*
X140341547Y-83755543D01*
X140388283Y-83842980D01*
X140451180Y-83919620D01*
X140527820Y-83982517D01*
X140615257Y-84029253D01*
X140710133Y-84058033D01*
X140808800Y-84067751D01*
X141258800Y-84067751D01*
X141357467Y-84058033D01*
X141452343Y-84029253D01*
X141539780Y-83982517D01*
X141616420Y-83919620D01*
X141679317Y-83842980D01*
X141726053Y-83755543D01*
X141748877Y-83680300D01*
X141797238Y-83680300D01*
X141797286Y-83680790D01*
X141824644Y-83770975D01*
X141869070Y-83854091D01*
X141928858Y-83926942D01*
X142001709Y-83986730D01*
X142084825Y-84031156D01*
X142175010Y-84058514D01*
X142268800Y-84067751D01*
X142668800Y-84067751D01*
X142762590Y-84058514D01*
X142852775Y-84031156D01*
X142935891Y-83986730D01*
X143008742Y-83926942D01*
X143068530Y-83854091D01*
X143112956Y-83770975D01*
X143140314Y-83680790D01*
X143149551Y-83587000D01*
X143149551Y-83037000D01*
X143438049Y-83037000D01*
X143438049Y-83587000D01*
X143447286Y-83680790D01*
X143474644Y-83770975D01*
X143519070Y-83854091D01*
X143578858Y-83926942D01*
X143651709Y-83986730D01*
X143734825Y-84031156D01*
X143825010Y-84058514D01*
X143918800Y-84067751D01*
X144299814Y-84067751D01*
X144367953Y-84135890D01*
X144318800Y-84131049D01*
X143918800Y-84131049D01*
X143825010Y-84140286D01*
X143734825Y-84167644D01*
X143651709Y-84212070D01*
X143578858Y-84271858D01*
X143519070Y-84344709D01*
X143474644Y-84427825D01*
X143447286Y-84518010D01*
X143438049Y-84611800D01*
X143438049Y-85161800D01*
X143447286Y-85255590D01*
X143474644Y-85345775D01*
X143519070Y-85428891D01*
X143578858Y-85501742D01*
X143651709Y-85561530D01*
X143734825Y-85605956D01*
X143825010Y-85633314D01*
X143918800Y-85642551D01*
X144318800Y-85642551D01*
X144412590Y-85633314D01*
X144502775Y-85605956D01*
X144585891Y-85561530D01*
X144658742Y-85501742D01*
X144718530Y-85428891D01*
X144762956Y-85345775D01*
X144778905Y-85293200D01*
X144965461Y-85293200D01*
X144998483Y-85354980D01*
X145061380Y-85431620D01*
X145138020Y-85494517D01*
X145225457Y-85541253D01*
X145320333Y-85570033D01*
X145419000Y-85579751D01*
X145448602Y-85579751D01*
X145448602Y-85661226D01*
X145376303Y-85668347D01*
X145282600Y-85696771D01*
X145196243Y-85742930D01*
X145120550Y-85805049D01*
X145058431Y-85880742D01*
X145012272Y-85967099D01*
X144983848Y-86060802D01*
X144974250Y-86158250D01*
X144974250Y-86595750D01*
X144983848Y-86693198D01*
X145012272Y-86786901D01*
X145058431Y-86873258D01*
X145120550Y-86948951D01*
X145196243Y-87011070D01*
X145282600Y-87057229D01*
X145376303Y-87085653D01*
X145473751Y-87095251D01*
X146236251Y-87095251D01*
X146333699Y-87085653D01*
X146420877Y-87059208D01*
X146421642Y-87060140D01*
X146437146Y-87072864D01*
X146755641Y-87391360D01*
X146768361Y-87406859D01*
X146783859Y-87419578D01*
X146783864Y-87419583D01*
X146794229Y-87428089D01*
X146811649Y-87442385D01*
X146847117Y-87477853D01*
X146859841Y-87493357D01*
X146921723Y-87544143D01*
X146992324Y-87581880D01*
X147030628Y-87593499D01*
X147068930Y-87605118D01*
X147076203Y-87605834D01*
X147128639Y-87610999D01*
X147128646Y-87610999D01*
X147148599Y-87612964D01*
X147168552Y-87610999D01*
X147873495Y-87610999D01*
X148025530Y-87763034D01*
X147991479Y-87790979D01*
X147956564Y-87833523D01*
X147930620Y-87882061D01*
X147914644Y-87934728D01*
X147909249Y-87989500D01*
X147909249Y-88889500D01*
X147914644Y-88944272D01*
X147930620Y-88996939D01*
X147956564Y-89045477D01*
X147991479Y-89088021D01*
X148034023Y-89122936D01*
X148082561Y-89148880D01*
X148135228Y-89164856D01*
X148190000Y-89170251D01*
X148634013Y-89170251D01*
X148497864Y-89306400D01*
X148318152Y-89306400D01*
X148298199Y-89304435D01*
X148278246Y-89306400D01*
X148278240Y-89306400D01*
X148226535Y-89311493D01*
X148218531Y-89312281D01*
X148195293Y-89319330D01*
X148141925Y-89335519D01*
X148071324Y-89373256D01*
X148009442Y-89424042D01*
X147996718Y-89439546D01*
X147133015Y-90303249D01*
X146727000Y-90303249D01*
X146628333Y-90312967D01*
X146533457Y-90341747D01*
X146446020Y-90388483D01*
X146369380Y-90451380D01*
X146306483Y-90528020D01*
X146259747Y-90615457D01*
X146230967Y-90710333D01*
X146221249Y-90809000D01*
X146221249Y-91309000D01*
X146230967Y-91407667D01*
X146259747Y-91502543D01*
X146306483Y-91589980D01*
X146369380Y-91666620D01*
X146446020Y-91729517D01*
X146533457Y-91776253D01*
X146545600Y-91779937D01*
X146545601Y-92600038D01*
X146543635Y-92620000D01*
X146551481Y-92699668D01*
X146574719Y-92776274D01*
X146574949Y-92776704D01*
X146612457Y-92846876D01*
X146627930Y-92865730D01*
X146650518Y-92893254D01*
X146650524Y-92893260D01*
X146663243Y-92908758D01*
X146678741Y-92921477D01*
X148137523Y-94380260D01*
X148150242Y-94395758D01*
X148165740Y-94408477D01*
X148165745Y-94408482D01*
X148182024Y-94421841D01*
X148198083Y-94435020D01*
X148230844Y-94496312D01*
X148284413Y-94561587D01*
X148349688Y-94615156D01*
X148424159Y-94654962D01*
X148504965Y-94679474D01*
X148589000Y-94687751D01*
X150239000Y-94687751D01*
X150323035Y-94679474D01*
X150403841Y-94654962D01*
X150478312Y-94615156D01*
X150543587Y-94561587D01*
X150597156Y-94496312D01*
X150636962Y-94421841D01*
X150661474Y-94341035D01*
X150669751Y-94257000D01*
X150669751Y-93957000D01*
X150661474Y-93872965D01*
X150636962Y-93792159D01*
X150597156Y-93717688D01*
X150543587Y-93652413D01*
X150478312Y-93598844D01*
X150403841Y-93559038D01*
X150323035Y-93534526D01*
X150239000Y-93526249D01*
X148589000Y-93526249D01*
X148504965Y-93534526D01*
X148456089Y-93549352D01*
X147593737Y-92687000D01*
X148158249Y-92687000D01*
X148158249Y-92987000D01*
X148166526Y-93071035D01*
X148191038Y-93151841D01*
X148230844Y-93226312D01*
X148284413Y-93291587D01*
X148349688Y-93345156D01*
X148424159Y-93384962D01*
X148504965Y-93409474D01*
X148589000Y-93417751D01*
X150239000Y-93417751D01*
X150323035Y-93409474D01*
X150403841Y-93384962D01*
X150411835Y-93380689D01*
X151514249Y-94483104D01*
X151514249Y-94655000D01*
X151519644Y-94709772D01*
X151535620Y-94762439D01*
X151545007Y-94780000D01*
X151535620Y-94797561D01*
X151519644Y-94850228D01*
X151514249Y-94905000D01*
X151514249Y-95030555D01*
X150431162Y-96113642D01*
X150403841Y-96099038D01*
X150323035Y-96074526D01*
X150239000Y-96066249D01*
X148589000Y-96066249D01*
X148504965Y-96074526D01*
X148424159Y-96099038D01*
X148349688Y-96138844D01*
X148284413Y-96192413D01*
X148230844Y-96257688D01*
X148191038Y-96332159D01*
X148166526Y-96412965D01*
X148158249Y-96497000D01*
X148158249Y-96797000D01*
X148166526Y-96881035D01*
X148191038Y-96961841D01*
X148230844Y-97036312D01*
X148284413Y-97101587D01*
X148349688Y-97155156D01*
X148424159Y-97194962D01*
X148504965Y-97219474D01*
X148589000Y-97227751D01*
X150239000Y-97227751D01*
X150323035Y-97219474D01*
X150403841Y-97194962D01*
X150478312Y-97155156D01*
X150543587Y-97101587D01*
X150597156Y-97036312D01*
X150636962Y-96961841D01*
X150644050Y-96938474D01*
X150680345Y-96908687D01*
X150691880Y-96894632D01*
X151514249Y-96072263D01*
X151514249Y-96255000D01*
X151519644Y-96309772D01*
X151535620Y-96362439D01*
X151545007Y-96380000D01*
X151535620Y-96397561D01*
X151519644Y-96450228D01*
X151514249Y-96505000D01*
X151514249Y-97055000D01*
X151519644Y-97109772D01*
X151535620Y-97162439D01*
X151561564Y-97210977D01*
X151596479Y-97253521D01*
X151639023Y-97288436D01*
X151687561Y-97314380D01*
X151740228Y-97330356D01*
X151795000Y-97335751D01*
X153395000Y-97335751D01*
X153449772Y-97330356D01*
X153502439Y-97314380D01*
X153520014Y-97304986D01*
X153510620Y-97322561D01*
X153494644Y-97375228D01*
X153489249Y-97430000D01*
X153489249Y-99030000D01*
X153494644Y-99084772D01*
X153510620Y-99137439D01*
X153536564Y-99185977D01*
X153571479Y-99228521D01*
X153614023Y-99263436D01*
X153662561Y-99289380D01*
X153715228Y-99305356D01*
X153770000Y-99310751D01*
X154320000Y-99310751D01*
X154374772Y-99305356D01*
X154427439Y-99289380D01*
X154475977Y-99263436D01*
X154518521Y-99228521D01*
X154553436Y-99185977D01*
X154579380Y-99137439D01*
X154595356Y-99084772D01*
X154600751Y-99030000D01*
X154600751Y-97430000D01*
X154595356Y-97375228D01*
X154590170Y-97358133D01*
X154674592Y-97301724D01*
X154769224Y-97207092D01*
X154843576Y-97095816D01*
X154894791Y-96972174D01*
X154920900Y-96840915D01*
X154920900Y-96707085D01*
X154910796Y-96656285D01*
X158121400Y-96656285D01*
X158121400Y-96790115D01*
X158147509Y-96921374D01*
X158198724Y-97045016D01*
X158273076Y-97156292D01*
X158361014Y-97244230D01*
X158336564Y-97274023D01*
X158310620Y-97322561D01*
X158294644Y-97375228D01*
X158289249Y-97430000D01*
X158289249Y-99030000D01*
X158294644Y-99084772D01*
X158310620Y-99137439D01*
X158336564Y-99185977D01*
X158371479Y-99228521D01*
X158414023Y-99263436D01*
X158462561Y-99289380D01*
X158515228Y-99305356D01*
X158570000Y-99310751D01*
X159120000Y-99310751D01*
X159174772Y-99305356D01*
X159227439Y-99289380D01*
X159275977Y-99263436D01*
X159318521Y-99228521D01*
X159353436Y-99185977D01*
X159379380Y-99137439D01*
X159395356Y-99084772D01*
X159400751Y-99030000D01*
X159400751Y-97430000D01*
X159395356Y-97375228D01*
X159379380Y-97322561D01*
X159353436Y-97274023D01*
X159318521Y-97231479D01*
X159282719Y-97202097D01*
X159328524Y-97156292D01*
X159402876Y-97045016D01*
X159454091Y-96921374D01*
X159480200Y-96790115D01*
X159480200Y-96656285D01*
X159454091Y-96525026D01*
X159402876Y-96401384D01*
X159328524Y-96290108D01*
X159233892Y-96195476D01*
X159122616Y-96121124D01*
X158998974Y-96069909D01*
X158867715Y-96043800D01*
X158733885Y-96043800D01*
X158602626Y-96069909D01*
X158478984Y-96121124D01*
X158367708Y-96195476D01*
X158273076Y-96290108D01*
X158198724Y-96401384D01*
X158147509Y-96525026D01*
X158121400Y-96656285D01*
X154910796Y-96656285D01*
X154894791Y-96575826D01*
X154843576Y-96452184D01*
X154769224Y-96340908D01*
X154674592Y-96246276D01*
X154644948Y-96226468D01*
X154680324Y-96191092D01*
X154754676Y-96079816D01*
X154805891Y-95956174D01*
X154832000Y-95824915D01*
X154832000Y-95691085D01*
X154805891Y-95559826D01*
X154754676Y-95436184D01*
X154680324Y-95324908D01*
X154585692Y-95230276D01*
X154474416Y-95155924D01*
X154350774Y-95104709D01*
X154219515Y-95078600D01*
X154085685Y-95078600D01*
X153954426Y-95104709D01*
X153830784Y-95155924D01*
X153719508Y-95230276D01*
X153675751Y-95274033D01*
X153675751Y-94905000D01*
X153670356Y-94850228D01*
X153654380Y-94797561D01*
X153644993Y-94780000D01*
X153654380Y-94762439D01*
X153670356Y-94709772D01*
X153675751Y-94655000D01*
X153675751Y-94268685D01*
X158934200Y-94268685D01*
X158934200Y-94402515D01*
X158960309Y-94533774D01*
X159011524Y-94657416D01*
X159085876Y-94768692D01*
X159180508Y-94863324D01*
X159291784Y-94937676D01*
X159415426Y-94988891D01*
X159546685Y-95015000D01*
X159680515Y-95015000D01*
X159811774Y-94988891D01*
X159935416Y-94937676D01*
X160046692Y-94863324D01*
X160078456Y-94831560D01*
X160096479Y-94853521D01*
X160139023Y-94888436D01*
X160187561Y-94914380D01*
X160240228Y-94930356D01*
X160295000Y-94935751D01*
X161895000Y-94935751D01*
X161949772Y-94930356D01*
X162002439Y-94914380D01*
X162050977Y-94888436D01*
X162093521Y-94853521D01*
X162128436Y-94810977D01*
X162154380Y-94762439D01*
X162170356Y-94709772D01*
X162175751Y-94655000D01*
X162175751Y-94105000D01*
X162170356Y-94050228D01*
X162154380Y-93997561D01*
X162148414Y-93986400D01*
X162185249Y-93986400D01*
X162185249Y-94091000D01*
X162194967Y-94189667D01*
X162223747Y-94284543D01*
X162270483Y-94371980D01*
X162333380Y-94448620D01*
X162410020Y-94511517D01*
X162497457Y-94558253D01*
X162592333Y-94587033D01*
X162691000Y-94596751D01*
X163093401Y-94596751D01*
X163093401Y-94755241D01*
X163066708Y-94773076D01*
X162972076Y-94867708D01*
X162897724Y-94978984D01*
X162846509Y-95102626D01*
X162820400Y-95233885D01*
X162820400Y-95367715D01*
X162826663Y-95399201D01*
X162667741Y-95558123D01*
X162652243Y-95570842D01*
X162639524Y-95586340D01*
X162639518Y-95586346D01*
X162619305Y-95610977D01*
X162601457Y-95632724D01*
X162597384Y-95640344D01*
X162563719Y-95703326D01*
X162540481Y-95779932D01*
X162532635Y-95859600D01*
X162534601Y-95879562D01*
X162534601Y-95930480D01*
X162497457Y-95941747D01*
X162410020Y-95988483D01*
X162333380Y-96051380D01*
X162270483Y-96128020D01*
X162223747Y-96215457D01*
X162220064Y-96227600D01*
X161929021Y-96227600D01*
X161895000Y-96224249D01*
X160295000Y-96224249D01*
X160240228Y-96229644D01*
X160187561Y-96245620D01*
X160139023Y-96271564D01*
X160096479Y-96306479D01*
X160061564Y-96349023D01*
X160035620Y-96397561D01*
X160019644Y-96450228D01*
X160014249Y-96505000D01*
X160014249Y-97055000D01*
X160019644Y-97109772D01*
X160035620Y-97162439D01*
X160061564Y-97210977D01*
X160096479Y-97253521D01*
X160139023Y-97288436D01*
X160187561Y-97314380D01*
X160240228Y-97330356D01*
X160295000Y-97335751D01*
X161895000Y-97335751D01*
X161949772Y-97330356D01*
X162002439Y-97314380D01*
X162050977Y-97288436D01*
X162093521Y-97253521D01*
X162128436Y-97210977D01*
X162154380Y-97162439D01*
X162170356Y-97109772D01*
X162175751Y-97055000D01*
X162175751Y-97040400D01*
X162220064Y-97040400D01*
X162223747Y-97052543D01*
X162270483Y-97139980D01*
X162333380Y-97216620D01*
X162410020Y-97279517D01*
X162497457Y-97326253D01*
X162592333Y-97355033D01*
X162691000Y-97364751D01*
X163191000Y-97364751D01*
X163289667Y-97355033D01*
X163384543Y-97326253D01*
X163471980Y-97279517D01*
X163548620Y-97216620D01*
X163611517Y-97139980D01*
X163658253Y-97052543D01*
X163687033Y-96957667D01*
X163696751Y-96859000D01*
X163696751Y-96409000D01*
X163687033Y-96310333D01*
X163658253Y-96215457D01*
X163611517Y-96128020D01*
X163548620Y-96051380D01*
X163471980Y-95988483D01*
X163456484Y-95980200D01*
X163566715Y-95980200D01*
X163697974Y-95954091D01*
X163821616Y-95902876D01*
X163932892Y-95828524D01*
X164027524Y-95733892D01*
X164048161Y-95703007D01*
X164128393Y-95783239D01*
X164239669Y-95857591D01*
X164363311Y-95908806D01*
X164494570Y-95934915D01*
X164628400Y-95934915D01*
X164759659Y-95908806D01*
X164883301Y-95857591D01*
X164994577Y-95783239D01*
X165089209Y-95688607D01*
X165163561Y-95577331D01*
X165214776Y-95453689D01*
X165240885Y-95322430D01*
X165240885Y-95188600D01*
X165225683Y-95112172D01*
X165428947Y-94908907D01*
X165442997Y-94897377D01*
X165454527Y-94883328D01*
X165454531Y-94883324D01*
X165472655Y-94861240D01*
X165489022Y-94841297D01*
X165523221Y-94777314D01*
X165539829Y-94722564D01*
X165544281Y-94707890D01*
X165546964Y-94680644D01*
X165549610Y-94653783D01*
X165549610Y-94653776D01*
X165551391Y-94635690D01*
X165549610Y-94617605D01*
X165549610Y-93000394D01*
X165551391Y-92982309D01*
X165549610Y-92964224D01*
X165549610Y-92964217D01*
X165544972Y-92917130D01*
X165544281Y-92910110D01*
X165530818Y-92865730D01*
X165523221Y-92840686D01*
X165489022Y-92776703D01*
X165442996Y-92720623D01*
X165428947Y-92709093D01*
X165217622Y-92497768D01*
X165220751Y-92466000D01*
X165220751Y-92066000D01*
X165211514Y-91972210D01*
X165184156Y-91882025D01*
X165139730Y-91798909D01*
X165079942Y-91726058D01*
X165007091Y-91666270D01*
X164923975Y-91621844D01*
X164833790Y-91594486D01*
X164740000Y-91585249D01*
X164369104Y-91585249D01*
X164332605Y-91548751D01*
X164740000Y-91548751D01*
X164833790Y-91539514D01*
X164923975Y-91512156D01*
X165007091Y-91467730D01*
X165079942Y-91407942D01*
X165139730Y-91335091D01*
X165184156Y-91251975D01*
X165211514Y-91161790D01*
X165220751Y-91068000D01*
X165220751Y-90668000D01*
X165211514Y-90574210D01*
X165184156Y-90484025D01*
X165139730Y-90400909D01*
X165079942Y-90328058D01*
X165007091Y-90268270D01*
X164923975Y-90223844D01*
X164833790Y-90196486D01*
X164740000Y-90187249D01*
X164305104Y-90187249D01*
X163950139Y-89832285D01*
X164006025Y-89862156D01*
X164096210Y-89889514D01*
X164190000Y-89898751D01*
X164740000Y-89898751D01*
X164833790Y-89889514D01*
X164923975Y-89862156D01*
X165007091Y-89817730D01*
X165079942Y-89757942D01*
X165139730Y-89685091D01*
X165184156Y-89601975D01*
X165211514Y-89511790D01*
X165220751Y-89418000D01*
X165220751Y-89018000D01*
X165211514Y-88924210D01*
X165184156Y-88834025D01*
X165139730Y-88750909D01*
X165079942Y-88678058D01*
X165007091Y-88618270D01*
X164923975Y-88573844D01*
X164833790Y-88546486D01*
X164740000Y-88537249D01*
X164190000Y-88537249D01*
X164096210Y-88546486D01*
X164020352Y-88569498D01*
X163401605Y-87950751D01*
X164505000Y-87950751D01*
X164559772Y-87945356D01*
X164612439Y-87929380D01*
X164660977Y-87903436D01*
X164703521Y-87868521D01*
X164738436Y-87825977D01*
X164764380Y-87777439D01*
X164780356Y-87724772D01*
X164785751Y-87670000D01*
X164785751Y-86320000D01*
X164780356Y-86265228D01*
X164764380Y-86212561D01*
X164738436Y-86164023D01*
X164703521Y-86121479D01*
X164660977Y-86086564D01*
X164612439Y-86060620D01*
X164559772Y-86044644D01*
X164505000Y-86039249D01*
X163281999Y-86039249D01*
X163281999Y-84096784D01*
X163283780Y-84078699D01*
X163281999Y-84060613D01*
X163281999Y-84060606D01*
X163276670Y-84006500D01*
X163276670Y-84006499D01*
X163255610Y-83937074D01*
X163242594Y-83912723D01*
X163221411Y-83873092D01*
X163194891Y-83840778D01*
X163186920Y-83831065D01*
X163186916Y-83831061D01*
X163175386Y-83817012D01*
X163161337Y-83805482D01*
X162713021Y-83357166D01*
X162747723Y-83273388D01*
X162784400Y-83089000D01*
X162784400Y-82901000D01*
X162747723Y-82716612D01*
X162675778Y-82542922D01*
X162571331Y-82386605D01*
X162438395Y-82253669D01*
X162282078Y-82149222D01*
X162108388Y-82077277D01*
X161924000Y-82040600D01*
X161736000Y-82040600D01*
X161551612Y-82077277D01*
X161377922Y-82149222D01*
X161221605Y-82253669D01*
X161088669Y-82386605D01*
X160984222Y-82542922D01*
X160912277Y-82716612D01*
X160875600Y-82901000D01*
X160875600Y-83089000D01*
X160912277Y-83273388D01*
X160984222Y-83447078D01*
X161088669Y-83603395D01*
X161221605Y-83736331D01*
X161377922Y-83840778D01*
X161551612Y-83912723D01*
X161736000Y-83949400D01*
X161924000Y-83949400D01*
X162108388Y-83912723D01*
X162192166Y-83878021D01*
X162545400Y-84231255D01*
X162545400Y-84360674D01*
X162438395Y-84253669D01*
X162282078Y-84149222D01*
X162108388Y-84077277D01*
X161924000Y-84040600D01*
X161736000Y-84040600D01*
X161551612Y-84077277D01*
X161377922Y-84149222D01*
X161221605Y-84253669D01*
X161088669Y-84386605D01*
X160984222Y-84542922D01*
X160912277Y-84716612D01*
X160875600Y-84901000D01*
X160875600Y-85089000D01*
X160912277Y-85273388D01*
X160984222Y-85447078D01*
X161088669Y-85603395D01*
X161221605Y-85736331D01*
X161377922Y-85840778D01*
X161551612Y-85912723D01*
X161736000Y-85949400D01*
X161924000Y-85949400D01*
X162108388Y-85912723D01*
X162282078Y-85840778D01*
X162438395Y-85736331D01*
X162545400Y-85629326D01*
X162545399Y-86360673D01*
X162438395Y-86253669D01*
X162282078Y-86149222D01*
X162108388Y-86077277D01*
X161924000Y-86040600D01*
X161736000Y-86040600D01*
X161551612Y-86077277D01*
X161377922Y-86149222D01*
X161221605Y-86253669D01*
X161088669Y-86386605D01*
X160984222Y-86542922D01*
X160912277Y-86716612D01*
X160875600Y-86901000D01*
X160875600Y-87089000D01*
X160912277Y-87273388D01*
X160984222Y-87447078D01*
X161088669Y-87603395D01*
X161221605Y-87736331D01*
X161377922Y-87840778D01*
X161551612Y-87912723D01*
X161736000Y-87949400D01*
X161924000Y-87949400D01*
X162108388Y-87912723D01*
X162282078Y-87840778D01*
X162438395Y-87736331D01*
X162545399Y-87629327D01*
X162545399Y-87965614D01*
X162543618Y-87983699D01*
X162545399Y-88001784D01*
X162545399Y-88001791D01*
X162550037Y-88048878D01*
X162550728Y-88055898D01*
X162550966Y-88056682D01*
X162571788Y-88125322D01*
X162605987Y-88189305D01*
X162624112Y-88211390D01*
X162640478Y-88231332D01*
X162640482Y-88231336D01*
X162652012Y-88245385D01*
X162666063Y-88256917D01*
X162946395Y-88537249D01*
X162691000Y-88537249D01*
X162592333Y-88546967D01*
X162497457Y-88575747D01*
X162410020Y-88622483D01*
X162333380Y-88685380D01*
X162270483Y-88762020D01*
X162223747Y-88849457D01*
X162194967Y-88944333D01*
X162185249Y-89043000D01*
X162185249Y-89493000D01*
X162194967Y-89591667D01*
X162223747Y-89686543D01*
X162270483Y-89773980D01*
X162333380Y-89850620D01*
X162410020Y-89913517D01*
X162497457Y-89960253D01*
X162592333Y-89989033D01*
X162691000Y-89998751D01*
X162932164Y-89998751D01*
X162932164Y-90024915D01*
X162930383Y-90043000D01*
X162932164Y-90061085D01*
X162932164Y-90061092D01*
X162937493Y-90115198D01*
X162958553Y-90184623D01*
X162992752Y-90248606D01*
X163013445Y-90273820D01*
X163027243Y-90290633D01*
X163027247Y-90290637D01*
X163038777Y-90304686D01*
X163052827Y-90316217D01*
X163334701Y-90598092D01*
X163334700Y-91421914D01*
X163332919Y-91440000D01*
X163334700Y-91458085D01*
X163334700Y-91458092D01*
X163340029Y-91512198D01*
X163361089Y-91581623D01*
X163395288Y-91645606D01*
X163412247Y-91666270D01*
X163429779Y-91687633D01*
X163429783Y-91687637D01*
X163441313Y-91701686D01*
X163455363Y-91713218D01*
X163718116Y-91975970D01*
X163709249Y-92066000D01*
X163709249Y-92466000D01*
X163718486Y-92559790D01*
X163745844Y-92649975D01*
X163790270Y-92733091D01*
X163850058Y-92805942D01*
X163922909Y-92865730D01*
X164006025Y-92910156D01*
X164096210Y-92937514D01*
X164190000Y-92946751D01*
X164624897Y-92946751D01*
X164813010Y-93134864D01*
X164813010Y-93242439D01*
X164740000Y-93235249D01*
X164190000Y-93235249D01*
X164096210Y-93244486D01*
X164006025Y-93271844D01*
X163922909Y-93316270D01*
X163850058Y-93376058D01*
X163790270Y-93448909D01*
X163745844Y-93532025D01*
X163718486Y-93622210D01*
X163709249Y-93716000D01*
X163709249Y-94059512D01*
X163696751Y-94047014D01*
X163696751Y-93641000D01*
X163687033Y-93542333D01*
X163658253Y-93447457D01*
X163611517Y-93360020D01*
X163548620Y-93283380D01*
X163471980Y-93220483D01*
X163384543Y-93173747D01*
X163289667Y-93144967D01*
X163191000Y-93135249D01*
X162691000Y-93135249D01*
X162592333Y-93144967D01*
X162497942Y-93173600D01*
X162141573Y-93173600D01*
X162128436Y-93149023D01*
X162093521Y-93106479D01*
X162050977Y-93071564D01*
X162002439Y-93045620D01*
X161949772Y-93029644D01*
X161895000Y-93024249D01*
X160295000Y-93024249D01*
X160240228Y-93029644D01*
X160187561Y-93045620D01*
X160139023Y-93071564D01*
X160096479Y-93106479D01*
X160061564Y-93149023D01*
X160035620Y-93197561D01*
X160019644Y-93250228D01*
X160014249Y-93305000D01*
X160014249Y-93786198D01*
X159935416Y-93733524D01*
X159811774Y-93682309D01*
X159680515Y-93656200D01*
X159546685Y-93656200D01*
X159415426Y-93682309D01*
X159291784Y-93733524D01*
X159180508Y-93807876D01*
X159085876Y-93902508D01*
X159011524Y-94013784D01*
X158960309Y-94137426D01*
X158934200Y-94268685D01*
X153675751Y-94268685D01*
X153675751Y-94105000D01*
X153670356Y-94050228D01*
X153654380Y-93997561D01*
X153628436Y-93949023D01*
X153593521Y-93906479D01*
X153550977Y-93871564D01*
X153502439Y-93845620D01*
X153449772Y-93829644D01*
X153395000Y-93824249D01*
X151897104Y-93824249D01*
X150662222Y-92589368D01*
X150654493Y-92579950D01*
X150636962Y-92522159D01*
X150597156Y-92447688D01*
X150543587Y-92382413D01*
X150478312Y-92328844D01*
X150403841Y-92289038D01*
X150323035Y-92264526D01*
X150239000Y-92256249D01*
X148589000Y-92256249D01*
X148504965Y-92264526D01*
X148424159Y-92289038D01*
X148349688Y-92328844D01*
X148284413Y-92382413D01*
X148230844Y-92447688D01*
X148191038Y-92522159D01*
X148166526Y-92602965D01*
X148158249Y-92687000D01*
X147593737Y-92687000D01*
X147358400Y-92451664D01*
X147358400Y-91779936D01*
X147370543Y-91776253D01*
X147457980Y-91729517D01*
X147534620Y-91666620D01*
X147597517Y-91589980D01*
X147644253Y-91502543D01*
X147673033Y-91407667D01*
X147682751Y-91309000D01*
X147682751Y-90936000D01*
X150031249Y-90936000D01*
X150031249Y-91436000D01*
X150040967Y-91534667D01*
X150069747Y-91629543D01*
X150116483Y-91716980D01*
X150179380Y-91793620D01*
X150256020Y-91856517D01*
X150343457Y-91903253D01*
X150438333Y-91932033D01*
X150537000Y-91941751D01*
X150987000Y-91941751D01*
X151085667Y-91932033D01*
X151180543Y-91903253D01*
X151267980Y-91856517D01*
X151344620Y-91793620D01*
X151407517Y-91716980D01*
X151454253Y-91629543D01*
X151465520Y-91592400D01*
X151551634Y-91592400D01*
X151561564Y-91610977D01*
X151596479Y-91653521D01*
X151639023Y-91688436D01*
X151687561Y-91714380D01*
X151740228Y-91730356D01*
X151795000Y-91735751D01*
X153395000Y-91735751D01*
X153449772Y-91730356D01*
X153502439Y-91714380D01*
X153550977Y-91688436D01*
X153593521Y-91653521D01*
X153628436Y-91610977D01*
X153654380Y-91562439D01*
X153670356Y-91509772D01*
X153675751Y-91455000D01*
X153675751Y-90905000D01*
X153670356Y-90850228D01*
X153654380Y-90797561D01*
X153628436Y-90749023D01*
X153593521Y-90706479D01*
X153550977Y-90671564D01*
X153502439Y-90645620D01*
X153449772Y-90629644D01*
X153395000Y-90624249D01*
X151795000Y-90624249D01*
X151740228Y-90629644D01*
X151687561Y-90645620D01*
X151639023Y-90671564D01*
X151596479Y-90706479D01*
X151561564Y-90749023D01*
X151545220Y-90779600D01*
X151465520Y-90779600D01*
X151454253Y-90742457D01*
X151407517Y-90655020D01*
X151344620Y-90578380D01*
X151332062Y-90568074D01*
X152860399Y-89039737D01*
X152891885Y-89046000D01*
X153025715Y-89046000D01*
X153156974Y-89019891D01*
X153280616Y-88968676D01*
X153391892Y-88894324D01*
X153486524Y-88799692D01*
X153560876Y-88688416D01*
X153612091Y-88564774D01*
X153638200Y-88433515D01*
X153638200Y-88299685D01*
X153631937Y-88268199D01*
X153761154Y-88138982D01*
X153776658Y-88126258D01*
X153827444Y-88064376D01*
X153865181Y-87993775D01*
X153880065Y-87944709D01*
X153897801Y-87939329D01*
X153984158Y-87893170D01*
X154059851Y-87831051D01*
X154121970Y-87755358D01*
X154168129Y-87669001D01*
X154196553Y-87575298D01*
X154206151Y-87477850D01*
X154206151Y-86715350D01*
X154196553Y-86617902D01*
X154168129Y-86524199D01*
X154121970Y-86437842D01*
X154059851Y-86362149D01*
X153984158Y-86300030D01*
X153941820Y-86277400D01*
X154054415Y-86277400D01*
X154185674Y-86251291D01*
X154309316Y-86200076D01*
X154420592Y-86125724D01*
X154515224Y-86031092D01*
X154532100Y-86005836D01*
X154565249Y-86038985D01*
X154565249Y-86445000D01*
X154574967Y-86543667D01*
X154603747Y-86638543D01*
X154650483Y-86725980D01*
X154713380Y-86802620D01*
X154790020Y-86865517D01*
X154877457Y-86912253D01*
X154972333Y-86941033D01*
X155071000Y-86950751D01*
X155571000Y-86950751D01*
X155669667Y-86941033D01*
X155764543Y-86912253D01*
X155851980Y-86865517D01*
X155928620Y-86802620D01*
X155991517Y-86725980D01*
X156038253Y-86638543D01*
X156067033Y-86543667D01*
X156076751Y-86445000D01*
X156076751Y-85995000D01*
X156067873Y-85904863D01*
X156575186Y-85397551D01*
X156643700Y-85397551D01*
X156715542Y-85390475D01*
X156784624Y-85369520D01*
X156806200Y-85357987D01*
X156827776Y-85369520D01*
X156896858Y-85390475D01*
X156916307Y-85392391D01*
X156917571Y-85405225D01*
X156917570Y-86415258D01*
X156915789Y-86433343D01*
X156917570Y-86451428D01*
X156917570Y-86451435D01*
X156918230Y-86458132D01*
X156922899Y-86505542D01*
X156924088Y-86509460D01*
X156943959Y-86574966D01*
X156974942Y-86632932D01*
X156978159Y-86638950D01*
X157000891Y-86666648D01*
X157024183Y-86695029D01*
X157038234Y-86706561D01*
X157228662Y-86896989D01*
X157228661Y-87699610D01*
X156279023Y-88649249D01*
X156170000Y-88649249D01*
X156115228Y-88654644D01*
X156062561Y-88670620D01*
X156014023Y-88696564D01*
X155971479Y-88731479D01*
X155936564Y-88774023D01*
X155910620Y-88822561D01*
X155894644Y-88875228D01*
X155889249Y-88930000D01*
X155889249Y-90530000D01*
X155894644Y-90584772D01*
X155910620Y-90637439D01*
X155936564Y-90685977D01*
X155971479Y-90728521D01*
X156014023Y-90763436D01*
X156062561Y-90789380D01*
X156115228Y-90805356D01*
X156170000Y-90810751D01*
X156720000Y-90810751D01*
X156774772Y-90805356D01*
X156827439Y-90789380D01*
X156845000Y-90779993D01*
X156862561Y-90789380D01*
X156915228Y-90805356D01*
X156970000Y-90810751D01*
X157520000Y-90810751D01*
X157574772Y-90805356D01*
X157627439Y-90789380D01*
X157645000Y-90779993D01*
X157662561Y-90789380D01*
X157715228Y-90805356D01*
X157770000Y-90810751D01*
X158320000Y-90810751D01*
X158374772Y-90805356D01*
X158427439Y-90789380D01*
X158445000Y-90779993D01*
X158462561Y-90789380D01*
X158515228Y-90805356D01*
X158570000Y-90810751D01*
X159120000Y-90810751D01*
X159174772Y-90805356D01*
X159227439Y-90789380D01*
X159275977Y-90763436D01*
X159318521Y-90728521D01*
X159353436Y-90685977D01*
X159379380Y-90637439D01*
X159395356Y-90584772D01*
X159400751Y-90530000D01*
X159400751Y-88993515D01*
X159473067Y-89007900D01*
X159606897Y-89007900D01*
X159738156Y-88981791D01*
X159861798Y-88930576D01*
X159973074Y-88856224D01*
X160067706Y-88761592D01*
X160142058Y-88650316D01*
X160193273Y-88526674D01*
X160219382Y-88395415D01*
X160219382Y-88261585D01*
X160193273Y-88130326D01*
X160142058Y-88006684D01*
X160067706Y-87895408D01*
X159973074Y-87800776D01*
X159861798Y-87726424D01*
X159738156Y-87675209D01*
X159606897Y-87649100D01*
X159597192Y-87649100D01*
X159597192Y-84582577D01*
X159598973Y-84564491D01*
X159597192Y-84546406D01*
X159597192Y-84546399D01*
X159591863Y-84492293D01*
X159590933Y-84489225D01*
X159584835Y-84469125D01*
X159570803Y-84422868D01*
X159536604Y-84358885D01*
X159515911Y-84333671D01*
X159502113Y-84316858D01*
X159502109Y-84316854D01*
X159490579Y-84302805D01*
X159476529Y-84291274D01*
X159336951Y-84151696D01*
X159336951Y-84029300D01*
X159329875Y-83957458D01*
X159308920Y-83888376D01*
X159297387Y-83866800D01*
X159308920Y-83845224D01*
X159329875Y-83776142D01*
X159336951Y-83704300D01*
X159336951Y-83529300D01*
X159329875Y-83457458D01*
X159308920Y-83388376D01*
X159274890Y-83324711D01*
X159229093Y-83268907D01*
X159173289Y-83223110D01*
X159109624Y-83189080D01*
X159040542Y-83168125D01*
X158968700Y-83161049D01*
X158593700Y-83161049D01*
X158521858Y-83168125D01*
X158452776Y-83189080D01*
X158389111Y-83223110D01*
X158333307Y-83268907D01*
X158287510Y-83324711D01*
X158253480Y-83388376D01*
X158232525Y-83457458D01*
X158225449Y-83529300D01*
X158225449Y-83586274D01*
X158160124Y-83488508D01*
X158065492Y-83393876D01*
X157954216Y-83319524D01*
X157830574Y-83268309D01*
X157699315Y-83242200D01*
X157565485Y-83242200D01*
X157434226Y-83268309D01*
X157310584Y-83319524D01*
X157199308Y-83393876D01*
X157104676Y-83488508D01*
X157030324Y-83599784D01*
X156979109Y-83723426D01*
X156953000Y-83854685D01*
X156953000Y-83988515D01*
X156968202Y-84064943D01*
X156886951Y-84146195D01*
X156886951Y-84029300D01*
X156879875Y-83957458D01*
X156858920Y-83888376D01*
X156824890Y-83824711D01*
X156779093Y-83768907D01*
X156723289Y-83723110D01*
X156659624Y-83689080D01*
X156590542Y-83668125D01*
X156518700Y-83661049D01*
X156143700Y-83661049D01*
X156071858Y-83668125D01*
X156002776Y-83689080D01*
X155939111Y-83723110D01*
X155883307Y-83768907D01*
X155837510Y-83824711D01*
X155803480Y-83888376D01*
X155782525Y-83957458D01*
X155775449Y-84029300D01*
X155775449Y-84097815D01*
X155651317Y-84221947D01*
X155645253Y-84201957D01*
X155598517Y-84114520D01*
X155535620Y-84037880D01*
X155458980Y-83974983D01*
X155371543Y-83928247D01*
X155276667Y-83899467D01*
X155178000Y-83889749D01*
X154728000Y-83889749D01*
X154629333Y-83899467D01*
X154534457Y-83928247D01*
X154447020Y-83974983D01*
X154370380Y-84037880D01*
X154307483Y-84114520D01*
X154260747Y-84201957D01*
X154231967Y-84296833D01*
X154222249Y-84395500D01*
X154222249Y-84852015D01*
X154138866Y-84935398D01*
X154054415Y-84918600D01*
X153920585Y-84918600D01*
X153789326Y-84944709D01*
X153665684Y-84995924D01*
X153554408Y-85070276D01*
X153459776Y-85164908D01*
X153385424Y-85276184D01*
X153334209Y-85399826D01*
X153308100Y-85531085D01*
X153308100Y-85664915D01*
X153334209Y-85796174D01*
X153385424Y-85919816D01*
X153459776Y-86031092D01*
X153554408Y-86125724D01*
X153665684Y-86200076D01*
X153703763Y-86215849D01*
X153269150Y-86215849D01*
X153171702Y-86225447D01*
X153077999Y-86253871D01*
X152991642Y-86300030D01*
X152915949Y-86362149D01*
X152853830Y-86437842D01*
X152807671Y-86524199D01*
X152779247Y-86617902D01*
X152769649Y-86715350D01*
X152769649Y-87477850D01*
X152779247Y-87575298D01*
X152807671Y-87669001D01*
X152824557Y-87700592D01*
X152760626Y-87713309D01*
X152636984Y-87764524D01*
X152525708Y-87838876D01*
X152431076Y-87933508D01*
X152356724Y-88044784D01*
X152305509Y-88168426D01*
X152279400Y-88299685D01*
X152279400Y-88433515D01*
X152285663Y-88465001D01*
X150488741Y-90261923D01*
X150473243Y-90274642D01*
X150460524Y-90290140D01*
X150460518Y-90290146D01*
X150449765Y-90303249D01*
X150422457Y-90336524D01*
X150403318Y-90372331D01*
X150384719Y-90407126D01*
X150368314Y-90461207D01*
X150343457Y-90468747D01*
X150256020Y-90515483D01*
X150179380Y-90578380D01*
X150116483Y-90655020D01*
X150069747Y-90742457D01*
X150040967Y-90837333D01*
X150031249Y-90936000D01*
X147682751Y-90936000D01*
X147682751Y-90902985D01*
X148466536Y-90119200D01*
X148646247Y-90119200D01*
X148666200Y-90121165D01*
X148686153Y-90119200D01*
X148686160Y-90119200D01*
X148745868Y-90113319D01*
X148822475Y-90090081D01*
X148893076Y-90052344D01*
X148954958Y-90001558D01*
X148967682Y-89986054D01*
X149710799Y-89242937D01*
X149742285Y-89249200D01*
X149876115Y-89249200D01*
X150007374Y-89223091D01*
X150131016Y-89171876D01*
X150242292Y-89097524D01*
X150336924Y-89002892D01*
X150411276Y-88891616D01*
X150462491Y-88767974D01*
X150488600Y-88636715D01*
X150488600Y-88502885D01*
X150482337Y-88471399D01*
X151000115Y-87953621D01*
X151046702Y-87967753D01*
X151144150Y-87977351D01*
X151581650Y-87977351D01*
X151679098Y-87967753D01*
X151772801Y-87939329D01*
X151859158Y-87893170D01*
X151934851Y-87831051D01*
X151996970Y-87755358D01*
X152043129Y-87669001D01*
X152071553Y-87575298D01*
X152081151Y-87477850D01*
X152081151Y-86715350D01*
X152071553Y-86617902D01*
X152043129Y-86524199D01*
X151996970Y-86437842D01*
X151934851Y-86362149D01*
X151859158Y-86300030D01*
X151772801Y-86253871D01*
X151679098Y-86225447D01*
X151581650Y-86215849D01*
X151144150Y-86215849D01*
X151046702Y-86225447D01*
X150952999Y-86253871D01*
X150866642Y-86300030D01*
X150790949Y-86362149D01*
X150728830Y-86437842D01*
X150682671Y-86524199D01*
X150654247Y-86617902D01*
X150644649Y-86715350D01*
X150644649Y-87159615D01*
X149907601Y-87896663D01*
X149877368Y-87890649D01*
X148805900Y-86819182D01*
X148805900Y-85871953D01*
X148807865Y-85852000D01*
X148805900Y-85832047D01*
X148805900Y-85832040D01*
X148800019Y-85772332D01*
X148794542Y-85754274D01*
X148776781Y-85695725D01*
X148766495Y-85676481D01*
X148748359Y-85642551D01*
X148979800Y-85642551D01*
X149078467Y-85632833D01*
X149173343Y-85604053D01*
X149260780Y-85557317D01*
X149337420Y-85494420D01*
X149400317Y-85417780D01*
X149447053Y-85330343D01*
X149475833Y-85235467D01*
X149485551Y-85136800D01*
X149485551Y-84636800D01*
X149475833Y-84538133D01*
X149447053Y-84443257D01*
X149400317Y-84355820D01*
X149337420Y-84279180D01*
X149260780Y-84216283D01*
X149173343Y-84169547D01*
X149078467Y-84140767D01*
X148979800Y-84131049D01*
X148529800Y-84131049D01*
X148431133Y-84140767D01*
X148336257Y-84169547D01*
X148248820Y-84216283D01*
X148221017Y-84239100D01*
X147107336Y-84239100D01*
X146623391Y-83755155D01*
X146610668Y-83739652D01*
X146548786Y-83688866D01*
X146478185Y-83651129D01*
X146401578Y-83627891D01*
X146341870Y-83622010D01*
X146341863Y-83622010D01*
X146321910Y-83620045D01*
X146301957Y-83622010D01*
X145003547Y-83622010D01*
X144799551Y-83418014D01*
X144799551Y-83037000D01*
X144790314Y-82943210D01*
X144762956Y-82853025D01*
X144718530Y-82769909D01*
X144658742Y-82697058D01*
X144585891Y-82637270D01*
X144502775Y-82592844D01*
X144412590Y-82565486D01*
X144318800Y-82556249D01*
X143918800Y-82556249D01*
X143825010Y-82565486D01*
X143734825Y-82592844D01*
X143651709Y-82637270D01*
X143578858Y-82697058D01*
X143519070Y-82769909D01*
X143474644Y-82853025D01*
X143447286Y-82943210D01*
X143438049Y-83037000D01*
X143149551Y-83037000D01*
X143140314Y-82943210D01*
X143112956Y-82853025D01*
X143068530Y-82769909D01*
X143008742Y-82697058D01*
X142935891Y-82637270D01*
X142852775Y-82592844D01*
X142762590Y-82565486D01*
X142668800Y-82556249D01*
X142268800Y-82556249D01*
X142175010Y-82565486D01*
X142084825Y-82592844D01*
X142001709Y-82637270D01*
X141928858Y-82697058D01*
X141869070Y-82769909D01*
X141824644Y-82853025D01*
X141797286Y-82943210D01*
X141797238Y-82943700D01*
X141748877Y-82943700D01*
X141726053Y-82868457D01*
X141679317Y-82781020D01*
X141616420Y-82704380D01*
X141539780Y-82641483D01*
X141452343Y-82594747D01*
X141357467Y-82565967D01*
X141258800Y-82556249D01*
X140808800Y-82556249D01*
X140710133Y-82565967D01*
X140615257Y-82594747D01*
X140527820Y-82641483D01*
X140451180Y-82704380D01*
X140388283Y-82781020D01*
X140341547Y-82868457D01*
X140312767Y-82963333D01*
X140303049Y-83062000D01*
X136079400Y-83062000D01*
X136079400Y-81772999D01*
X151901649Y-81772999D01*
X151901649Y-83073001D01*
X151911847Y-83176545D01*
X151942050Y-83276110D01*
X151991097Y-83367870D01*
X152057102Y-83448298D01*
X152137530Y-83514303D01*
X152229290Y-83563350D01*
X152328855Y-83593553D01*
X152432399Y-83603751D01*
X153082401Y-83603751D01*
X153185945Y-83593553D01*
X153285510Y-83563350D01*
X153377270Y-83514303D01*
X153457698Y-83448298D01*
X153523703Y-83367870D01*
X153572750Y-83276110D01*
X153602953Y-83176545D01*
X153613151Y-83073001D01*
X153613151Y-82791300D01*
X155484846Y-82791300D01*
X155775449Y-83081904D01*
X155775449Y-83204300D01*
X155782525Y-83276142D01*
X155803480Y-83345224D01*
X155837510Y-83408889D01*
X155883307Y-83464693D01*
X155939111Y-83510490D01*
X156002776Y-83544520D01*
X156071858Y-83565475D01*
X156143700Y-83572551D01*
X156518700Y-83572551D01*
X156590542Y-83565475D01*
X156659624Y-83544520D01*
X156723289Y-83510490D01*
X156779093Y-83464693D01*
X156824890Y-83408889D01*
X156858920Y-83345224D01*
X156879875Y-83276142D01*
X156886951Y-83204300D01*
X156886951Y-83029300D01*
X156879875Y-82957458D01*
X156858920Y-82888376D01*
X156824890Y-82824711D01*
X156779093Y-82768907D01*
X156723289Y-82723110D01*
X156659624Y-82689080D01*
X156590542Y-82668125D01*
X156518700Y-82661049D01*
X156396304Y-82661049D01*
X155910622Y-82175368D01*
X155899087Y-82161313D01*
X155843007Y-82115288D01*
X155779024Y-82081089D01*
X155709599Y-82060029D01*
X155655493Y-82054700D01*
X155655485Y-82054700D01*
X155637400Y-82052919D01*
X155619315Y-82054700D01*
X153613151Y-82054700D01*
X153613151Y-81772999D01*
X153602953Y-81669455D01*
X153572750Y-81569890D01*
X153523703Y-81478130D01*
X153457698Y-81397702D01*
X153377270Y-81331697D01*
X153285510Y-81282650D01*
X153185945Y-81252447D01*
X153082401Y-81242249D01*
X152432399Y-81242249D01*
X152328855Y-81252447D01*
X152229290Y-81282650D01*
X152137530Y-81331697D01*
X152057102Y-81397702D01*
X151991097Y-81478130D01*
X151942050Y-81569890D01*
X151911847Y-81669455D01*
X151901649Y-81772999D01*
X136079400Y-81772999D01*
X136079400Y-80829400D01*
X166420600Y-80829400D01*
X166420601Y-100170600D01*
%TA.AperFunction,Conductor*%
D19*
G36*
X166420601Y-100170600D02*
G01*
X136079400Y-100170600D01*
X136079400Y-94956000D01*
X137029749Y-94956000D01*
X137029749Y-96306000D01*
X137035144Y-96360772D01*
X137051120Y-96413439D01*
X137077064Y-96461977D01*
X137111979Y-96504521D01*
X137154523Y-96539436D01*
X137203061Y-96565380D01*
X137255728Y-96581356D01*
X137310500Y-96586751D01*
X138660500Y-96586751D01*
X138715272Y-96581356D01*
X138767939Y-96565380D01*
X138816477Y-96539436D01*
X138859021Y-96504521D01*
X138893936Y-96461977D01*
X138919880Y-96413439D01*
X138935856Y-96360772D01*
X138941251Y-96306000D01*
X138941251Y-95999300D01*
X139747249Y-95999300D01*
X139747249Y-96092000D01*
X139752644Y-96146772D01*
X139768620Y-96199439D01*
X139794564Y-96247977D01*
X139829479Y-96290521D01*
X139872023Y-96325436D01*
X139920561Y-96351380D01*
X139973228Y-96367356D01*
X140028000Y-96372751D01*
X140928000Y-96372751D01*
X140982772Y-96367356D01*
X141035439Y-96351380D01*
X141083977Y-96325436D01*
X141126521Y-96290521D01*
X141161436Y-96247977D01*
X141187380Y-96199439D01*
X141203356Y-96146772D01*
X141208751Y-96092000D01*
X141208751Y-96060300D01*
X144130915Y-96060300D01*
X144149000Y-96062081D01*
X144167085Y-96060300D01*
X144167093Y-96060300D01*
X144221199Y-96054971D01*
X144290624Y-96033911D01*
X144354607Y-95999712D01*
X144405735Y-95957751D01*
X145289000Y-95957751D01*
X145373035Y-95949474D01*
X145453841Y-95924962D01*
X145528312Y-95885156D01*
X145593587Y-95831587D01*
X145647156Y-95766312D01*
X145686962Y-95691841D01*
X145711474Y-95611035D01*
X145719751Y-95527000D01*
X145719751Y-95227000D01*
X145711474Y-95142965D01*
X145686962Y-95062159D01*
X145647156Y-94987688D01*
X145593587Y-94922413D01*
X145528312Y-94868844D01*
X145453841Y-94829038D01*
X145373035Y-94804526D01*
X145289000Y-94796249D01*
X143639000Y-94796249D01*
X143554965Y-94804526D01*
X143474159Y-94829038D01*
X143399688Y-94868844D01*
X143334413Y-94922413D01*
X143280844Y-94987688D01*
X143241038Y-95062159D01*
X143216526Y-95142965D01*
X143208249Y-95227000D01*
X143208249Y-95323700D01*
X141208751Y-95323700D01*
X141208751Y-95292000D01*
X141203356Y-95237228D01*
X141187380Y-95184561D01*
X141161436Y-95136023D01*
X141126521Y-95093479D01*
X141083977Y-95058564D01*
X141035439Y-95032620D01*
X140982772Y-95016644D01*
X140928000Y-95011249D01*
X140028000Y-95011249D01*
X139973228Y-95016644D01*
X139920561Y-95032620D01*
X139872023Y-95058564D01*
X139829479Y-95093479D01*
X139794564Y-95136023D01*
X139768620Y-95184561D01*
X139752644Y-95237228D01*
X139750135Y-95262700D01*
X138941251Y-95262700D01*
X138941251Y-94956000D01*
X138935856Y-94901228D01*
X138919880Y-94848561D01*
X138893936Y-94800023D01*
X138859021Y-94757479D01*
X138816477Y-94722564D01*
X138767939Y-94696620D01*
X138715272Y-94680644D01*
X138660500Y-94675249D01*
X137310500Y-94675249D01*
X137255728Y-94680644D01*
X137203061Y-94696620D01*
X137154523Y-94722564D01*
X137111979Y-94757479D01*
X137077064Y-94800023D01*
X137051120Y-94848561D01*
X137035144Y-94901228D01*
X137029749Y-94956000D01*
X136079400Y-94956000D01*
X136079400Y-93537000D01*
X137031100Y-93537000D01*
X137031100Y-93725000D01*
X137067777Y-93909388D01*
X137139722Y-94083078D01*
X137244169Y-94239395D01*
X137377105Y-94372331D01*
X137533422Y-94476778D01*
X137707112Y-94548723D01*
X137891500Y-94585400D01*
X138079500Y-94585400D01*
X138263888Y-94548723D01*
X138437578Y-94476778D01*
X138593895Y-94372331D01*
X138726831Y-94239395D01*
X138831278Y-94083078D01*
X138865980Y-93999300D01*
X139747249Y-93999300D01*
X139747249Y-94192000D01*
X139752644Y-94246772D01*
X139768620Y-94299439D01*
X139794564Y-94347977D01*
X139829479Y-94390521D01*
X139872023Y-94425436D01*
X139920561Y-94451380D01*
X139973228Y-94467356D01*
X140028000Y-94472751D01*
X140928000Y-94472751D01*
X140982772Y-94467356D01*
X141035439Y-94451380D01*
X141083977Y-94425436D01*
X141126521Y-94390521D01*
X141161436Y-94347977D01*
X141187380Y-94299439D01*
X141203356Y-94246772D01*
X141208751Y-94192000D01*
X141208751Y-94160300D01*
X143208249Y-94160300D01*
X143208249Y-94257000D01*
X143216526Y-94341035D01*
X143241038Y-94421841D01*
X143280844Y-94496312D01*
X143334413Y-94561587D01*
X143399688Y-94615156D01*
X143474159Y-94654962D01*
X143554965Y-94679474D01*
X143639000Y-94687751D01*
X145289000Y-94687751D01*
X145373035Y-94679474D01*
X145453841Y-94654962D01*
X145528312Y-94615156D01*
X145593587Y-94561587D01*
X145647156Y-94496312D01*
X145686962Y-94421841D01*
X145711474Y-94341035D01*
X145719751Y-94257000D01*
X145719751Y-93957000D01*
X145711474Y-93872965D01*
X145686962Y-93792159D01*
X145647156Y-93717688D01*
X145593587Y-93652413D01*
X145528312Y-93598844D01*
X145453841Y-93559038D01*
X145373035Y-93534526D01*
X145289000Y-93526249D01*
X144405735Y-93526249D01*
X144354607Y-93484288D01*
X144290624Y-93450089D01*
X144221199Y-93429029D01*
X144167093Y-93423700D01*
X144167085Y-93423700D01*
X144149000Y-93421919D01*
X144130915Y-93423700D01*
X141208751Y-93423700D01*
X141208751Y-93392000D01*
X141203356Y-93337228D01*
X141187380Y-93284561D01*
X141161436Y-93236023D01*
X141126521Y-93193479D01*
X141083977Y-93158564D01*
X141035439Y-93132620D01*
X140982772Y-93116644D01*
X140928000Y-93111249D01*
X140028000Y-93111249D01*
X139973228Y-93116644D01*
X139920561Y-93132620D01*
X139872023Y-93158564D01*
X139829479Y-93193479D01*
X139794564Y-93236023D01*
X139780305Y-93262700D01*
X138865980Y-93262700D01*
X138831278Y-93178922D01*
X138726831Y-93022605D01*
X138593895Y-92889669D01*
X138437578Y-92785222D01*
X138263888Y-92713277D01*
X138131785Y-92687000D01*
X143208249Y-92687000D01*
X143208249Y-92987000D01*
X143216526Y-93071035D01*
X143241038Y-93151841D01*
X143280844Y-93226312D01*
X143334413Y-93291587D01*
X143399688Y-93345156D01*
X143474159Y-93384962D01*
X143554965Y-93409474D01*
X143639000Y-93417751D01*
X145289000Y-93417751D01*
X145373035Y-93409474D01*
X145453841Y-93384962D01*
X145528312Y-93345156D01*
X145593587Y-93291587D01*
X145647156Y-93226312D01*
X145686962Y-93151841D01*
X145711474Y-93071035D01*
X145719751Y-92987000D01*
X145719751Y-92687000D01*
X145711474Y-92602965D01*
X145686962Y-92522159D01*
X145647156Y-92447688D01*
X145593587Y-92382413D01*
X145528312Y-92328844D01*
X145453841Y-92289038D01*
X145373035Y-92264526D01*
X145289000Y-92256249D01*
X143639000Y-92256249D01*
X143554965Y-92264526D01*
X143474159Y-92289038D01*
X143399688Y-92328844D01*
X143334413Y-92382413D01*
X143280844Y-92447688D01*
X143241038Y-92522159D01*
X143216526Y-92602965D01*
X143208249Y-92687000D01*
X138131785Y-92687000D01*
X138079500Y-92676600D01*
X137891500Y-92676600D01*
X137707112Y-92713277D01*
X137533422Y-92785222D01*
X137377105Y-92889669D01*
X137244169Y-93022605D01*
X137139722Y-93178922D01*
X137067777Y-93352612D01*
X137031100Y-93537000D01*
X136079400Y-93537000D01*
X136079400Y-89537000D01*
X137031100Y-89537000D01*
X137031100Y-89725000D01*
X137067777Y-89909388D01*
X137139722Y-90083078D01*
X137244169Y-90239395D01*
X137377105Y-90372331D01*
X137533422Y-90476778D01*
X137707112Y-90548723D01*
X137891500Y-90585400D01*
X138079500Y-90585400D01*
X138263888Y-90548723D01*
X138437578Y-90476778D01*
X138593895Y-90372331D01*
X138726831Y-90239395D01*
X138831278Y-90083078D01*
X138899242Y-89919000D01*
X139715742Y-89919000D01*
X139722847Y-89991144D01*
X139753050Y-90090710D01*
X139802097Y-90182469D01*
X139868102Y-90262898D01*
X139948531Y-90328903D01*
X140040290Y-90377950D01*
X140139856Y-90408153D01*
X140243400Y-90418351D01*
X141493400Y-90418351D01*
X141596944Y-90408153D01*
X141696510Y-90377950D01*
X141788269Y-90328903D01*
X141868698Y-90262898D01*
X141934703Y-90182469D01*
X141983750Y-90090710D01*
X142013953Y-89991144D01*
X142024151Y-89887600D01*
X142024151Y-89137600D01*
X142013953Y-89034056D01*
X141983750Y-88934490D01*
X141934703Y-88842731D01*
X141868698Y-88762302D01*
X141788269Y-88696297D01*
X141696510Y-88647250D01*
X141596944Y-88617047D01*
X141493400Y-88606849D01*
X140243400Y-88606849D01*
X140139856Y-88617047D01*
X140040290Y-88647250D01*
X139948531Y-88696297D01*
X139868102Y-88762302D01*
X139802097Y-88842731D01*
X139753050Y-88934490D01*
X139722847Y-89034056D01*
X139715742Y-89106200D01*
X138782687Y-89106200D01*
X138726831Y-89022605D01*
X138593895Y-88889669D01*
X138437578Y-88785222D01*
X138263888Y-88713277D01*
X138079500Y-88676600D01*
X137891500Y-88676600D01*
X137707112Y-88713277D01*
X137533422Y-88785222D01*
X137377105Y-88889669D01*
X137244169Y-89022605D01*
X137139722Y-89178922D01*
X137067777Y-89352612D01*
X137031100Y-89537000D01*
X136079400Y-89537000D01*
X136079400Y-86337600D01*
X139712649Y-86337600D01*
X139712649Y-87087600D01*
X139722847Y-87191144D01*
X139753050Y-87290710D01*
X139802097Y-87382469D01*
X139868102Y-87462898D01*
X139948531Y-87528903D01*
X140040290Y-87577950D01*
X140139856Y-87608153D01*
X140243400Y-87618351D01*
X141493400Y-87618351D01*
X141596944Y-87608153D01*
X141696510Y-87577950D01*
X141788269Y-87528903D01*
X141868698Y-87462898D01*
X141934703Y-87382469D01*
X141983750Y-87290710D01*
X142013953Y-87191144D01*
X142021058Y-87119000D01*
X142070464Y-87119000D01*
X142154114Y-87202650D01*
X142141050Y-87227090D01*
X142110847Y-87326655D01*
X142100649Y-87430199D01*
X142100649Y-88080201D01*
X142110847Y-88183745D01*
X142141050Y-88283310D01*
X142190097Y-88375070D01*
X142256102Y-88455498D01*
X142336530Y-88521503D01*
X142428290Y-88570550D01*
X142527855Y-88600753D01*
X142631399Y-88610951D01*
X143931401Y-88610951D01*
X144034945Y-88600753D01*
X144134510Y-88570550D01*
X144226270Y-88521503D01*
X144306698Y-88455498D01*
X144372703Y-88375070D01*
X144421750Y-88283310D01*
X144451953Y-88183745D01*
X144454134Y-88161600D01*
X144939865Y-88161600D01*
X144982074Y-88203810D01*
X144974250Y-88283250D01*
X144974250Y-88720750D01*
X144983848Y-88818198D01*
X145012272Y-88911901D01*
X145058431Y-88998258D01*
X145120550Y-89073951D01*
X145196243Y-89136070D01*
X145282600Y-89182229D01*
X145376303Y-89210653D01*
X145473751Y-89220251D01*
X146236251Y-89220251D01*
X146333699Y-89210653D01*
X146427402Y-89182229D01*
X146513759Y-89136070D01*
X146589452Y-89073951D01*
X146651571Y-88998258D01*
X146697730Y-88911901D01*
X146726154Y-88818198D01*
X146735752Y-88720750D01*
X146735752Y-88283250D01*
X146726154Y-88185802D01*
X146697730Y-88092099D01*
X146651571Y-88005742D01*
X146589452Y-87930049D01*
X146513759Y-87867930D01*
X146427402Y-87821771D01*
X146333699Y-87793347D01*
X146236251Y-87783749D01*
X145711486Y-87783749D01*
X145409682Y-87481945D01*
X145396959Y-87466442D01*
X145335077Y-87415656D01*
X145264476Y-87377919D01*
X145187869Y-87354681D01*
X145128161Y-87348800D01*
X145128154Y-87348800D01*
X145108201Y-87346835D01*
X145088248Y-87348800D01*
X144454134Y-87348800D01*
X144451953Y-87326655D01*
X144421750Y-87227090D01*
X144372703Y-87135330D01*
X144306698Y-87054902D01*
X144226270Y-86988897D01*
X144134510Y-86939850D01*
X144034945Y-86909647D01*
X143931401Y-86899449D01*
X143000385Y-86899449D01*
X142540282Y-86439346D01*
X142527558Y-86423842D01*
X142465676Y-86373056D01*
X142395075Y-86335319D01*
X142318468Y-86312081D01*
X142258760Y-86306200D01*
X142258753Y-86306200D01*
X142238800Y-86304235D01*
X142218847Y-86306200D01*
X142021058Y-86306200D01*
X142013953Y-86234056D01*
X141983750Y-86134490D01*
X141934703Y-86042731D01*
X141868698Y-85962302D01*
X141788269Y-85896297D01*
X141696510Y-85847250D01*
X141596944Y-85817047D01*
X141493400Y-85806849D01*
X140243400Y-85806849D01*
X140139856Y-85817047D01*
X140040290Y-85847250D01*
X139948531Y-85896297D01*
X139868102Y-85962302D01*
X139802097Y-86042731D01*
X139753050Y-86134490D01*
X139722847Y-86234056D01*
X139712649Y-86337600D01*
X136079400Y-86337600D01*
X136079400Y-84636800D01*
X140303049Y-84636800D01*
X140303049Y-85136800D01*
X140312767Y-85235467D01*
X140341547Y-85330343D01*
X140388283Y-85417780D01*
X140451180Y-85494420D01*
X140527820Y-85557317D01*
X140615257Y-85604053D01*
X140710133Y-85632833D01*
X140808800Y-85642551D01*
X141258800Y-85642551D01*
X141357467Y-85632833D01*
X141452343Y-85604053D01*
X141539780Y-85557317D01*
X141616420Y-85494420D01*
X141679317Y-85417780D01*
X141726053Y-85330343D01*
X141748877Y-85255100D01*
X141797238Y-85255100D01*
X141797286Y-85255590D01*
X141824644Y-85345775D01*
X141869070Y-85428891D01*
X141928858Y-85501742D01*
X142001709Y-85561530D01*
X142084825Y-85605956D01*
X142175010Y-85633314D01*
X142268800Y-85642551D01*
X142668800Y-85642551D01*
X142762590Y-85633314D01*
X142852775Y-85605956D01*
X142935891Y-85561530D01*
X143008742Y-85501742D01*
X143068530Y-85428891D01*
X143112956Y-85345775D01*
X143140314Y-85255590D01*
X143149551Y-85161800D01*
X143149551Y-84611800D01*
X143140314Y-84518010D01*
X143112956Y-84427825D01*
X143068530Y-84344709D01*
X143008742Y-84271858D01*
X142935891Y-84212070D01*
X142852775Y-84167644D01*
X142762590Y-84140286D01*
X142668800Y-84131049D01*
X142268800Y-84131049D01*
X142175010Y-84140286D01*
X142084825Y-84167644D01*
X142001709Y-84212070D01*
X141928858Y-84271858D01*
X141869070Y-84344709D01*
X141824644Y-84427825D01*
X141797286Y-84518010D01*
X141797238Y-84518500D01*
X141748877Y-84518500D01*
X141726053Y-84443257D01*
X141679317Y-84355820D01*
X141616420Y-84279180D01*
X141539780Y-84216283D01*
X141452343Y-84169547D01*
X141357467Y-84140767D01*
X141258800Y-84131049D01*
X140808800Y-84131049D01*
X140710133Y-84140767D01*
X140615257Y-84169547D01*
X140527820Y-84216283D01*
X140451180Y-84279180D01*
X140388283Y-84355820D01*
X140341547Y-84443257D01*
X140312767Y-84538133D01*
X140303049Y-84636800D01*
X136079400Y-84636800D01*
X136079400Y-83062000D01*
X140303049Y-83062000D01*
X140303049Y-83562000D01*
X140312767Y-83660667D01*
X140341547Y-83755543D01*
X140388283Y-83842980D01*
X140451180Y-83919620D01*
X140527820Y-83982517D01*
X140615257Y-84029253D01*
X140710133Y-84058033D01*
X140808800Y-84067751D01*
X141258800Y-84067751D01*
X141357467Y-84058033D01*
X141452343Y-84029253D01*
X141539780Y-83982517D01*
X141616420Y-83919620D01*
X141679317Y-83842980D01*
X141726053Y-83755543D01*
X141748877Y-83680300D01*
X141797238Y-83680300D01*
X141797286Y-83680790D01*
X141824644Y-83770975D01*
X141869070Y-83854091D01*
X141928858Y-83926942D01*
X142001709Y-83986730D01*
X142084825Y-84031156D01*
X142175010Y-84058514D01*
X142268800Y-84067751D01*
X142668800Y-84067751D01*
X142762590Y-84058514D01*
X142852775Y-84031156D01*
X142935891Y-83986730D01*
X143008742Y-83926942D01*
X143068530Y-83854091D01*
X143112956Y-83770975D01*
X143140314Y-83680790D01*
X143149551Y-83587000D01*
X143149551Y-83037000D01*
X143438049Y-83037000D01*
X143438049Y-83587000D01*
X143447286Y-83680790D01*
X143474644Y-83770975D01*
X143519070Y-83854091D01*
X143578858Y-83926942D01*
X143651709Y-83986730D01*
X143734825Y-84031156D01*
X143825010Y-84058514D01*
X143918800Y-84067751D01*
X144299814Y-84067751D01*
X144367953Y-84135890D01*
X144318800Y-84131049D01*
X143918800Y-84131049D01*
X143825010Y-84140286D01*
X143734825Y-84167644D01*
X143651709Y-84212070D01*
X143578858Y-84271858D01*
X143519070Y-84344709D01*
X143474644Y-84427825D01*
X143447286Y-84518010D01*
X143438049Y-84611800D01*
X143438049Y-85161800D01*
X143447286Y-85255590D01*
X143474644Y-85345775D01*
X143519070Y-85428891D01*
X143578858Y-85501742D01*
X143651709Y-85561530D01*
X143734825Y-85605956D01*
X143825010Y-85633314D01*
X143918800Y-85642551D01*
X144318800Y-85642551D01*
X144412590Y-85633314D01*
X144502775Y-85605956D01*
X144585891Y-85561530D01*
X144658742Y-85501742D01*
X144718530Y-85428891D01*
X144762956Y-85345775D01*
X144778905Y-85293200D01*
X144965461Y-85293200D01*
X144998483Y-85354980D01*
X145061380Y-85431620D01*
X145138020Y-85494517D01*
X145225457Y-85541253D01*
X145320333Y-85570033D01*
X145419000Y-85579751D01*
X145448602Y-85579751D01*
X145448602Y-85661226D01*
X145376303Y-85668347D01*
X145282600Y-85696771D01*
X145196243Y-85742930D01*
X145120550Y-85805049D01*
X145058431Y-85880742D01*
X145012272Y-85967099D01*
X144983848Y-86060802D01*
X144974250Y-86158250D01*
X144974250Y-86595750D01*
X144983848Y-86693198D01*
X145012272Y-86786901D01*
X145058431Y-86873258D01*
X145120550Y-86948951D01*
X145196243Y-87011070D01*
X145282600Y-87057229D01*
X145376303Y-87085653D01*
X145473751Y-87095251D01*
X146236251Y-87095251D01*
X146333699Y-87085653D01*
X146420877Y-87059208D01*
X146421642Y-87060140D01*
X146437146Y-87072864D01*
X146755641Y-87391360D01*
X146768361Y-87406859D01*
X146783859Y-87419578D01*
X146783864Y-87419583D01*
X146794229Y-87428089D01*
X146811649Y-87442385D01*
X146847117Y-87477853D01*
X146859841Y-87493357D01*
X146921723Y-87544143D01*
X146992324Y-87581880D01*
X147030628Y-87593499D01*
X147068930Y-87605118D01*
X147076203Y-87605834D01*
X147128639Y-87610999D01*
X147128646Y-87610999D01*
X147148599Y-87612964D01*
X147168552Y-87610999D01*
X147873495Y-87610999D01*
X148025530Y-87763034D01*
X147991479Y-87790979D01*
X147956564Y-87833523D01*
X147930620Y-87882061D01*
X147914644Y-87934728D01*
X147909249Y-87989500D01*
X147909249Y-88889500D01*
X147914644Y-88944272D01*
X147930620Y-88996939D01*
X147956564Y-89045477D01*
X147991479Y-89088021D01*
X148034023Y-89122936D01*
X148082561Y-89148880D01*
X148135228Y-89164856D01*
X148190000Y-89170251D01*
X148634013Y-89170251D01*
X148497864Y-89306400D01*
X148318152Y-89306400D01*
X148298199Y-89304435D01*
X148278246Y-89306400D01*
X148278240Y-89306400D01*
X148226535Y-89311493D01*
X148218531Y-89312281D01*
X148195293Y-89319330D01*
X148141925Y-89335519D01*
X148071324Y-89373256D01*
X148009442Y-89424042D01*
X147996718Y-89439546D01*
X147133015Y-90303249D01*
X146727000Y-90303249D01*
X146628333Y-90312967D01*
X146533457Y-90341747D01*
X146446020Y-90388483D01*
X146369380Y-90451380D01*
X146306483Y-90528020D01*
X146259747Y-90615457D01*
X146230967Y-90710333D01*
X146221249Y-90809000D01*
X146221249Y-91309000D01*
X146230967Y-91407667D01*
X146259747Y-91502543D01*
X146306483Y-91589980D01*
X146369380Y-91666620D01*
X146446020Y-91729517D01*
X146533457Y-91776253D01*
X146545600Y-91779937D01*
X146545601Y-92600038D01*
X146543635Y-92620000D01*
X146551481Y-92699668D01*
X146574719Y-92776274D01*
X146574949Y-92776704D01*
X146612457Y-92846876D01*
X146627930Y-92865730D01*
X146650518Y-92893254D01*
X146650524Y-92893260D01*
X146663243Y-92908758D01*
X146678741Y-92921477D01*
X148137523Y-94380260D01*
X148150242Y-94395758D01*
X148165740Y-94408477D01*
X148165745Y-94408482D01*
X148182024Y-94421841D01*
X148198083Y-94435020D01*
X148230844Y-94496312D01*
X148284413Y-94561587D01*
X148349688Y-94615156D01*
X148424159Y-94654962D01*
X148504965Y-94679474D01*
X148589000Y-94687751D01*
X150239000Y-94687751D01*
X150323035Y-94679474D01*
X150403841Y-94654962D01*
X150478312Y-94615156D01*
X150543587Y-94561587D01*
X150597156Y-94496312D01*
X150636962Y-94421841D01*
X150661474Y-94341035D01*
X150669751Y-94257000D01*
X150669751Y-93957000D01*
X150661474Y-93872965D01*
X150636962Y-93792159D01*
X150597156Y-93717688D01*
X150543587Y-93652413D01*
X150478312Y-93598844D01*
X150403841Y-93559038D01*
X150323035Y-93534526D01*
X150239000Y-93526249D01*
X148589000Y-93526249D01*
X148504965Y-93534526D01*
X148456089Y-93549352D01*
X147593737Y-92687000D01*
X148158249Y-92687000D01*
X148158249Y-92987000D01*
X148166526Y-93071035D01*
X148191038Y-93151841D01*
X148230844Y-93226312D01*
X148284413Y-93291587D01*
X148349688Y-93345156D01*
X148424159Y-93384962D01*
X148504965Y-93409474D01*
X148589000Y-93417751D01*
X150239000Y-93417751D01*
X150323035Y-93409474D01*
X150403841Y-93384962D01*
X150411835Y-93380689D01*
X151514249Y-94483104D01*
X151514249Y-94655000D01*
X151519644Y-94709772D01*
X151535620Y-94762439D01*
X151545007Y-94780000D01*
X151535620Y-94797561D01*
X151519644Y-94850228D01*
X151514249Y-94905000D01*
X151514249Y-95030555D01*
X150431162Y-96113642D01*
X150403841Y-96099038D01*
X150323035Y-96074526D01*
X150239000Y-96066249D01*
X148589000Y-96066249D01*
X148504965Y-96074526D01*
X148424159Y-96099038D01*
X148349688Y-96138844D01*
X148284413Y-96192413D01*
X148230844Y-96257688D01*
X148191038Y-96332159D01*
X148166526Y-96412965D01*
X148158249Y-96497000D01*
X148158249Y-96797000D01*
X148166526Y-96881035D01*
X148191038Y-96961841D01*
X148230844Y-97036312D01*
X148284413Y-97101587D01*
X148349688Y-97155156D01*
X148424159Y-97194962D01*
X148504965Y-97219474D01*
X148589000Y-97227751D01*
X150239000Y-97227751D01*
X150323035Y-97219474D01*
X150403841Y-97194962D01*
X150478312Y-97155156D01*
X150543587Y-97101587D01*
X150597156Y-97036312D01*
X150636962Y-96961841D01*
X150644050Y-96938474D01*
X150680345Y-96908687D01*
X150691880Y-96894632D01*
X151514249Y-96072263D01*
X151514249Y-96255000D01*
X151519644Y-96309772D01*
X151535620Y-96362439D01*
X151545007Y-96380000D01*
X151535620Y-96397561D01*
X151519644Y-96450228D01*
X151514249Y-96505000D01*
X151514249Y-97055000D01*
X151519644Y-97109772D01*
X151535620Y-97162439D01*
X151561564Y-97210977D01*
X151596479Y-97253521D01*
X151639023Y-97288436D01*
X151687561Y-97314380D01*
X151740228Y-97330356D01*
X151795000Y-97335751D01*
X153395000Y-97335751D01*
X153449772Y-97330356D01*
X153502439Y-97314380D01*
X153520014Y-97304986D01*
X153510620Y-97322561D01*
X153494644Y-97375228D01*
X153489249Y-97430000D01*
X153489249Y-99030000D01*
X153494644Y-99084772D01*
X153510620Y-99137439D01*
X153536564Y-99185977D01*
X153571479Y-99228521D01*
X153614023Y-99263436D01*
X153662561Y-99289380D01*
X153715228Y-99305356D01*
X153770000Y-99310751D01*
X154320000Y-99310751D01*
X154374772Y-99305356D01*
X154427439Y-99289380D01*
X154475977Y-99263436D01*
X154518521Y-99228521D01*
X154553436Y-99185977D01*
X154579380Y-99137439D01*
X154595356Y-99084772D01*
X154600751Y-99030000D01*
X154600751Y-97430000D01*
X154595356Y-97375228D01*
X154590170Y-97358133D01*
X154674592Y-97301724D01*
X154769224Y-97207092D01*
X154843576Y-97095816D01*
X154894791Y-96972174D01*
X154920900Y-96840915D01*
X154920900Y-96707085D01*
X154910796Y-96656285D01*
X158121400Y-96656285D01*
X158121400Y-96790115D01*
X158147509Y-96921374D01*
X158198724Y-97045016D01*
X158273076Y-97156292D01*
X158361014Y-97244230D01*
X158336564Y-97274023D01*
X158310620Y-97322561D01*
X158294644Y-97375228D01*
X158289249Y-97430000D01*
X158289249Y-99030000D01*
X158294644Y-99084772D01*
X158310620Y-99137439D01*
X158336564Y-99185977D01*
X158371479Y-99228521D01*
X158414023Y-99263436D01*
X158462561Y-99289380D01*
X158515228Y-99305356D01*
X158570000Y-99310751D01*
X159120000Y-99310751D01*
X159174772Y-99305356D01*
X159227439Y-99289380D01*
X159275977Y-99263436D01*
X159318521Y-99228521D01*
X159353436Y-99185977D01*
X159379380Y-99137439D01*
X159395356Y-99084772D01*
X159400751Y-99030000D01*
X159400751Y-97430000D01*
X159395356Y-97375228D01*
X159379380Y-97322561D01*
X159353436Y-97274023D01*
X159318521Y-97231479D01*
X159282719Y-97202097D01*
X159328524Y-97156292D01*
X159402876Y-97045016D01*
X159454091Y-96921374D01*
X159480200Y-96790115D01*
X159480200Y-96656285D01*
X159454091Y-96525026D01*
X159402876Y-96401384D01*
X159328524Y-96290108D01*
X159233892Y-96195476D01*
X159122616Y-96121124D01*
X158998974Y-96069909D01*
X158867715Y-96043800D01*
X158733885Y-96043800D01*
X158602626Y-96069909D01*
X158478984Y-96121124D01*
X158367708Y-96195476D01*
X158273076Y-96290108D01*
X158198724Y-96401384D01*
X158147509Y-96525026D01*
X158121400Y-96656285D01*
X154910796Y-96656285D01*
X154894791Y-96575826D01*
X154843576Y-96452184D01*
X154769224Y-96340908D01*
X154674592Y-96246276D01*
X154644948Y-96226468D01*
X154680324Y-96191092D01*
X154754676Y-96079816D01*
X154805891Y-95956174D01*
X154832000Y-95824915D01*
X154832000Y-95691085D01*
X154805891Y-95559826D01*
X154754676Y-95436184D01*
X154680324Y-95324908D01*
X154585692Y-95230276D01*
X154474416Y-95155924D01*
X154350774Y-95104709D01*
X154219515Y-95078600D01*
X154085685Y-95078600D01*
X153954426Y-95104709D01*
X153830784Y-95155924D01*
X153719508Y-95230276D01*
X153675751Y-95274033D01*
X153675751Y-94905000D01*
X153670356Y-94850228D01*
X153654380Y-94797561D01*
X153644993Y-94780000D01*
X153654380Y-94762439D01*
X153670356Y-94709772D01*
X153675751Y-94655000D01*
X153675751Y-94268685D01*
X158934200Y-94268685D01*
X158934200Y-94402515D01*
X158960309Y-94533774D01*
X159011524Y-94657416D01*
X159085876Y-94768692D01*
X159180508Y-94863324D01*
X159291784Y-94937676D01*
X159415426Y-94988891D01*
X159546685Y-95015000D01*
X159680515Y-95015000D01*
X159811774Y-94988891D01*
X159935416Y-94937676D01*
X160046692Y-94863324D01*
X160078456Y-94831560D01*
X160096479Y-94853521D01*
X160139023Y-94888436D01*
X160187561Y-94914380D01*
X160240228Y-94930356D01*
X160295000Y-94935751D01*
X161895000Y-94935751D01*
X161949772Y-94930356D01*
X162002439Y-94914380D01*
X162050977Y-94888436D01*
X162093521Y-94853521D01*
X162128436Y-94810977D01*
X162154380Y-94762439D01*
X162170356Y-94709772D01*
X162175751Y-94655000D01*
X162175751Y-94105000D01*
X162170356Y-94050228D01*
X162154380Y-93997561D01*
X162148414Y-93986400D01*
X162185249Y-93986400D01*
X162185249Y-94091000D01*
X162194967Y-94189667D01*
X162223747Y-94284543D01*
X162270483Y-94371980D01*
X162333380Y-94448620D01*
X162410020Y-94511517D01*
X162497457Y-94558253D01*
X162592333Y-94587033D01*
X162691000Y-94596751D01*
X163093401Y-94596751D01*
X163093401Y-94755241D01*
X163066708Y-94773076D01*
X162972076Y-94867708D01*
X162897724Y-94978984D01*
X162846509Y-95102626D01*
X162820400Y-95233885D01*
X162820400Y-95367715D01*
X162826663Y-95399201D01*
X162667741Y-95558123D01*
X162652243Y-95570842D01*
X162639524Y-95586340D01*
X162639518Y-95586346D01*
X162619305Y-95610977D01*
X162601457Y-95632724D01*
X162597384Y-95640344D01*
X162563719Y-95703326D01*
X162540481Y-95779932D01*
X162532635Y-95859600D01*
X162534601Y-95879562D01*
X162534601Y-95930480D01*
X162497457Y-95941747D01*
X162410020Y-95988483D01*
X162333380Y-96051380D01*
X162270483Y-96128020D01*
X162223747Y-96215457D01*
X162220064Y-96227600D01*
X161929021Y-96227600D01*
X161895000Y-96224249D01*
X160295000Y-96224249D01*
X160240228Y-96229644D01*
X160187561Y-96245620D01*
X160139023Y-96271564D01*
X160096479Y-96306479D01*
X160061564Y-96349023D01*
X160035620Y-96397561D01*
X160019644Y-96450228D01*
X160014249Y-96505000D01*
X160014249Y-97055000D01*
X160019644Y-97109772D01*
X160035620Y-97162439D01*
X160061564Y-97210977D01*
X160096479Y-97253521D01*
X160139023Y-97288436D01*
X160187561Y-97314380D01*
X160240228Y-97330356D01*
X160295000Y-97335751D01*
X161895000Y-97335751D01*
X161949772Y-97330356D01*
X162002439Y-97314380D01*
X162050977Y-97288436D01*
X162093521Y-97253521D01*
X162128436Y-97210977D01*
X162154380Y-97162439D01*
X162170356Y-97109772D01*
X162175751Y-97055000D01*
X162175751Y-97040400D01*
X162220064Y-97040400D01*
X162223747Y-97052543D01*
X162270483Y-97139980D01*
X162333380Y-97216620D01*
X162410020Y-97279517D01*
X162497457Y-97326253D01*
X162592333Y-97355033D01*
X162691000Y-97364751D01*
X163191000Y-97364751D01*
X163289667Y-97355033D01*
X163384543Y-97326253D01*
X163471980Y-97279517D01*
X163548620Y-97216620D01*
X163611517Y-97139980D01*
X163658253Y-97052543D01*
X163687033Y-96957667D01*
X163696751Y-96859000D01*
X163696751Y-96409000D01*
X163687033Y-96310333D01*
X163658253Y-96215457D01*
X163611517Y-96128020D01*
X163548620Y-96051380D01*
X163471980Y-95988483D01*
X163456484Y-95980200D01*
X163566715Y-95980200D01*
X163697974Y-95954091D01*
X163821616Y-95902876D01*
X163932892Y-95828524D01*
X164027524Y-95733892D01*
X164048161Y-95703007D01*
X164128393Y-95783239D01*
X164239669Y-95857591D01*
X164363311Y-95908806D01*
X164494570Y-95934915D01*
X164628400Y-95934915D01*
X164759659Y-95908806D01*
X164883301Y-95857591D01*
X164994577Y-95783239D01*
X165089209Y-95688607D01*
X165163561Y-95577331D01*
X165214776Y-95453689D01*
X165240885Y-95322430D01*
X165240885Y-95188600D01*
X165225683Y-95112172D01*
X165428947Y-94908907D01*
X165442997Y-94897377D01*
X165454527Y-94883328D01*
X165454531Y-94883324D01*
X165472655Y-94861240D01*
X165489022Y-94841297D01*
X165523221Y-94777314D01*
X165539829Y-94722564D01*
X165544281Y-94707890D01*
X165546964Y-94680644D01*
X165549610Y-94653783D01*
X165549610Y-94653776D01*
X165551391Y-94635690D01*
X165549610Y-94617605D01*
X165549610Y-93000394D01*
X165551391Y-92982309D01*
X165549610Y-92964224D01*
X165549610Y-92964217D01*
X165544972Y-92917130D01*
X165544281Y-92910110D01*
X165530818Y-92865730D01*
X165523221Y-92840686D01*
X165489022Y-92776703D01*
X165442996Y-92720623D01*
X165428947Y-92709093D01*
X165217622Y-92497768D01*
X165220751Y-92466000D01*
X165220751Y-92066000D01*
X165211514Y-91972210D01*
X165184156Y-91882025D01*
X165139730Y-91798909D01*
X165079942Y-91726058D01*
X165007091Y-91666270D01*
X164923975Y-91621844D01*
X164833790Y-91594486D01*
X164740000Y-91585249D01*
X164369104Y-91585249D01*
X164332605Y-91548751D01*
X164740000Y-91548751D01*
X164833790Y-91539514D01*
X164923975Y-91512156D01*
X165007091Y-91467730D01*
X165079942Y-91407942D01*
X165139730Y-91335091D01*
X165184156Y-91251975D01*
X165211514Y-91161790D01*
X165220751Y-91068000D01*
X165220751Y-90668000D01*
X165211514Y-90574210D01*
X165184156Y-90484025D01*
X165139730Y-90400909D01*
X165079942Y-90328058D01*
X165007091Y-90268270D01*
X164923975Y-90223844D01*
X164833790Y-90196486D01*
X164740000Y-90187249D01*
X164305104Y-90187249D01*
X163950139Y-89832285D01*
X164006025Y-89862156D01*
X164096210Y-89889514D01*
X164190000Y-89898751D01*
X164740000Y-89898751D01*
X164833790Y-89889514D01*
X164923975Y-89862156D01*
X165007091Y-89817730D01*
X165079942Y-89757942D01*
X165139730Y-89685091D01*
X165184156Y-89601975D01*
X165211514Y-89511790D01*
X165220751Y-89418000D01*
X165220751Y-89018000D01*
X165211514Y-88924210D01*
X165184156Y-88834025D01*
X165139730Y-88750909D01*
X165079942Y-88678058D01*
X165007091Y-88618270D01*
X164923975Y-88573844D01*
X164833790Y-88546486D01*
X164740000Y-88537249D01*
X164190000Y-88537249D01*
X164096210Y-88546486D01*
X164020352Y-88569498D01*
X163401605Y-87950751D01*
X164505000Y-87950751D01*
X164559772Y-87945356D01*
X164612439Y-87929380D01*
X164660977Y-87903436D01*
X164703521Y-87868521D01*
X164738436Y-87825977D01*
X164764380Y-87777439D01*
X164780356Y-87724772D01*
X164785751Y-87670000D01*
X164785751Y-86320000D01*
X164780356Y-86265228D01*
X164764380Y-86212561D01*
X164738436Y-86164023D01*
X164703521Y-86121479D01*
X164660977Y-86086564D01*
X164612439Y-86060620D01*
X164559772Y-86044644D01*
X164505000Y-86039249D01*
X163281999Y-86039249D01*
X163281999Y-84096784D01*
X163283780Y-84078699D01*
X163281999Y-84060613D01*
X163281999Y-84060606D01*
X163276670Y-84006500D01*
X163276670Y-84006499D01*
X163255610Y-83937074D01*
X163242594Y-83912723D01*
X163221411Y-83873092D01*
X163194891Y-83840778D01*
X163186920Y-83831065D01*
X163186916Y-83831061D01*
X163175386Y-83817012D01*
X163161337Y-83805482D01*
X162713021Y-83357166D01*
X162747723Y-83273388D01*
X162784400Y-83089000D01*
X162784400Y-82901000D01*
X162747723Y-82716612D01*
X162675778Y-82542922D01*
X162571331Y-82386605D01*
X162438395Y-82253669D01*
X162282078Y-82149222D01*
X162108388Y-82077277D01*
X161924000Y-82040600D01*
X161736000Y-82040600D01*
X161551612Y-82077277D01*
X161377922Y-82149222D01*
X161221605Y-82253669D01*
X161088669Y-82386605D01*
X160984222Y-82542922D01*
X160912277Y-82716612D01*
X160875600Y-82901000D01*
X160875600Y-83089000D01*
X160912277Y-83273388D01*
X160984222Y-83447078D01*
X161088669Y-83603395D01*
X161221605Y-83736331D01*
X161377922Y-83840778D01*
X161551612Y-83912723D01*
X161736000Y-83949400D01*
X161924000Y-83949400D01*
X162108388Y-83912723D01*
X162192166Y-83878021D01*
X162545400Y-84231255D01*
X162545400Y-84360674D01*
X162438395Y-84253669D01*
X162282078Y-84149222D01*
X162108388Y-84077277D01*
X161924000Y-84040600D01*
X161736000Y-84040600D01*
X161551612Y-84077277D01*
X161377922Y-84149222D01*
X161221605Y-84253669D01*
X161088669Y-84386605D01*
X160984222Y-84542922D01*
X160912277Y-84716612D01*
X160875600Y-84901000D01*
X160875600Y-85089000D01*
X160912277Y-85273388D01*
X160984222Y-85447078D01*
X161088669Y-85603395D01*
X161221605Y-85736331D01*
X161377922Y-85840778D01*
X161551612Y-85912723D01*
X161736000Y-85949400D01*
X161924000Y-85949400D01*
X162108388Y-85912723D01*
X162282078Y-85840778D01*
X162438395Y-85736331D01*
X162545400Y-85629326D01*
X162545399Y-86360673D01*
X162438395Y-86253669D01*
X162282078Y-86149222D01*
X162108388Y-86077277D01*
X161924000Y-86040600D01*
X161736000Y-86040600D01*
X161551612Y-86077277D01*
X161377922Y-86149222D01*
X161221605Y-86253669D01*
X161088669Y-86386605D01*
X160984222Y-86542922D01*
X160912277Y-86716612D01*
X160875600Y-86901000D01*
X160875600Y-87089000D01*
X160912277Y-87273388D01*
X160984222Y-87447078D01*
X161088669Y-87603395D01*
X161221605Y-87736331D01*
X161377922Y-87840778D01*
X161551612Y-87912723D01*
X161736000Y-87949400D01*
X161924000Y-87949400D01*
X162108388Y-87912723D01*
X162282078Y-87840778D01*
X162438395Y-87736331D01*
X162545399Y-87629327D01*
X162545399Y-87965614D01*
X162543618Y-87983699D01*
X162545399Y-88001784D01*
X162545399Y-88001791D01*
X162550037Y-88048878D01*
X162550728Y-88055898D01*
X162550966Y-88056682D01*
X162571788Y-88125322D01*
X162605987Y-88189305D01*
X162624112Y-88211390D01*
X162640478Y-88231332D01*
X162640482Y-88231336D01*
X162652012Y-88245385D01*
X162666063Y-88256917D01*
X162946395Y-88537249D01*
X162691000Y-88537249D01*
X162592333Y-88546967D01*
X162497457Y-88575747D01*
X162410020Y-88622483D01*
X162333380Y-88685380D01*
X162270483Y-88762020D01*
X162223747Y-88849457D01*
X162194967Y-88944333D01*
X162185249Y-89043000D01*
X162185249Y-89493000D01*
X162194967Y-89591667D01*
X162223747Y-89686543D01*
X162270483Y-89773980D01*
X162333380Y-89850620D01*
X162410020Y-89913517D01*
X162497457Y-89960253D01*
X162592333Y-89989033D01*
X162691000Y-89998751D01*
X162932164Y-89998751D01*
X162932164Y-90024915D01*
X162930383Y-90043000D01*
X162932164Y-90061085D01*
X162932164Y-90061092D01*
X162937493Y-90115198D01*
X162958553Y-90184623D01*
X162992752Y-90248606D01*
X163013445Y-90273820D01*
X163027243Y-90290633D01*
X163027247Y-90290637D01*
X163038777Y-90304686D01*
X163052827Y-90316217D01*
X163334701Y-90598092D01*
X163334700Y-91421914D01*
X163332919Y-91440000D01*
X163334700Y-91458085D01*
X163334700Y-91458092D01*
X163340029Y-91512198D01*
X163361089Y-91581623D01*
X163395288Y-91645606D01*
X163412247Y-91666270D01*
X163429779Y-91687633D01*
X163429783Y-91687637D01*
X163441313Y-91701686D01*
X163455363Y-91713218D01*
X163718116Y-91975970D01*
X163709249Y-92066000D01*
X163709249Y-92466000D01*
X163718486Y-92559790D01*
X163745844Y-92649975D01*
X163790270Y-92733091D01*
X163850058Y-92805942D01*
X163922909Y-92865730D01*
X164006025Y-92910156D01*
X164096210Y-92937514D01*
X164190000Y-92946751D01*
X164624897Y-92946751D01*
X164813010Y-93134864D01*
X164813010Y-93242439D01*
X164740000Y-93235249D01*
X164190000Y-93235249D01*
X164096210Y-93244486D01*
X164006025Y-93271844D01*
X163922909Y-93316270D01*
X163850058Y-93376058D01*
X163790270Y-93448909D01*
X163745844Y-93532025D01*
X163718486Y-93622210D01*
X163709249Y-93716000D01*
X163709249Y-94059512D01*
X163696751Y-94047014D01*
X163696751Y-93641000D01*
X163687033Y-93542333D01*
X163658253Y-93447457D01*
X163611517Y-93360020D01*
X163548620Y-93283380D01*
X163471980Y-93220483D01*
X163384543Y-93173747D01*
X163289667Y-93144967D01*
X163191000Y-93135249D01*
X162691000Y-93135249D01*
X162592333Y-93144967D01*
X162497942Y-93173600D01*
X162141573Y-93173600D01*
X162128436Y-93149023D01*
X162093521Y-93106479D01*
X162050977Y-93071564D01*
X162002439Y-93045620D01*
X161949772Y-93029644D01*
X161895000Y-93024249D01*
X160295000Y-93024249D01*
X160240228Y-93029644D01*
X160187561Y-93045620D01*
X160139023Y-93071564D01*
X160096479Y-93106479D01*
X160061564Y-93149023D01*
X160035620Y-93197561D01*
X160019644Y-93250228D01*
X160014249Y-93305000D01*
X160014249Y-93786198D01*
X159935416Y-93733524D01*
X159811774Y-93682309D01*
X159680515Y-93656200D01*
X159546685Y-93656200D01*
X159415426Y-93682309D01*
X159291784Y-93733524D01*
X159180508Y-93807876D01*
X159085876Y-93902508D01*
X159011524Y-94013784D01*
X158960309Y-94137426D01*
X158934200Y-94268685D01*
X153675751Y-94268685D01*
X153675751Y-94105000D01*
X153670356Y-94050228D01*
X153654380Y-93997561D01*
X153628436Y-93949023D01*
X153593521Y-93906479D01*
X153550977Y-93871564D01*
X153502439Y-93845620D01*
X153449772Y-93829644D01*
X153395000Y-93824249D01*
X151897104Y-93824249D01*
X150662222Y-92589368D01*
X150654493Y-92579950D01*
X150636962Y-92522159D01*
X150597156Y-92447688D01*
X150543587Y-92382413D01*
X150478312Y-92328844D01*
X150403841Y-92289038D01*
X150323035Y-92264526D01*
X150239000Y-92256249D01*
X148589000Y-92256249D01*
X148504965Y-92264526D01*
X148424159Y-92289038D01*
X148349688Y-92328844D01*
X148284413Y-92382413D01*
X148230844Y-92447688D01*
X148191038Y-92522159D01*
X148166526Y-92602965D01*
X148158249Y-92687000D01*
X147593737Y-92687000D01*
X147358400Y-92451664D01*
X147358400Y-91779936D01*
X147370543Y-91776253D01*
X147457980Y-91729517D01*
X147534620Y-91666620D01*
X147597517Y-91589980D01*
X147644253Y-91502543D01*
X147673033Y-91407667D01*
X147682751Y-91309000D01*
X147682751Y-90936000D01*
X150031249Y-90936000D01*
X150031249Y-91436000D01*
X150040967Y-91534667D01*
X150069747Y-91629543D01*
X150116483Y-91716980D01*
X150179380Y-91793620D01*
X150256020Y-91856517D01*
X150343457Y-91903253D01*
X150438333Y-91932033D01*
X150537000Y-91941751D01*
X150987000Y-91941751D01*
X151085667Y-91932033D01*
X151180543Y-91903253D01*
X151267980Y-91856517D01*
X151344620Y-91793620D01*
X151407517Y-91716980D01*
X151454253Y-91629543D01*
X151465520Y-91592400D01*
X151551634Y-91592400D01*
X151561564Y-91610977D01*
X151596479Y-91653521D01*
X151639023Y-91688436D01*
X151687561Y-91714380D01*
X151740228Y-91730356D01*
X151795000Y-91735751D01*
X153395000Y-91735751D01*
X153449772Y-91730356D01*
X153502439Y-91714380D01*
X153550977Y-91688436D01*
X153593521Y-91653521D01*
X153628436Y-91610977D01*
X153654380Y-91562439D01*
X153670356Y-91509772D01*
X153675751Y-91455000D01*
X153675751Y-90905000D01*
X153670356Y-90850228D01*
X153654380Y-90797561D01*
X153628436Y-90749023D01*
X153593521Y-90706479D01*
X153550977Y-90671564D01*
X153502439Y-90645620D01*
X153449772Y-90629644D01*
X153395000Y-90624249D01*
X151795000Y-90624249D01*
X151740228Y-90629644D01*
X151687561Y-90645620D01*
X151639023Y-90671564D01*
X151596479Y-90706479D01*
X151561564Y-90749023D01*
X151545220Y-90779600D01*
X151465520Y-90779600D01*
X151454253Y-90742457D01*
X151407517Y-90655020D01*
X151344620Y-90578380D01*
X151332062Y-90568074D01*
X152860399Y-89039737D01*
X152891885Y-89046000D01*
X153025715Y-89046000D01*
X153156974Y-89019891D01*
X153280616Y-88968676D01*
X153391892Y-88894324D01*
X153486524Y-88799692D01*
X153560876Y-88688416D01*
X153612091Y-88564774D01*
X153638200Y-88433515D01*
X153638200Y-88299685D01*
X153631937Y-88268199D01*
X153761154Y-88138982D01*
X153776658Y-88126258D01*
X153827444Y-88064376D01*
X153865181Y-87993775D01*
X153880065Y-87944709D01*
X153897801Y-87939329D01*
X153984158Y-87893170D01*
X154059851Y-87831051D01*
X154121970Y-87755358D01*
X154168129Y-87669001D01*
X154196553Y-87575298D01*
X154206151Y-87477850D01*
X154206151Y-86715350D01*
X154196553Y-86617902D01*
X154168129Y-86524199D01*
X154121970Y-86437842D01*
X154059851Y-86362149D01*
X153984158Y-86300030D01*
X153941820Y-86277400D01*
X154054415Y-86277400D01*
X154185674Y-86251291D01*
X154309316Y-86200076D01*
X154420592Y-86125724D01*
X154515224Y-86031092D01*
X154532100Y-86005836D01*
X154565249Y-86038985D01*
X154565249Y-86445000D01*
X154574967Y-86543667D01*
X154603747Y-86638543D01*
X154650483Y-86725980D01*
X154713380Y-86802620D01*
X154790020Y-86865517D01*
X154877457Y-86912253D01*
X154972333Y-86941033D01*
X155071000Y-86950751D01*
X155571000Y-86950751D01*
X155669667Y-86941033D01*
X155764543Y-86912253D01*
X155851980Y-86865517D01*
X155928620Y-86802620D01*
X155991517Y-86725980D01*
X156038253Y-86638543D01*
X156067033Y-86543667D01*
X156076751Y-86445000D01*
X156076751Y-85995000D01*
X156067873Y-85904863D01*
X156575186Y-85397551D01*
X156643700Y-85397551D01*
X156715542Y-85390475D01*
X156784624Y-85369520D01*
X156806200Y-85357987D01*
X156827776Y-85369520D01*
X156896858Y-85390475D01*
X156916307Y-85392391D01*
X156917571Y-85405225D01*
X156917570Y-86415258D01*
X156915789Y-86433343D01*
X156917570Y-86451428D01*
X156917570Y-86451435D01*
X156918230Y-86458132D01*
X156922899Y-86505542D01*
X156924088Y-86509460D01*
X156943959Y-86574966D01*
X156974942Y-86632932D01*
X156978159Y-86638950D01*
X157000891Y-86666648D01*
X157024183Y-86695029D01*
X157038234Y-86706561D01*
X157228662Y-86896989D01*
X157228661Y-87699610D01*
X156279023Y-88649249D01*
X156170000Y-88649249D01*
X156115228Y-88654644D01*
X156062561Y-88670620D01*
X156014023Y-88696564D01*
X155971479Y-88731479D01*
X155936564Y-88774023D01*
X155910620Y-88822561D01*
X155894644Y-88875228D01*
X155889249Y-88930000D01*
X155889249Y-90530000D01*
X155894644Y-90584772D01*
X155910620Y-90637439D01*
X155936564Y-90685977D01*
X155971479Y-90728521D01*
X156014023Y-90763436D01*
X156062561Y-90789380D01*
X156115228Y-90805356D01*
X156170000Y-90810751D01*
X156720000Y-90810751D01*
X156774772Y-90805356D01*
X156827439Y-90789380D01*
X156845000Y-90779993D01*
X156862561Y-90789380D01*
X156915228Y-90805356D01*
X156970000Y-90810751D01*
X157520000Y-90810751D01*
X157574772Y-90805356D01*
X157627439Y-90789380D01*
X157645000Y-90779993D01*
X157662561Y-90789380D01*
X157715228Y-90805356D01*
X157770000Y-90810751D01*
X158320000Y-90810751D01*
X158374772Y-90805356D01*
X158427439Y-90789380D01*
X158445000Y-90779993D01*
X158462561Y-90789380D01*
X158515228Y-90805356D01*
X158570000Y-90810751D01*
X159120000Y-90810751D01*
X159174772Y-90805356D01*
X159227439Y-90789380D01*
X159275977Y-90763436D01*
X159318521Y-90728521D01*
X159353436Y-90685977D01*
X159379380Y-90637439D01*
X159395356Y-90584772D01*
X159400751Y-90530000D01*
X159400751Y-88993515D01*
X159473067Y-89007900D01*
X159606897Y-89007900D01*
X159738156Y-88981791D01*
X159861798Y-88930576D01*
X159973074Y-88856224D01*
X160067706Y-88761592D01*
X160142058Y-88650316D01*
X160193273Y-88526674D01*
X160219382Y-88395415D01*
X160219382Y-88261585D01*
X160193273Y-88130326D01*
X160142058Y-88006684D01*
X160067706Y-87895408D01*
X159973074Y-87800776D01*
X159861798Y-87726424D01*
X159738156Y-87675209D01*
X159606897Y-87649100D01*
X159597192Y-87649100D01*
X159597192Y-84582577D01*
X159598973Y-84564491D01*
X159597192Y-84546406D01*
X159597192Y-84546399D01*
X159591863Y-84492293D01*
X159590933Y-84489225D01*
X159584835Y-84469125D01*
X159570803Y-84422868D01*
X159536604Y-84358885D01*
X159515911Y-84333671D01*
X159502113Y-84316858D01*
X159502109Y-84316854D01*
X159490579Y-84302805D01*
X159476529Y-84291274D01*
X159336951Y-84151696D01*
X159336951Y-84029300D01*
X159329875Y-83957458D01*
X159308920Y-83888376D01*
X159297387Y-83866800D01*
X159308920Y-83845224D01*
X159329875Y-83776142D01*
X159336951Y-83704300D01*
X159336951Y-83529300D01*
X159329875Y-83457458D01*
X159308920Y-83388376D01*
X159274890Y-83324711D01*
X159229093Y-83268907D01*
X159173289Y-83223110D01*
X159109624Y-83189080D01*
X159040542Y-83168125D01*
X158968700Y-83161049D01*
X158593700Y-83161049D01*
X158521858Y-83168125D01*
X158452776Y-83189080D01*
X158389111Y-83223110D01*
X158333307Y-83268907D01*
X158287510Y-83324711D01*
X158253480Y-83388376D01*
X158232525Y-83457458D01*
X158225449Y-83529300D01*
X158225449Y-83586274D01*
X158160124Y-83488508D01*
X158065492Y-83393876D01*
X157954216Y-83319524D01*
X157830574Y-83268309D01*
X157699315Y-83242200D01*
X157565485Y-83242200D01*
X157434226Y-83268309D01*
X157310584Y-83319524D01*
X157199308Y-83393876D01*
X157104676Y-83488508D01*
X157030324Y-83599784D01*
X156979109Y-83723426D01*
X156953000Y-83854685D01*
X156953000Y-83988515D01*
X156968202Y-84064943D01*
X156886951Y-84146195D01*
X156886951Y-84029300D01*
X156879875Y-83957458D01*
X156858920Y-83888376D01*
X156824890Y-83824711D01*
X156779093Y-83768907D01*
X156723289Y-83723110D01*
X156659624Y-83689080D01*
X156590542Y-83668125D01*
X156518700Y-83661049D01*
X156143700Y-83661049D01*
X156071858Y-83668125D01*
X156002776Y-83689080D01*
X155939111Y-83723110D01*
X155883307Y-83768907D01*
X155837510Y-83824711D01*
X155803480Y-83888376D01*
X155782525Y-83957458D01*
X155775449Y-84029300D01*
X155775449Y-84097815D01*
X155651317Y-84221947D01*
X155645253Y-84201957D01*
X155598517Y-84114520D01*
X155535620Y-84037880D01*
X155458980Y-83974983D01*
X155371543Y-83928247D01*
X155276667Y-83899467D01*
X155178000Y-83889749D01*
X154728000Y-83889749D01*
X154629333Y-83899467D01*
X154534457Y-83928247D01*
X154447020Y-83974983D01*
X154370380Y-84037880D01*
X154307483Y-84114520D01*
X154260747Y-84201957D01*
X154231967Y-84296833D01*
X154222249Y-84395500D01*
X154222249Y-84852015D01*
X154138866Y-84935398D01*
X154054415Y-84918600D01*
X153920585Y-84918600D01*
X153789326Y-84944709D01*
X153665684Y-84995924D01*
X153554408Y-85070276D01*
X153459776Y-85164908D01*
X153385424Y-85276184D01*
X153334209Y-85399826D01*
X153308100Y-85531085D01*
X153308100Y-85664915D01*
X153334209Y-85796174D01*
X153385424Y-85919816D01*
X153459776Y-86031092D01*
X153554408Y-86125724D01*
X153665684Y-86200076D01*
X153703763Y-86215849D01*
X153269150Y-86215849D01*
X153171702Y-86225447D01*
X153077999Y-86253871D01*
X152991642Y-86300030D01*
X152915949Y-86362149D01*
X152853830Y-86437842D01*
X152807671Y-86524199D01*
X152779247Y-86617902D01*
X152769649Y-86715350D01*
X152769649Y-87477850D01*
X152779247Y-87575298D01*
X152807671Y-87669001D01*
X152824557Y-87700592D01*
X152760626Y-87713309D01*
X152636984Y-87764524D01*
X152525708Y-87838876D01*
X152431076Y-87933508D01*
X152356724Y-88044784D01*
X152305509Y-88168426D01*
X152279400Y-88299685D01*
X152279400Y-88433515D01*
X152285663Y-88465001D01*
X150488741Y-90261923D01*
X150473243Y-90274642D01*
X150460524Y-90290140D01*
X150460518Y-90290146D01*
X150449765Y-90303249D01*
X150422457Y-90336524D01*
X150403318Y-90372331D01*
X150384719Y-90407126D01*
X150368314Y-90461207D01*
X150343457Y-90468747D01*
X150256020Y-90515483D01*
X150179380Y-90578380D01*
X150116483Y-90655020D01*
X150069747Y-90742457D01*
X150040967Y-90837333D01*
X150031249Y-90936000D01*
X147682751Y-90936000D01*
X147682751Y-90902985D01*
X148466536Y-90119200D01*
X148646247Y-90119200D01*
X148666200Y-90121165D01*
X148686153Y-90119200D01*
X148686160Y-90119200D01*
X148745868Y-90113319D01*
X148822475Y-90090081D01*
X148893076Y-90052344D01*
X148954958Y-90001558D01*
X148967682Y-89986054D01*
X149710799Y-89242937D01*
X149742285Y-89249200D01*
X149876115Y-89249200D01*
X150007374Y-89223091D01*
X150131016Y-89171876D01*
X150242292Y-89097524D01*
X150336924Y-89002892D01*
X150411276Y-88891616D01*
X150462491Y-88767974D01*
X150488600Y-88636715D01*
X150488600Y-88502885D01*
X150482337Y-88471399D01*
X151000115Y-87953621D01*
X151046702Y-87967753D01*
X151144150Y-87977351D01*
X151581650Y-87977351D01*
X151679098Y-87967753D01*
X151772801Y-87939329D01*
X151859158Y-87893170D01*
X151934851Y-87831051D01*
X151996970Y-87755358D01*
X152043129Y-87669001D01*
X152071553Y-87575298D01*
X152081151Y-87477850D01*
X152081151Y-86715350D01*
X152071553Y-86617902D01*
X152043129Y-86524199D01*
X151996970Y-86437842D01*
X151934851Y-86362149D01*
X151859158Y-86300030D01*
X151772801Y-86253871D01*
X151679098Y-86225447D01*
X151581650Y-86215849D01*
X151144150Y-86215849D01*
X151046702Y-86225447D01*
X150952999Y-86253871D01*
X150866642Y-86300030D01*
X150790949Y-86362149D01*
X150728830Y-86437842D01*
X150682671Y-86524199D01*
X150654247Y-86617902D01*
X150644649Y-86715350D01*
X150644649Y-87159615D01*
X149907601Y-87896663D01*
X149877368Y-87890649D01*
X148805900Y-86819182D01*
X148805900Y-85871953D01*
X148807865Y-85852000D01*
X148805900Y-85832047D01*
X148805900Y-85832040D01*
X148800019Y-85772332D01*
X148794542Y-85754274D01*
X148776781Y-85695725D01*
X148766495Y-85676481D01*
X148748359Y-85642551D01*
X148979800Y-85642551D01*
X149078467Y-85632833D01*
X149173343Y-85604053D01*
X149260780Y-85557317D01*
X149337420Y-85494420D01*
X149400317Y-85417780D01*
X149447053Y-85330343D01*
X149475833Y-85235467D01*
X149485551Y-85136800D01*
X149485551Y-84636800D01*
X149475833Y-84538133D01*
X149447053Y-84443257D01*
X149400317Y-84355820D01*
X149337420Y-84279180D01*
X149260780Y-84216283D01*
X149173343Y-84169547D01*
X149078467Y-84140767D01*
X148979800Y-84131049D01*
X148529800Y-84131049D01*
X148431133Y-84140767D01*
X148336257Y-84169547D01*
X148248820Y-84216283D01*
X148221017Y-84239100D01*
X147107336Y-84239100D01*
X146623391Y-83755155D01*
X146610668Y-83739652D01*
X146548786Y-83688866D01*
X146478185Y-83651129D01*
X146401578Y-83627891D01*
X146341870Y-83622010D01*
X146341863Y-83622010D01*
X146321910Y-83620045D01*
X146301957Y-83622010D01*
X145003547Y-83622010D01*
X144799551Y-83418014D01*
X144799551Y-83037000D01*
X144790314Y-82943210D01*
X144762956Y-82853025D01*
X144718530Y-82769909D01*
X144658742Y-82697058D01*
X144585891Y-82637270D01*
X144502775Y-82592844D01*
X144412590Y-82565486D01*
X144318800Y-82556249D01*
X143918800Y-82556249D01*
X143825010Y-82565486D01*
X143734825Y-82592844D01*
X143651709Y-82637270D01*
X143578858Y-82697058D01*
X143519070Y-82769909D01*
X143474644Y-82853025D01*
X143447286Y-82943210D01*
X143438049Y-83037000D01*
X143149551Y-83037000D01*
X143140314Y-82943210D01*
X143112956Y-82853025D01*
X143068530Y-82769909D01*
X143008742Y-82697058D01*
X142935891Y-82637270D01*
X142852775Y-82592844D01*
X142762590Y-82565486D01*
X142668800Y-82556249D01*
X142268800Y-82556249D01*
X142175010Y-82565486D01*
X142084825Y-82592844D01*
X142001709Y-82637270D01*
X141928858Y-82697058D01*
X141869070Y-82769909D01*
X141824644Y-82853025D01*
X141797286Y-82943210D01*
X141797238Y-82943700D01*
X141748877Y-82943700D01*
X141726053Y-82868457D01*
X141679317Y-82781020D01*
X141616420Y-82704380D01*
X141539780Y-82641483D01*
X141452343Y-82594747D01*
X141357467Y-82565967D01*
X141258800Y-82556249D01*
X140808800Y-82556249D01*
X140710133Y-82565967D01*
X140615257Y-82594747D01*
X140527820Y-82641483D01*
X140451180Y-82704380D01*
X140388283Y-82781020D01*
X140341547Y-82868457D01*
X140312767Y-82963333D01*
X140303049Y-83062000D01*
X136079400Y-83062000D01*
X136079400Y-81772999D01*
X151901649Y-81772999D01*
X151901649Y-83073001D01*
X151911847Y-83176545D01*
X151942050Y-83276110D01*
X151991097Y-83367870D01*
X152057102Y-83448298D01*
X152137530Y-83514303D01*
X152229290Y-83563350D01*
X152328855Y-83593553D01*
X152432399Y-83603751D01*
X153082401Y-83603751D01*
X153185945Y-83593553D01*
X153285510Y-83563350D01*
X153377270Y-83514303D01*
X153457698Y-83448298D01*
X153523703Y-83367870D01*
X153572750Y-83276110D01*
X153602953Y-83176545D01*
X153613151Y-83073001D01*
X153613151Y-82791300D01*
X155484846Y-82791300D01*
X155775449Y-83081904D01*
X155775449Y-83204300D01*
X155782525Y-83276142D01*
X155803480Y-83345224D01*
X155837510Y-83408889D01*
X155883307Y-83464693D01*
X155939111Y-83510490D01*
X156002776Y-83544520D01*
X156071858Y-83565475D01*
X156143700Y-83572551D01*
X156518700Y-83572551D01*
X156590542Y-83565475D01*
X156659624Y-83544520D01*
X156723289Y-83510490D01*
X156779093Y-83464693D01*
X156824890Y-83408889D01*
X156858920Y-83345224D01*
X156879875Y-83276142D01*
X156886951Y-83204300D01*
X156886951Y-83029300D01*
X156879875Y-82957458D01*
X156858920Y-82888376D01*
X156824890Y-82824711D01*
X156779093Y-82768907D01*
X156723289Y-82723110D01*
X156659624Y-82689080D01*
X156590542Y-82668125D01*
X156518700Y-82661049D01*
X156396304Y-82661049D01*
X155910622Y-82175368D01*
X155899087Y-82161313D01*
X155843007Y-82115288D01*
X155779024Y-82081089D01*
X155709599Y-82060029D01*
X155655493Y-82054700D01*
X155655485Y-82054700D01*
X155637400Y-82052919D01*
X155619315Y-82054700D01*
X153613151Y-82054700D01*
X153613151Y-81772999D01*
X153602953Y-81669455D01*
X153572750Y-81569890D01*
X153523703Y-81478130D01*
X153457698Y-81397702D01*
X153377270Y-81331697D01*
X153285510Y-81282650D01*
X153185945Y-81252447D01*
X153082401Y-81242249D01*
X152432399Y-81242249D01*
X152328855Y-81252447D01*
X152229290Y-81282650D01*
X152137530Y-81331697D01*
X152057102Y-81397702D01*
X151991097Y-81478130D01*
X151942050Y-81569890D01*
X151911847Y-81669455D01*
X151901649Y-81772999D01*
X136079400Y-81772999D01*
X136079400Y-80829400D01*
X166420600Y-80829400D01*
X166420601Y-100170600D01*
G37*
%TD.AperFunction*%
%TD*%
D18*
%TO.N,+3V3*%
X148971000Y-85153500D02*
X148145500Y-85153500D01*
X148120724Y-85155940D01*
X148096899Y-85163167D01*
X148074943Y-85174903D01*
X148055697Y-85190697D01*
X148039903Y-85209943D01*
X148028167Y-85231899D01*
X148020940Y-85255724D01*
X148018520Y-85278272D01*
X147991855Y-86798199D01*
X147312910Y-86798199D01*
X147307575Y-86793821D01*
X147116800Y-86603046D01*
X147116800Y-85910353D01*
X147118765Y-85890400D01*
X147116800Y-85870447D01*
X147116800Y-85870440D01*
X147110919Y-85810732D01*
X147087681Y-85734125D01*
X147049944Y-85663524D01*
X147029117Y-85638146D01*
X147011882Y-85617145D01*
X147011877Y-85617140D01*
X146999158Y-85601642D01*
X146983659Y-85588922D01*
X146424751Y-85030015D01*
X146424751Y-84645500D01*
X148971000Y-84645500D01*
X148971000Y-85153500D01*
%TA.AperFunction,Conductor*%
D19*
G36*
X148971000Y-85153500D02*
G01*
X148145500Y-85153500D01*
X148120724Y-85155940D01*
X148096899Y-85163167D01*
X148074943Y-85174903D01*
X148055697Y-85190697D01*
X148039903Y-85209943D01*
X148028167Y-85231899D01*
X148020940Y-85255724D01*
X148018520Y-85278272D01*
X147991855Y-86798199D01*
X147312910Y-86798199D01*
X147307575Y-86793821D01*
X147116800Y-86603046D01*
X147116800Y-85910353D01*
X147118765Y-85890400D01*
X147116800Y-85870447D01*
X147116800Y-85870440D01*
X147110919Y-85810732D01*
X147087681Y-85734125D01*
X147049944Y-85663524D01*
X147029117Y-85638146D01*
X147011882Y-85617145D01*
X147011877Y-85617140D01*
X146999158Y-85601642D01*
X146983659Y-85588922D01*
X146424751Y-85030015D01*
X146424751Y-84645500D01*
X148971000Y-84645500D01*
X148971000Y-85153500D01*
G37*
%TD.AperFunction*%
%TD*%
M02*
