M48
; DRILL file {KiCad (5.1.9)-1} date 03/08/21 23:04:21
; FORMAT={-:-/ absolute / inch / decimal}
; #@! TF.CreationDate,2021-03-08T23:04:21+01:00
; #@! TF.GenerationSoftware,Kicad,Pcbnew,(5.1.9)-1
; #@! TF.FileFunction,Plated,1,2,PTH
FMAT,2
INCH
T1C0.0157
T2C0.0315
%
G90
G05
T1
X5.374Y-3.5236
X5.374Y-3.6024
X5.374Y-3.6811
X5.374Y-3.7598
X5.374Y-3.8386
X5.374Y-3.9173
X5.3937Y-3.2087
X5.3937Y-3.2874
X5.3937Y-3.3661
X5.3937Y-3.4449
X5.4528Y-3.8386
X5.4528Y-3.9173
X5.4724Y-3.2087
X5.4724Y-3.3858
X5.4724Y-3.4449
X5.4882Y-3.7283
X5.5315Y-3.4646
X5.5315Y-3.5827
X5.5315Y-3.6417
X5.5315Y-3.8386
X5.5315Y-3.9173
X5.5512Y-3.2087
X5.563Y-3.7283
X5.6102Y-3.6417
X5.6102Y-3.8386
X5.6102Y-3.9173
X5.6299Y-3.2087
X5.6299Y-3.4055
X5.6496Y-3.5236
X5.689Y-3.8386
X5.689Y-3.9173
X5.7087Y-3.2087
X5.71Y-3.54
X5.7677Y-3.6811
X5.7677Y-3.7598
X5.7677Y-3.8386
X5.7677Y-3.9173
X5.7874Y-3.2087
X5.7874Y-3.2874
X5.8Y-3.46
X5.8Y-3.51
X5.83Y-3.62
X5.8465Y-3.2087
X5.8465Y-3.2874
X5.8465Y-3.8386
X5.8465Y-3.9173
X5.898Y-3.487
X5.9252Y-3.8386
X5.9252Y-3.9173
X5.9287Y-3.3846
X5.9449Y-3.2087
X5.9449Y-3.2874
X5.9449Y-3.5039
X5.9961Y-3.9039
X6.0039Y-3.5433
X6.022Y-3.479
X6.0625Y-3.37
X6.0638Y-3.9232
X6.069Y-3.77
X6.0725Y-3.81
X6.0827Y-3.6417
X6.0827Y-3.7205
X6.1024Y-3.2835
X6.1417Y-3.2087
X6.1472Y-3.9217
X6.1614Y-3.3858
X6.1614Y-3.4646
X6.1614Y-3.6024
X6.1614Y-3.7992
X6.206Y-3.304
X6.2205Y-3.2087
X6.2268Y-3.9213
X6.2306Y-3.3854
X6.252Y-3.808
X6.2795Y-3.6024
X6.2795Y-3.9252
X6.2811Y-3.4775
X6.284Y-3.714
X6.2992Y-3.2087
X6.2992Y-3.2874
X6.35Y-3.545
X6.3543Y-3.9252
X6.378Y-3.2087
X6.437Y-3.752
X6.4567Y-3.2087
X6.4606Y-3.8504
X6.4788Y-3.7502
X6.5157Y-3.2087
X6.5157Y-3.2874
X6.5157Y-3.3661
X6.5157Y-3.4449
X6.5157Y-3.5236
X6.5157Y-3.6024
X6.5157Y-3.8189
X6.5157Y-3.8976
T2
X5.4325Y-3.5288
X5.4325Y-3.6075
X5.4325Y-3.6863
X5.4325Y-3.765
X6.3713Y-3.2675
X6.3713Y-3.3463
X6.3713Y-3.425
X6.45Y-3.2675
X6.45Y-3.3463
X6.45Y-3.425
T0
M30
