%TF.GenerationSoftware,KiCad,Pcbnew,(5.1.9)-1*%
%TF.CreationDate,2021-03-08T23:04:16+01:00*%
%TF.ProjectId,RT12e_ELE_ACC-00,52543132-655f-4454-9c45-5f4143432d30,rev?*%
%TF.SameCoordinates,Original*%
%TF.FileFunction,Paste,Top*%
%TF.FilePolarity,Positive*%
%FSLAX46Y46*%
G04 Gerber Fmt 4.6, Leading zero omitted, Abs format (unit mm)*
G04 Created by KiCad (PCBNEW (5.1.9)-1) date 2021-03-08 23:04:16*
%MOMM*%
%LPD*%
G01*
G04 APERTURE LIST*
%ADD10R,1.600000X0.550000*%
%ADD11R,0.550000X1.600000*%
%ADD12R,0.800000X0.900000*%
%ADD13R,0.900000X0.800000*%
G04 APERTURE END LIST*
%TO.C,U3*%
G36*
G01*
X156643700Y-85116800D02*
X156468700Y-85116800D01*
G75*
G02*
X156381200Y-85029300I0J87500D01*
G01*
X156381200Y-84654300D01*
G75*
G02*
X156468700Y-84566800I87500J0D01*
G01*
X156643700Y-84566800D01*
G75*
G02*
X156731200Y-84654300I0J-87500D01*
G01*
X156731200Y-85029300D01*
G75*
G02*
X156643700Y-85116800I-87500J0D01*
G01*
G37*
G36*
G01*
X157143700Y-85116800D02*
X156968700Y-85116800D01*
G75*
G02*
X156881200Y-85029300I0J87500D01*
G01*
X156881200Y-84654300D01*
G75*
G02*
X156968700Y-84566800I87500J0D01*
G01*
X157143700Y-84566800D01*
G75*
G02*
X157231200Y-84654300I0J-87500D01*
G01*
X157231200Y-85029300D01*
G75*
G02*
X157143700Y-85116800I-87500J0D01*
G01*
G37*
G36*
G01*
X157643700Y-85116800D02*
X157468700Y-85116800D01*
G75*
G02*
X157381200Y-85029300I0J87500D01*
G01*
X157381200Y-84654300D01*
G75*
G02*
X157468700Y-84566800I87500J0D01*
G01*
X157643700Y-84566800D01*
G75*
G02*
X157731200Y-84654300I0J-87500D01*
G01*
X157731200Y-85029300D01*
G75*
G02*
X157643700Y-85116800I-87500J0D01*
G01*
G37*
G36*
G01*
X158143700Y-85116800D02*
X157968700Y-85116800D01*
G75*
G02*
X157881200Y-85029300I0J87500D01*
G01*
X157881200Y-84654300D01*
G75*
G02*
X157968700Y-84566800I87500J0D01*
G01*
X158143700Y-84566800D01*
G75*
G02*
X158231200Y-84654300I0J-87500D01*
G01*
X158231200Y-85029300D01*
G75*
G02*
X158143700Y-85116800I-87500J0D01*
G01*
G37*
G36*
G01*
X158643700Y-85116800D02*
X158468700Y-85116800D01*
G75*
G02*
X158381200Y-85029300I0J87500D01*
G01*
X158381200Y-84654300D01*
G75*
G02*
X158468700Y-84566800I87500J0D01*
G01*
X158643700Y-84566800D01*
G75*
G02*
X158731200Y-84654300I0J-87500D01*
G01*
X158731200Y-85029300D01*
G75*
G02*
X158643700Y-85116800I-87500J0D01*
G01*
G37*
G36*
G01*
X158968700Y-84291800D02*
X158593700Y-84291800D01*
G75*
G02*
X158506200Y-84204300I0J87500D01*
G01*
X158506200Y-84029300D01*
G75*
G02*
X158593700Y-83941800I87500J0D01*
G01*
X158968700Y-83941800D01*
G75*
G02*
X159056200Y-84029300I0J-87500D01*
G01*
X159056200Y-84204300D01*
G75*
G02*
X158968700Y-84291800I-87500J0D01*
G01*
G37*
G36*
G01*
X158968700Y-83791800D02*
X158593700Y-83791800D01*
G75*
G02*
X158506200Y-83704300I0J87500D01*
G01*
X158506200Y-83529300D01*
G75*
G02*
X158593700Y-83441800I87500J0D01*
G01*
X158968700Y-83441800D01*
G75*
G02*
X159056200Y-83529300I0J-87500D01*
G01*
X159056200Y-83704300D01*
G75*
G02*
X158968700Y-83791800I-87500J0D01*
G01*
G37*
G36*
G01*
X158968700Y-83291800D02*
X158593700Y-83291800D01*
G75*
G02*
X158506200Y-83204300I0J87500D01*
G01*
X158506200Y-83029300D01*
G75*
G02*
X158593700Y-82941800I87500J0D01*
G01*
X158968700Y-82941800D01*
G75*
G02*
X159056200Y-83029300I0J-87500D01*
G01*
X159056200Y-83204300D01*
G75*
G02*
X158968700Y-83291800I-87500J0D01*
G01*
G37*
G36*
G01*
X158643700Y-82666800D02*
X158468700Y-82666800D01*
G75*
G02*
X158381200Y-82579300I0J87500D01*
G01*
X158381200Y-82204300D01*
G75*
G02*
X158468700Y-82116800I87500J0D01*
G01*
X158643700Y-82116800D01*
G75*
G02*
X158731200Y-82204300I0J-87500D01*
G01*
X158731200Y-82579300D01*
G75*
G02*
X158643700Y-82666800I-87500J0D01*
G01*
G37*
G36*
G01*
X158143700Y-82666800D02*
X157968700Y-82666800D01*
G75*
G02*
X157881200Y-82579300I0J87500D01*
G01*
X157881200Y-82204300D01*
G75*
G02*
X157968700Y-82116800I87500J0D01*
G01*
X158143700Y-82116800D01*
G75*
G02*
X158231200Y-82204300I0J-87500D01*
G01*
X158231200Y-82579300D01*
G75*
G02*
X158143700Y-82666800I-87500J0D01*
G01*
G37*
G36*
G01*
X157643700Y-82666800D02*
X157468700Y-82666800D01*
G75*
G02*
X157381200Y-82579300I0J87500D01*
G01*
X157381200Y-82204300D01*
G75*
G02*
X157468700Y-82116800I87500J0D01*
G01*
X157643700Y-82116800D01*
G75*
G02*
X157731200Y-82204300I0J-87500D01*
G01*
X157731200Y-82579300D01*
G75*
G02*
X157643700Y-82666800I-87500J0D01*
G01*
G37*
G36*
G01*
X157143700Y-82666800D02*
X156968700Y-82666800D01*
G75*
G02*
X156881200Y-82579300I0J87500D01*
G01*
X156881200Y-82204300D01*
G75*
G02*
X156968700Y-82116800I87500J0D01*
G01*
X157143700Y-82116800D01*
G75*
G02*
X157231200Y-82204300I0J-87500D01*
G01*
X157231200Y-82579300D01*
G75*
G02*
X157143700Y-82666800I-87500J0D01*
G01*
G37*
G36*
G01*
X156643700Y-82666800D02*
X156468700Y-82666800D01*
G75*
G02*
X156381200Y-82579300I0J87500D01*
G01*
X156381200Y-82204300D01*
G75*
G02*
X156468700Y-82116800I87500J0D01*
G01*
X156643700Y-82116800D01*
G75*
G02*
X156731200Y-82204300I0J-87500D01*
G01*
X156731200Y-82579300D01*
G75*
G02*
X156643700Y-82666800I-87500J0D01*
G01*
G37*
G36*
G01*
X156518700Y-83291800D02*
X156143700Y-83291800D01*
G75*
G02*
X156056200Y-83204300I0J87500D01*
G01*
X156056200Y-83029300D01*
G75*
G02*
X156143700Y-82941800I87500J0D01*
G01*
X156518700Y-82941800D01*
G75*
G02*
X156606200Y-83029300I0J-87500D01*
G01*
X156606200Y-83204300D01*
G75*
G02*
X156518700Y-83291800I-87500J0D01*
G01*
G37*
G36*
G01*
X156518700Y-83791800D02*
X156143700Y-83791800D01*
G75*
G02*
X156056200Y-83704300I0J87500D01*
G01*
X156056200Y-83529300D01*
G75*
G02*
X156143700Y-83441800I87500J0D01*
G01*
X156518700Y-83441800D01*
G75*
G02*
X156606200Y-83529300I0J-87500D01*
G01*
X156606200Y-83704300D01*
G75*
G02*
X156518700Y-83791800I-87500J0D01*
G01*
G37*
G36*
G01*
X156518700Y-84291800D02*
X156143700Y-84291800D01*
G75*
G02*
X156056200Y-84204300I0J87500D01*
G01*
X156056200Y-84029300D01*
G75*
G02*
X156143700Y-83941800I87500J0D01*
G01*
X156518700Y-83941800D01*
G75*
G02*
X156606200Y-84029300I0J-87500D01*
G01*
X156606200Y-84204300D01*
G75*
G02*
X156518700Y-84291800I-87500J0D01*
G01*
G37*
%TD*%
%TO.C,C2*%
G36*
G01*
X145919000Y-83749000D02*
X145419000Y-83749000D01*
G75*
G02*
X145194000Y-83524000I0J225000D01*
G01*
X145194000Y-83074000D01*
G75*
G02*
X145419000Y-82849000I225000J0D01*
G01*
X145919000Y-82849000D01*
G75*
G02*
X146144000Y-83074000I0J-225000D01*
G01*
X146144000Y-83524000D01*
G75*
G02*
X145919000Y-83749000I-225000J0D01*
G01*
G37*
G36*
G01*
X145919000Y-85299000D02*
X145419000Y-85299000D01*
G75*
G02*
X145194000Y-85074000I0J225000D01*
G01*
X145194000Y-84624000D01*
G75*
G02*
X145419000Y-84399000I225000J0D01*
G01*
X145919000Y-84399000D01*
G75*
G02*
X146144000Y-84624000I0J-225000D01*
G01*
X146144000Y-85074000D01*
G75*
G02*
X145919000Y-85299000I-225000J0D01*
G01*
G37*
%TD*%
%TO.C,C8*%
G36*
G01*
X162691000Y-88818000D02*
X163191000Y-88818000D01*
G75*
G02*
X163416000Y-89043000I0J-225000D01*
G01*
X163416000Y-89493000D01*
G75*
G02*
X163191000Y-89718000I-225000J0D01*
G01*
X162691000Y-89718000D01*
G75*
G02*
X162466000Y-89493000I0J225000D01*
G01*
X162466000Y-89043000D01*
G75*
G02*
X162691000Y-88818000I225000J0D01*
G01*
G37*
G36*
G01*
X162691000Y-90368000D02*
X163191000Y-90368000D01*
G75*
G02*
X163416000Y-90593000I0J-225000D01*
G01*
X163416000Y-91043000D01*
G75*
G02*
X163191000Y-91268000I-225000J0D01*
G01*
X162691000Y-91268000D01*
G75*
G02*
X162466000Y-91043000I0J225000D01*
G01*
X162466000Y-90593000D01*
G75*
G02*
X162691000Y-90368000I225000J0D01*
G01*
G37*
%TD*%
%TO.C,C5*%
G36*
G01*
X162691000Y-97734000D02*
X163191000Y-97734000D01*
G75*
G02*
X163416000Y-97959000I0J-225000D01*
G01*
X163416000Y-98409000D01*
G75*
G02*
X163191000Y-98634000I-225000J0D01*
G01*
X162691000Y-98634000D01*
G75*
G02*
X162466000Y-98409000I0J225000D01*
G01*
X162466000Y-97959000D01*
G75*
G02*
X162691000Y-97734000I225000J0D01*
G01*
G37*
G36*
G01*
X162691000Y-96184000D02*
X163191000Y-96184000D01*
G75*
G02*
X163416000Y-96409000I0J-225000D01*
G01*
X163416000Y-96859000D01*
G75*
G02*
X163191000Y-97084000I-225000J0D01*
G01*
X162691000Y-97084000D01*
G75*
G02*
X162466000Y-96859000I0J225000D01*
G01*
X162466000Y-96409000D01*
G75*
G02*
X162691000Y-96184000I225000J0D01*
G01*
G37*
%TD*%
D10*
%TO.C,U2*%
X161095000Y-96780000D03*
X161095000Y-95980000D03*
X161095000Y-95180000D03*
X161095000Y-94380000D03*
X161095000Y-93580000D03*
X161095000Y-92780000D03*
X161095000Y-91980000D03*
X161095000Y-91180000D03*
D11*
X159645000Y-89730000D03*
X158845000Y-89730000D03*
X158045000Y-89730000D03*
X157245000Y-89730000D03*
X156445000Y-89730000D03*
X155645000Y-89730000D03*
X154845000Y-89730000D03*
X154045000Y-89730000D03*
D10*
X152595000Y-91180000D03*
X152595000Y-91980000D03*
X152595000Y-92780000D03*
X152595000Y-93580000D03*
X152595000Y-94380000D03*
X152595000Y-95180000D03*
X152595000Y-95980000D03*
X152595000Y-96780000D03*
D11*
X154045000Y-98230000D03*
X154845000Y-98230000D03*
X155645000Y-98230000D03*
X156445000Y-98230000D03*
X157245000Y-98230000D03*
X158045000Y-98230000D03*
X158845000Y-98230000D03*
X159645000Y-98230000D03*
%TD*%
D12*
%TO.C,U1*%
X149540000Y-86439500D03*
X147640000Y-86439500D03*
X148590000Y-88439500D03*
%TD*%
%TO.C,C1*%
G36*
G01*
X142631399Y-87180200D02*
X143931401Y-87180200D01*
G75*
G02*
X144181400Y-87430199I0J-249999D01*
G01*
X144181400Y-88080201D01*
G75*
G02*
X143931401Y-88330200I-249999J0D01*
G01*
X142631399Y-88330200D01*
G75*
G02*
X142381400Y-88080201I0J249999D01*
G01*
X142381400Y-87430199D01*
G75*
G02*
X142631399Y-87180200I249999J0D01*
G01*
G37*
G36*
G01*
X142631399Y-90130200D02*
X143931401Y-90130200D01*
G75*
G02*
X144181400Y-90380199I0J-249999D01*
G01*
X144181400Y-91030201D01*
G75*
G02*
X143931401Y-91280200I-249999J0D01*
G01*
X142631399Y-91280200D01*
G75*
G02*
X142381400Y-91030201I0J249999D01*
G01*
X142381400Y-90380199D01*
G75*
G02*
X142631399Y-90130200I249999J0D01*
G01*
G37*
%TD*%
%TO.C,C3*%
G36*
G01*
X149854800Y-85136800D02*
X149854800Y-84636800D01*
G75*
G02*
X150079800Y-84411800I225000J0D01*
G01*
X150529800Y-84411800D01*
G75*
G02*
X150754800Y-84636800I0J-225000D01*
G01*
X150754800Y-85136800D01*
G75*
G02*
X150529800Y-85361800I-225000J0D01*
G01*
X150079800Y-85361800D01*
G75*
G02*
X149854800Y-85136800I0J225000D01*
G01*
G37*
G36*
G01*
X148304800Y-85136800D02*
X148304800Y-84636800D01*
G75*
G02*
X148529800Y-84411800I225000J0D01*
G01*
X148979800Y-84411800D01*
G75*
G02*
X149204800Y-84636800I0J-225000D01*
G01*
X149204800Y-85136800D01*
G75*
G02*
X148979800Y-85361800I-225000J0D01*
G01*
X148529800Y-85361800D01*
G75*
G02*
X148304800Y-85136800I0J225000D01*
G01*
G37*
%TD*%
%TO.C,C6*%
G36*
G01*
X163191000Y-92766000D02*
X162691000Y-92766000D01*
G75*
G02*
X162466000Y-92541000I0J225000D01*
G01*
X162466000Y-92091000D01*
G75*
G02*
X162691000Y-91866000I225000J0D01*
G01*
X163191000Y-91866000D01*
G75*
G02*
X163416000Y-92091000I0J-225000D01*
G01*
X163416000Y-92541000D01*
G75*
G02*
X163191000Y-92766000I-225000J0D01*
G01*
G37*
G36*
G01*
X163191000Y-94316000D02*
X162691000Y-94316000D01*
G75*
G02*
X162466000Y-94091000I0J225000D01*
G01*
X162466000Y-93641000D01*
G75*
G02*
X162691000Y-93416000I225000J0D01*
G01*
X163191000Y-93416000D01*
G75*
G02*
X163416000Y-93641000I0J-225000D01*
G01*
X163416000Y-94091000D01*
G75*
G02*
X163191000Y-94316000I-225000J0D01*
G01*
G37*
%TD*%
%TO.C,C7*%
G36*
G01*
X151212000Y-90936000D02*
X151212000Y-91436000D01*
G75*
G02*
X150987000Y-91661000I-225000J0D01*
G01*
X150537000Y-91661000D01*
G75*
G02*
X150312000Y-91436000I0J225000D01*
G01*
X150312000Y-90936000D01*
G75*
G02*
X150537000Y-90711000I225000J0D01*
G01*
X150987000Y-90711000D01*
G75*
G02*
X151212000Y-90936000I0J-225000D01*
G01*
G37*
G36*
G01*
X149662000Y-90936000D02*
X149662000Y-91436000D01*
G75*
G02*
X149437000Y-91661000I-225000J0D01*
G01*
X148987000Y-91661000D01*
G75*
G02*
X148762000Y-91436000I0J225000D01*
G01*
X148762000Y-90936000D01*
G75*
G02*
X148987000Y-90711000I225000J0D01*
G01*
X149437000Y-90711000D01*
G75*
G02*
X149662000Y-90936000I0J-225000D01*
G01*
G37*
%TD*%
%TO.C,C9*%
G36*
G01*
X155071000Y-87320000D02*
X155571000Y-87320000D01*
G75*
G02*
X155796000Y-87545000I0J-225000D01*
G01*
X155796000Y-87995000D01*
G75*
G02*
X155571000Y-88220000I-225000J0D01*
G01*
X155071000Y-88220000D01*
G75*
G02*
X154846000Y-87995000I0J225000D01*
G01*
X154846000Y-87545000D01*
G75*
G02*
X155071000Y-87320000I225000J0D01*
G01*
G37*
G36*
G01*
X155071000Y-85770000D02*
X155571000Y-85770000D01*
G75*
G02*
X155796000Y-85995000I0J-225000D01*
G01*
X155796000Y-86445000D01*
G75*
G02*
X155571000Y-86670000I-225000J0D01*
G01*
X155071000Y-86670000D01*
G75*
G02*
X154846000Y-86445000I0J225000D01*
G01*
X154846000Y-85995000D01*
G75*
G02*
X155071000Y-85770000I225000J0D01*
G01*
G37*
%TD*%
%TO.C,C10*%
G36*
G01*
X153332400Y-81772999D02*
X153332400Y-83073001D01*
G75*
G02*
X153082401Y-83323000I-249999J0D01*
G01*
X152432399Y-83323000D01*
G75*
G02*
X152182400Y-83073001I0J249999D01*
G01*
X152182400Y-81772999D01*
G75*
G02*
X152432399Y-81523000I249999J0D01*
G01*
X153082401Y-81523000D01*
G75*
G02*
X153332400Y-81772999I0J-249999D01*
G01*
G37*
G36*
G01*
X150382400Y-81772999D02*
X150382400Y-83073001D01*
G75*
G02*
X150132401Y-83323000I-249999J0D01*
G01*
X149482399Y-83323000D01*
G75*
G02*
X149232400Y-83073001I0J249999D01*
G01*
X149232400Y-81772999D01*
G75*
G02*
X149482399Y-81523000I249999J0D01*
G01*
X150132401Y-81523000D01*
G75*
G02*
X150382400Y-81772999I0J-249999D01*
G01*
G37*
%TD*%
%TO.C,C11*%
G36*
G01*
X155403000Y-84395500D02*
X155403000Y-84895500D01*
G75*
G02*
X155178000Y-85120500I-225000J0D01*
G01*
X154728000Y-85120500D01*
G75*
G02*
X154503000Y-84895500I0J225000D01*
G01*
X154503000Y-84395500D01*
G75*
G02*
X154728000Y-84170500I225000J0D01*
G01*
X155178000Y-84170500D01*
G75*
G02*
X155403000Y-84395500I0J-225000D01*
G01*
G37*
G36*
G01*
X153853000Y-84395500D02*
X153853000Y-84895500D01*
G75*
G02*
X153628000Y-85120500I-225000J0D01*
G01*
X153178000Y-85120500D01*
G75*
G02*
X152953000Y-84895500I0J225000D01*
G01*
X152953000Y-84395500D01*
G75*
G02*
X153178000Y-84170500I225000J0D01*
G01*
X153628000Y-84170500D01*
G75*
G02*
X153853000Y-84395500I0J-225000D01*
G01*
G37*
%TD*%
%TO.C,C13*%
G36*
G01*
X147402000Y-90809000D02*
X147402000Y-91309000D01*
G75*
G02*
X147177000Y-91534000I-225000J0D01*
G01*
X146727000Y-91534000D01*
G75*
G02*
X146502000Y-91309000I0J225000D01*
G01*
X146502000Y-90809000D01*
G75*
G02*
X146727000Y-90584000I225000J0D01*
G01*
X147177000Y-90584000D01*
G75*
G02*
X147402000Y-90809000I0J-225000D01*
G01*
G37*
G36*
G01*
X145852000Y-90809000D02*
X145852000Y-91309000D01*
G75*
G02*
X145627000Y-91534000I-225000J0D01*
G01*
X145177000Y-91534000D01*
G75*
G02*
X144952000Y-91309000I0J225000D01*
G01*
X144952000Y-90809000D01*
G75*
G02*
X145177000Y-90584000I225000J0D01*
G01*
X145627000Y-90584000D01*
G75*
G02*
X145852000Y-90809000I0J-225000D01*
G01*
G37*
%TD*%
%TO.C,D1*%
G36*
G01*
X140243400Y-86087600D02*
X141493400Y-86087600D01*
G75*
G02*
X141743400Y-86337600I0J-250000D01*
G01*
X141743400Y-87087600D01*
G75*
G02*
X141493400Y-87337600I-250000J0D01*
G01*
X140243400Y-87337600D01*
G75*
G02*
X139993400Y-87087600I0J250000D01*
G01*
X139993400Y-86337600D01*
G75*
G02*
X140243400Y-86087600I250000J0D01*
G01*
G37*
G36*
G01*
X140243400Y-88887600D02*
X141493400Y-88887600D01*
G75*
G02*
X141743400Y-89137600I0J-250000D01*
G01*
X141743400Y-89887600D01*
G75*
G02*
X141493400Y-90137600I-250000J0D01*
G01*
X140243400Y-90137600D01*
G75*
G02*
X139993400Y-89887600I0J250000D01*
G01*
X139993400Y-89137600D01*
G75*
G02*
X140243400Y-88887600I250000J0D01*
G01*
G37*
%TD*%
%TO.C,D2*%
G36*
G01*
X140583800Y-85136800D02*
X140583800Y-84636800D01*
G75*
G02*
X140808800Y-84411800I225000J0D01*
G01*
X141258800Y-84411800D01*
G75*
G02*
X141483800Y-84636800I0J-225000D01*
G01*
X141483800Y-85136800D01*
G75*
G02*
X141258800Y-85361800I-225000J0D01*
G01*
X140808800Y-85361800D01*
G75*
G02*
X140583800Y-85136800I0J225000D01*
G01*
G37*
G36*
G01*
X139033800Y-85136800D02*
X139033800Y-84636800D01*
G75*
G02*
X139258800Y-84411800I225000J0D01*
G01*
X139708800Y-84411800D01*
G75*
G02*
X139933800Y-84636800I0J-225000D01*
G01*
X139933800Y-85136800D01*
G75*
G02*
X139708800Y-85361800I-225000J0D01*
G01*
X139258800Y-85361800D01*
G75*
G02*
X139033800Y-85136800I0J225000D01*
G01*
G37*
%TD*%
%TO.C,D3*%
G36*
G01*
X140583800Y-83562000D02*
X140583800Y-83062000D01*
G75*
G02*
X140808800Y-82837000I225000J0D01*
G01*
X141258800Y-82837000D01*
G75*
G02*
X141483800Y-83062000I0J-225000D01*
G01*
X141483800Y-83562000D01*
G75*
G02*
X141258800Y-83787000I-225000J0D01*
G01*
X140808800Y-83787000D01*
G75*
G02*
X140583800Y-83562000I0J225000D01*
G01*
G37*
G36*
G01*
X139033800Y-83562000D02*
X139033800Y-83062000D01*
G75*
G02*
X139258800Y-82837000I225000J0D01*
G01*
X139708800Y-82837000D01*
G75*
G02*
X139933800Y-83062000I0J-225000D01*
G01*
X139933800Y-83562000D01*
G75*
G02*
X139708800Y-83787000I-225000J0D01*
G01*
X139258800Y-83787000D01*
G75*
G02*
X139033800Y-83562000I0J225000D01*
G01*
G37*
%TD*%
D13*
%TO.C,D4*%
X142478000Y-94742000D03*
X140478000Y-95692000D03*
X140478000Y-93792000D03*
%TD*%
%TO.C,L1*%
G36*
G01*
X146236251Y-88939500D02*
X145473751Y-88939500D01*
G75*
G02*
X145255001Y-88720750I0J218750D01*
G01*
X145255001Y-88283250D01*
G75*
G02*
X145473751Y-88064500I218750J0D01*
G01*
X146236251Y-88064500D01*
G75*
G02*
X146455001Y-88283250I0J-218750D01*
G01*
X146455001Y-88720750D01*
G75*
G02*
X146236251Y-88939500I-218750J0D01*
G01*
G37*
G36*
G01*
X146236251Y-86814500D02*
X145473751Y-86814500D01*
G75*
G02*
X145255001Y-86595750I0J218750D01*
G01*
X145255001Y-86158250D01*
G75*
G02*
X145473751Y-85939500I218750J0D01*
G01*
X146236251Y-85939500D01*
G75*
G02*
X146455001Y-86158250I0J-218750D01*
G01*
X146455001Y-86595750D01*
G75*
G02*
X146236251Y-86814500I-218750J0D01*
G01*
G37*
%TD*%
%TO.C,L2*%
G36*
G01*
X153050400Y-87477850D02*
X153050400Y-86715350D01*
G75*
G02*
X153269150Y-86496600I218750J0D01*
G01*
X153706650Y-86496600D01*
G75*
G02*
X153925400Y-86715350I0J-218750D01*
G01*
X153925400Y-87477850D01*
G75*
G02*
X153706650Y-87696600I-218750J0D01*
G01*
X153269150Y-87696600D01*
G75*
G02*
X153050400Y-87477850I0J218750D01*
G01*
G37*
G36*
G01*
X150925400Y-87477850D02*
X150925400Y-86715350D01*
G75*
G02*
X151144150Y-86496600I218750J0D01*
G01*
X151581650Y-86496600D01*
G75*
G02*
X151800400Y-86715350I0J-218750D01*
G01*
X151800400Y-87477850D01*
G75*
G02*
X151581650Y-87696600I-218750J0D01*
G01*
X151144150Y-87696600D01*
G75*
G02*
X150925400Y-87477850I0J218750D01*
G01*
G37*
%TD*%
%TO.C,U4*%
G36*
G01*
X150389000Y-96497000D02*
X150389000Y-96797000D01*
G75*
G02*
X150239000Y-96947000I-150000J0D01*
G01*
X148589000Y-96947000D01*
G75*
G02*
X148439000Y-96797000I0J150000D01*
G01*
X148439000Y-96497000D01*
G75*
G02*
X148589000Y-96347000I150000J0D01*
G01*
X150239000Y-96347000D01*
G75*
G02*
X150389000Y-96497000I0J-150000D01*
G01*
G37*
G36*
G01*
X150389000Y-95227000D02*
X150389000Y-95527000D01*
G75*
G02*
X150239000Y-95677000I-150000J0D01*
G01*
X148589000Y-95677000D01*
G75*
G02*
X148439000Y-95527000I0J150000D01*
G01*
X148439000Y-95227000D01*
G75*
G02*
X148589000Y-95077000I150000J0D01*
G01*
X150239000Y-95077000D01*
G75*
G02*
X150389000Y-95227000I0J-150000D01*
G01*
G37*
G36*
G01*
X150389000Y-93957000D02*
X150389000Y-94257000D01*
G75*
G02*
X150239000Y-94407000I-150000J0D01*
G01*
X148589000Y-94407000D01*
G75*
G02*
X148439000Y-94257000I0J150000D01*
G01*
X148439000Y-93957000D01*
G75*
G02*
X148589000Y-93807000I150000J0D01*
G01*
X150239000Y-93807000D01*
G75*
G02*
X150389000Y-93957000I0J-150000D01*
G01*
G37*
G36*
G01*
X150389000Y-92687000D02*
X150389000Y-92987000D01*
G75*
G02*
X150239000Y-93137000I-150000J0D01*
G01*
X148589000Y-93137000D01*
G75*
G02*
X148439000Y-92987000I0J150000D01*
G01*
X148439000Y-92687000D01*
G75*
G02*
X148589000Y-92537000I150000J0D01*
G01*
X150239000Y-92537000D01*
G75*
G02*
X150389000Y-92687000I0J-150000D01*
G01*
G37*
G36*
G01*
X145439000Y-92687000D02*
X145439000Y-92987000D01*
G75*
G02*
X145289000Y-93137000I-150000J0D01*
G01*
X143639000Y-93137000D01*
G75*
G02*
X143489000Y-92987000I0J150000D01*
G01*
X143489000Y-92687000D01*
G75*
G02*
X143639000Y-92537000I150000J0D01*
G01*
X145289000Y-92537000D01*
G75*
G02*
X145439000Y-92687000I0J-150000D01*
G01*
G37*
G36*
G01*
X145439000Y-93957000D02*
X145439000Y-94257000D01*
G75*
G02*
X145289000Y-94407000I-150000J0D01*
G01*
X143639000Y-94407000D01*
G75*
G02*
X143489000Y-94257000I0J150000D01*
G01*
X143489000Y-93957000D01*
G75*
G02*
X143639000Y-93807000I150000J0D01*
G01*
X145289000Y-93807000D01*
G75*
G02*
X145439000Y-93957000I0J-150000D01*
G01*
G37*
G36*
G01*
X145439000Y-95227000D02*
X145439000Y-95527000D01*
G75*
G02*
X145289000Y-95677000I-150000J0D01*
G01*
X143639000Y-95677000D01*
G75*
G02*
X143489000Y-95527000I0J150000D01*
G01*
X143489000Y-95227000D01*
G75*
G02*
X143639000Y-95077000I150000J0D01*
G01*
X145289000Y-95077000D01*
G75*
G02*
X145439000Y-95227000I0J-150000D01*
G01*
G37*
G36*
G01*
X145439000Y-96497000D02*
X145439000Y-96797000D01*
G75*
G02*
X145289000Y-96947000I-150000J0D01*
G01*
X143639000Y-96947000D01*
G75*
G02*
X143489000Y-96797000I0J150000D01*
G01*
X143489000Y-96497000D01*
G75*
G02*
X143639000Y-96347000I150000J0D01*
G01*
X145289000Y-96347000D01*
G75*
G02*
X145439000Y-96497000I0J-150000D01*
G01*
G37*
%TD*%
%TO.C,R1*%
G36*
G01*
X142868800Y-84611800D02*
X142868800Y-85161800D01*
G75*
G02*
X142668800Y-85361800I-200000J0D01*
G01*
X142268800Y-85361800D01*
G75*
G02*
X142068800Y-85161800I0J200000D01*
G01*
X142068800Y-84611800D01*
G75*
G02*
X142268800Y-84411800I200000J0D01*
G01*
X142668800Y-84411800D01*
G75*
G02*
X142868800Y-84611800I0J-200000D01*
G01*
G37*
G36*
G01*
X144518800Y-84611800D02*
X144518800Y-85161800D01*
G75*
G02*
X144318800Y-85361800I-200000J0D01*
G01*
X143918800Y-85361800D01*
G75*
G02*
X143718800Y-85161800I0J200000D01*
G01*
X143718800Y-84611800D01*
G75*
G02*
X143918800Y-84411800I200000J0D01*
G01*
X144318800Y-84411800D01*
G75*
G02*
X144518800Y-84611800I0J-200000D01*
G01*
G37*
%TD*%
%TO.C,R2*%
G36*
G01*
X144518800Y-83037000D02*
X144518800Y-83587000D01*
G75*
G02*
X144318800Y-83787000I-200000J0D01*
G01*
X143918800Y-83787000D01*
G75*
G02*
X143718800Y-83587000I0J200000D01*
G01*
X143718800Y-83037000D01*
G75*
G02*
X143918800Y-82837000I200000J0D01*
G01*
X144318800Y-82837000D01*
G75*
G02*
X144518800Y-83037000I0J-200000D01*
G01*
G37*
G36*
G01*
X142868800Y-83037000D02*
X142868800Y-83587000D01*
G75*
G02*
X142668800Y-83787000I-200000J0D01*
G01*
X142268800Y-83787000D01*
G75*
G02*
X142068800Y-83587000I0J200000D01*
G01*
X142068800Y-83037000D01*
G75*
G02*
X142268800Y-82837000I200000J0D01*
G01*
X142668800Y-82837000D01*
G75*
G02*
X142868800Y-83037000I0J-200000D01*
G01*
G37*
%TD*%
%TO.C,R3*%
G36*
G01*
X164740000Y-91268000D02*
X164190000Y-91268000D01*
G75*
G02*
X163990000Y-91068000I0J200000D01*
G01*
X163990000Y-90668000D01*
G75*
G02*
X164190000Y-90468000I200000J0D01*
G01*
X164740000Y-90468000D01*
G75*
G02*
X164940000Y-90668000I0J-200000D01*
G01*
X164940000Y-91068000D01*
G75*
G02*
X164740000Y-91268000I-200000J0D01*
G01*
G37*
G36*
G01*
X164740000Y-89618000D02*
X164190000Y-89618000D01*
G75*
G02*
X163990000Y-89418000I0J200000D01*
G01*
X163990000Y-89018000D01*
G75*
G02*
X164190000Y-88818000I200000J0D01*
G01*
X164740000Y-88818000D01*
G75*
G02*
X164940000Y-89018000I0J-200000D01*
G01*
X164940000Y-89418000D01*
G75*
G02*
X164740000Y-89618000I-200000J0D01*
G01*
G37*
%TD*%
%TO.C,R4*%
G36*
G01*
X164740000Y-92666000D02*
X164190000Y-92666000D01*
G75*
G02*
X163990000Y-92466000I0J200000D01*
G01*
X163990000Y-92066000D01*
G75*
G02*
X164190000Y-91866000I200000J0D01*
G01*
X164740000Y-91866000D01*
G75*
G02*
X164940000Y-92066000I0J-200000D01*
G01*
X164940000Y-92466000D01*
G75*
G02*
X164740000Y-92666000I-200000J0D01*
G01*
G37*
G36*
G01*
X164740000Y-94316000D02*
X164190000Y-94316000D01*
G75*
G02*
X163990000Y-94116000I0J200000D01*
G01*
X163990000Y-93716000D01*
G75*
G02*
X164190000Y-93516000I200000J0D01*
G01*
X164740000Y-93516000D01*
G75*
G02*
X164940000Y-93716000I0J-200000D01*
G01*
X164940000Y-94116000D01*
G75*
G02*
X164740000Y-94316000I-200000J0D01*
G01*
G37*
%TD*%
M02*
