%TF.GenerationSoftware,KiCad,Pcbnew,(5.1.9)-1*%
%TF.CreationDate,2021-03-08T23:04:16+01:00*%
%TF.ProjectId,RT12e_ELE_ACC-00,52543132-655f-4454-9c45-5f4143432d30,rev?*%
%TF.SameCoordinates,Original*%
%TF.FileFunction,Legend,Top*%
%TF.FilePolarity,Positive*%
%FSLAX46Y46*%
G04 Gerber Fmt 4.6, Leading zero omitted, Abs format (unit mm)*
G04 Created by KiCad (PCBNEW (5.1.9)-1) date 2021-03-08 23:04:16*
%MOMM*%
%LPD*%
G01*
G04 APERTURE LIST*
%ADD10C,0.150000*%
%ADD11C,0.050000*%
%ADD12C,0.120000*%
%ADD13C,0.010000*%
G04 APERTURE END LIST*
D10*
X136949466Y-82113380D02*
X136616133Y-81637190D01*
X136378038Y-82113380D02*
X136378038Y-81113380D01*
X136758990Y-81113380D01*
X136854228Y-81161000D01*
X136901847Y-81208619D01*
X136949466Y-81303857D01*
X136949466Y-81446714D01*
X136901847Y-81541952D01*
X136854228Y-81589571D01*
X136758990Y-81637190D01*
X136378038Y-81637190D01*
X137235180Y-81113380D02*
X137806609Y-81113380D01*
X137520895Y-82113380D02*
X137520895Y-81113380D01*
X138663752Y-82113380D02*
X138092323Y-82113380D01*
X138378038Y-82113380D02*
X138378038Y-81113380D01*
X138282800Y-81256238D01*
X138187561Y-81351476D01*
X138092323Y-81399095D01*
X139044704Y-81208619D02*
X139092323Y-81161000D01*
X139187561Y-81113380D01*
X139425657Y-81113380D01*
X139520895Y-81161000D01*
X139568514Y-81208619D01*
X139616133Y-81303857D01*
X139616133Y-81399095D01*
X139568514Y-81541952D01*
X138997085Y-82113380D01*
X139616133Y-82113380D01*
X140425657Y-82065761D02*
X140330419Y-82113380D01*
X140139942Y-82113380D01*
X140044704Y-82065761D01*
X139997085Y-81970523D01*
X139997085Y-81589571D01*
X140044704Y-81494333D01*
X140139942Y-81446714D01*
X140330419Y-81446714D01*
X140425657Y-81494333D01*
X140473276Y-81589571D01*
X140473276Y-81684809D01*
X139997085Y-81780047D01*
X140663752Y-82208619D02*
X141425657Y-82208619D01*
X141616133Y-81827666D02*
X142092323Y-81827666D01*
X141520895Y-82113380D02*
X141854228Y-81113380D01*
X142187561Y-82113380D01*
X143092323Y-82018142D02*
X143044704Y-82065761D01*
X142901847Y-82113380D01*
X142806609Y-82113380D01*
X142663752Y-82065761D01*
X142568514Y-81970523D01*
X142520895Y-81875285D01*
X142473276Y-81684809D01*
X142473276Y-81541952D01*
X142520895Y-81351476D01*
X142568514Y-81256238D01*
X142663752Y-81161000D01*
X142806609Y-81113380D01*
X142901847Y-81113380D01*
X143044704Y-81161000D01*
X143092323Y-81208619D01*
X144092323Y-82018142D02*
X144044704Y-82065761D01*
X143901847Y-82113380D01*
X143806609Y-82113380D01*
X143663752Y-82065761D01*
X143568514Y-81970523D01*
X143520895Y-81875285D01*
X143473276Y-81684809D01*
X143473276Y-81541952D01*
X143520895Y-81351476D01*
X143568514Y-81256238D01*
X143663752Y-81161000D01*
X143806609Y-81113380D01*
X143901847Y-81113380D01*
X144044704Y-81161000D01*
X144092323Y-81208619D01*
X144520895Y-81732428D02*
X145282800Y-81732428D01*
X145949466Y-81113380D02*
X146044704Y-81113380D01*
X146139942Y-81161000D01*
X146187561Y-81208619D01*
X146235180Y-81303857D01*
X146282800Y-81494333D01*
X146282800Y-81732428D01*
X146235180Y-81922904D01*
X146187561Y-82018142D01*
X146139942Y-82065761D01*
X146044704Y-82113380D01*
X145949466Y-82113380D01*
X145854228Y-82065761D01*
X145806609Y-82018142D01*
X145758990Y-81922904D01*
X145711371Y-81732428D01*
X145711371Y-81494333D01*
X145758990Y-81303857D01*
X145806609Y-81208619D01*
X145854228Y-81161000D01*
X145949466Y-81113380D01*
X146901847Y-81113380D02*
X146997085Y-81113380D01*
X147092323Y-81161000D01*
X147139942Y-81208619D01*
X147187561Y-81303857D01*
X147235180Y-81494333D01*
X147235180Y-81732428D01*
X147187561Y-81922904D01*
X147139942Y-82018142D01*
X147092323Y-82065761D01*
X146997085Y-82113380D01*
X146901847Y-82113380D01*
X146806609Y-82065761D01*
X146758990Y-82018142D01*
X146711371Y-81922904D01*
X146663752Y-81732428D01*
X146663752Y-81494333D01*
X146711371Y-81303857D01*
X146758990Y-81208619D01*
X146806609Y-81161000D01*
X146901847Y-81113380D01*
D11*
X136595609Y-89087819D02*
X136095609Y-89254485D01*
X136595609Y-89421152D01*
X136095609Y-89587819D02*
X136595609Y-89587819D01*
X136095609Y-89825914D02*
X136595609Y-89825914D01*
X136095609Y-90111628D01*
X136595609Y-90111628D01*
X136571800Y-90992580D02*
X136595609Y-90944961D01*
X136595609Y-90873533D01*
X136571800Y-90802104D01*
X136524180Y-90754485D01*
X136476561Y-90730676D01*
X136381323Y-90706866D01*
X136309895Y-90706866D01*
X136214657Y-90730676D01*
X136167038Y-90754485D01*
X136119419Y-90802104D01*
X136095609Y-90873533D01*
X136095609Y-90921152D01*
X136119419Y-90992580D01*
X136143228Y-91016390D01*
X136309895Y-91016390D01*
X136309895Y-90921152D01*
X136095609Y-91230676D02*
X136595609Y-91230676D01*
X136095609Y-91516390D01*
X136595609Y-91516390D01*
X136095609Y-91754485D02*
X136595609Y-91754485D01*
X136595609Y-91873533D01*
X136571800Y-91944961D01*
X136524180Y-91992580D01*
X136476561Y-92016390D01*
X136381323Y-92040200D01*
X136309895Y-92040200D01*
X136214657Y-92016390D01*
X136167038Y-91992580D01*
X136119419Y-91944961D01*
X136095609Y-91873533D01*
X136095609Y-91754485D01*
X136143228Y-92921152D02*
X136119419Y-92897342D01*
X136095609Y-92825914D01*
X136095609Y-92778295D01*
X136119419Y-92706866D01*
X136167038Y-92659247D01*
X136214657Y-92635438D01*
X136309895Y-92611628D01*
X136381323Y-92611628D01*
X136476561Y-92635438D01*
X136524180Y-92659247D01*
X136571800Y-92706866D01*
X136595609Y-92778295D01*
X136595609Y-92825914D01*
X136571800Y-92897342D01*
X136547990Y-92921152D01*
X136238466Y-93111628D02*
X136238466Y-93349723D01*
X136095609Y-93064009D02*
X136595609Y-93230676D01*
X136095609Y-93397342D01*
X136095609Y-93564009D02*
X136595609Y-93564009D01*
X136095609Y-93849723D01*
X136595609Y-93849723D01*
X136286085Y-94087819D02*
X136286085Y-94468771D01*
X136143228Y-95373533D02*
X136119419Y-95349723D01*
X136095609Y-95278295D01*
X136095609Y-95230676D01*
X136119419Y-95159247D01*
X136167038Y-95111628D01*
X136214657Y-95087819D01*
X136309895Y-95064009D01*
X136381323Y-95064009D01*
X136476561Y-95087819D01*
X136524180Y-95111628D01*
X136571800Y-95159247D01*
X136595609Y-95230676D01*
X136595609Y-95278295D01*
X136571800Y-95349723D01*
X136547990Y-95373533D01*
X136238466Y-95564009D02*
X136238466Y-95802104D01*
X136095609Y-95516390D02*
X136595609Y-95683057D01*
X136095609Y-95849723D01*
X136095609Y-96016390D02*
X136595609Y-96016390D01*
X136095609Y-96302104D01*
X136595609Y-96302104D01*
X136286085Y-96540200D02*
X136286085Y-96921152D01*
X136095609Y-96730676D02*
X136476561Y-96730676D01*
D12*
%TO.C,U3*%
X155946200Y-82681800D02*
X155946200Y-82006800D01*
X155946200Y-82006800D02*
X156121200Y-82006800D01*
X159166200Y-84551800D02*
X159166200Y-85226800D01*
X159166200Y-85226800D02*
X158991200Y-85226800D01*
X159166200Y-82681800D02*
X159166200Y-82006800D01*
X159166200Y-82006800D02*
X158991200Y-82006800D01*
X155946200Y-84551800D02*
X155946200Y-85226800D01*
%TO.C,C2*%
X145159000Y-84214580D02*
X145159000Y-83933420D01*
X146179000Y-84214580D02*
X146179000Y-83933420D01*
D13*
%TO.C,Ref\u002A\u002A*%
G36*
X144638535Y-97560462D02*
G01*
X144704021Y-97573081D01*
X144771098Y-97594461D01*
X144840834Y-97624887D01*
X144852772Y-97630849D01*
X144886473Y-97648323D01*
X144914942Y-97664074D01*
X144940945Y-97679837D01*
X144967247Y-97697350D01*
X144996613Y-97718347D01*
X145021300Y-97736668D01*
X145087846Y-97789680D01*
X145152399Y-97847180D01*
X145213522Y-97907652D01*
X145269778Y-97969575D01*
X145319732Y-98031433D01*
X145361947Y-98091707D01*
X145371311Y-98106657D01*
X145382809Y-98125301D01*
X145394628Y-98144162D01*
X145400395Y-98153220D01*
X145409371Y-98167637D01*
X145421061Y-98187033D01*
X145433150Y-98207558D01*
X145434849Y-98210486D01*
X145447294Y-98230362D01*
X145456559Y-98241595D01*
X145462286Y-98243821D01*
X145469076Y-98239549D01*
X145482046Y-98231219D01*
X145498869Y-98220330D01*
X145506440Y-98215409D01*
X145571838Y-98177818D01*
X145640261Y-98148500D01*
X145713053Y-98127008D01*
X145791560Y-98112893D01*
X145824617Y-98109234D01*
X145894124Y-98106566D01*
X145965009Y-98110927D01*
X146035248Y-98121897D01*
X146102816Y-98139055D01*
X146165689Y-98161979D01*
X146221842Y-98190249D01*
X146225980Y-98192727D01*
X146297323Y-98241219D01*
X146360237Y-98295150D01*
X146415158Y-98354994D01*
X146462523Y-98421227D01*
X146502767Y-98494326D01*
X146502957Y-98494724D01*
X146511858Y-98515259D01*
X146521689Y-98541181D01*
X146531788Y-98570343D01*
X146541492Y-98600600D01*
X146550135Y-98629809D01*
X146557055Y-98655823D01*
X146561588Y-98676498D01*
X146563080Y-98689039D01*
X146560374Y-98701068D01*
X146555044Y-98706396D01*
X146547029Y-98707595D01*
X146531156Y-98708576D01*
X146509727Y-98709238D01*
X146485182Y-98709480D01*
X146423355Y-98709479D01*
X146402365Y-98654870D01*
X146385724Y-98612208D01*
X146371472Y-98577406D01*
X146358714Y-98548708D01*
X146346558Y-98524360D01*
X146334108Y-98502605D01*
X146320472Y-98481688D01*
X146304756Y-98459854D01*
X146299560Y-98452940D01*
X146268135Y-98417673D01*
X146228424Y-98383205D01*
X146182285Y-98350862D01*
X146131578Y-98321974D01*
X146088100Y-98301880D01*
X146025576Y-98278469D01*
X145968022Y-98262639D01*
X145913638Y-98254396D01*
X145860626Y-98253743D01*
X145807185Y-98260687D01*
X145751518Y-98275231D01*
X145691824Y-98297380D01*
X145678705Y-98302956D01*
X145646318Y-98317319D01*
X145620991Y-98329457D01*
X145600261Y-98340693D01*
X145581669Y-98352350D01*
X145564860Y-98364202D01*
X145515857Y-98403740D01*
X145473742Y-98445859D01*
X145437367Y-98492151D01*
X145405586Y-98544208D01*
X145377252Y-98603622D01*
X145359092Y-98649790D01*
X145337253Y-98709480D01*
X145273256Y-98709078D01*
X145248366Y-98708731D01*
X145226931Y-98708073D01*
X145211131Y-98707198D01*
X145203141Y-98706196D01*
X145202910Y-98706115D01*
X145197876Y-98699587D01*
X145196560Y-98692085D01*
X145197609Y-98682311D01*
X145200385Y-98665448D01*
X145204322Y-98644310D01*
X145208861Y-98621708D01*
X145213438Y-98600452D01*
X145217491Y-98583356D01*
X145220171Y-98574004D01*
X145228366Y-98553900D01*
X145240596Y-98527715D01*
X145255535Y-98498000D01*
X145271857Y-98467303D01*
X145288237Y-98438176D01*
X145303348Y-98413168D01*
X145305742Y-98409438D01*
X145321638Y-98384207D01*
X145331969Y-98365708D01*
X145337271Y-98352550D01*
X145338084Y-98343342D01*
X145334943Y-98336692D01*
X145334180Y-98335845D01*
X145330021Y-98329654D01*
X145322228Y-98316502D01*
X145311959Y-98298388D01*
X145301615Y-98279601D01*
X145242333Y-98180038D01*
X145177224Y-98088768D01*
X145106307Y-98005807D01*
X145029597Y-97931174D01*
X144947113Y-97864886D01*
X144858873Y-97806960D01*
X144794866Y-97771991D01*
X144778955Y-97764676D01*
X144757219Y-97755666D01*
X144731593Y-97745658D01*
X144704013Y-97735349D01*
X144676414Y-97725435D01*
X144650730Y-97716613D01*
X144628896Y-97709580D01*
X144612848Y-97705032D01*
X144605044Y-97703640D01*
X144599805Y-97708467D01*
X144593179Y-97722222D01*
X144585461Y-97743811D01*
X144576947Y-97772141D01*
X144567933Y-97806121D01*
X144558715Y-97844657D01*
X144549588Y-97886657D01*
X144540849Y-97931028D01*
X144535593Y-97960180D01*
X144533681Y-97975170D01*
X144531630Y-97998028D01*
X144529605Y-98026467D01*
X144527770Y-98058198D01*
X144526436Y-98087212D01*
X144524446Y-98129164D01*
X144521895Y-98162003D01*
X144518281Y-98186778D01*
X144513103Y-98204536D01*
X144505860Y-98216325D01*
X144496050Y-98223193D01*
X144483172Y-98226188D01*
X144466725Y-98226356D01*
X144460060Y-98225944D01*
X144443361Y-98222498D01*
X144431213Y-98213999D01*
X144422523Y-98198966D01*
X144416199Y-98175914D01*
X144413970Y-98163380D01*
X144410949Y-98128415D01*
X144411548Y-98084518D01*
X144415736Y-98032237D01*
X144423486Y-97972122D01*
X144424523Y-97965260D01*
X144429254Y-97934342D01*
X144434457Y-97900291D01*
X144439369Y-97868108D01*
X144441982Y-97850960D01*
X144449315Y-97810971D01*
X144459511Y-97766812D01*
X144471759Y-97721301D01*
X144485245Y-97677258D01*
X144499155Y-97637503D01*
X144512678Y-97604855D01*
X144513400Y-97603310D01*
X144535515Y-97556320D01*
X144573570Y-97556320D01*
X144638535Y-97560462D01*
G37*
X144638535Y-97560462D02*
X144704021Y-97573081D01*
X144771098Y-97594461D01*
X144840834Y-97624887D01*
X144852772Y-97630849D01*
X144886473Y-97648323D01*
X144914942Y-97664074D01*
X144940945Y-97679837D01*
X144967247Y-97697350D01*
X144996613Y-97718347D01*
X145021300Y-97736668D01*
X145087846Y-97789680D01*
X145152399Y-97847180D01*
X145213522Y-97907652D01*
X145269778Y-97969575D01*
X145319732Y-98031433D01*
X145361947Y-98091707D01*
X145371311Y-98106657D01*
X145382809Y-98125301D01*
X145394628Y-98144162D01*
X145400395Y-98153220D01*
X145409371Y-98167637D01*
X145421061Y-98187033D01*
X145433150Y-98207558D01*
X145434849Y-98210486D01*
X145447294Y-98230362D01*
X145456559Y-98241595D01*
X145462286Y-98243821D01*
X145469076Y-98239549D01*
X145482046Y-98231219D01*
X145498869Y-98220330D01*
X145506440Y-98215409D01*
X145571838Y-98177818D01*
X145640261Y-98148500D01*
X145713053Y-98127008D01*
X145791560Y-98112893D01*
X145824617Y-98109234D01*
X145894124Y-98106566D01*
X145965009Y-98110927D01*
X146035248Y-98121897D01*
X146102816Y-98139055D01*
X146165689Y-98161979D01*
X146221842Y-98190249D01*
X146225980Y-98192727D01*
X146297323Y-98241219D01*
X146360237Y-98295150D01*
X146415158Y-98354994D01*
X146462523Y-98421227D01*
X146502767Y-98494326D01*
X146502957Y-98494724D01*
X146511858Y-98515259D01*
X146521689Y-98541181D01*
X146531788Y-98570343D01*
X146541492Y-98600600D01*
X146550135Y-98629809D01*
X146557055Y-98655823D01*
X146561588Y-98676498D01*
X146563080Y-98689039D01*
X146560374Y-98701068D01*
X146555044Y-98706396D01*
X146547029Y-98707595D01*
X146531156Y-98708576D01*
X146509727Y-98709238D01*
X146485182Y-98709480D01*
X146423355Y-98709479D01*
X146402365Y-98654870D01*
X146385724Y-98612208D01*
X146371472Y-98577406D01*
X146358714Y-98548708D01*
X146346558Y-98524360D01*
X146334108Y-98502605D01*
X146320472Y-98481688D01*
X146304756Y-98459854D01*
X146299560Y-98452940D01*
X146268135Y-98417673D01*
X146228424Y-98383205D01*
X146182285Y-98350862D01*
X146131578Y-98321974D01*
X146088100Y-98301880D01*
X146025576Y-98278469D01*
X145968022Y-98262639D01*
X145913638Y-98254396D01*
X145860626Y-98253743D01*
X145807185Y-98260687D01*
X145751518Y-98275231D01*
X145691824Y-98297380D01*
X145678705Y-98302956D01*
X145646318Y-98317319D01*
X145620991Y-98329457D01*
X145600261Y-98340693D01*
X145581669Y-98352350D01*
X145564860Y-98364202D01*
X145515857Y-98403740D01*
X145473742Y-98445859D01*
X145437367Y-98492151D01*
X145405586Y-98544208D01*
X145377252Y-98603622D01*
X145359092Y-98649790D01*
X145337253Y-98709480D01*
X145273256Y-98709078D01*
X145248366Y-98708731D01*
X145226931Y-98708073D01*
X145211131Y-98707198D01*
X145203141Y-98706196D01*
X145202910Y-98706115D01*
X145197876Y-98699587D01*
X145196560Y-98692085D01*
X145197609Y-98682311D01*
X145200385Y-98665448D01*
X145204322Y-98644310D01*
X145208861Y-98621708D01*
X145213438Y-98600452D01*
X145217491Y-98583356D01*
X145220171Y-98574004D01*
X145228366Y-98553900D01*
X145240596Y-98527715D01*
X145255535Y-98498000D01*
X145271857Y-98467303D01*
X145288237Y-98438176D01*
X145303348Y-98413168D01*
X145305742Y-98409438D01*
X145321638Y-98384207D01*
X145331969Y-98365708D01*
X145337271Y-98352550D01*
X145338084Y-98343342D01*
X145334943Y-98336692D01*
X145334180Y-98335845D01*
X145330021Y-98329654D01*
X145322228Y-98316502D01*
X145311959Y-98298388D01*
X145301615Y-98279601D01*
X145242333Y-98180038D01*
X145177224Y-98088768D01*
X145106307Y-98005807D01*
X145029597Y-97931174D01*
X144947113Y-97864886D01*
X144858873Y-97806960D01*
X144794866Y-97771991D01*
X144778955Y-97764676D01*
X144757219Y-97755666D01*
X144731593Y-97745658D01*
X144704013Y-97735349D01*
X144676414Y-97725435D01*
X144650730Y-97716613D01*
X144628896Y-97709580D01*
X144612848Y-97705032D01*
X144605044Y-97703640D01*
X144599805Y-97708467D01*
X144593179Y-97722222D01*
X144585461Y-97743811D01*
X144576947Y-97772141D01*
X144567933Y-97806121D01*
X144558715Y-97844657D01*
X144549588Y-97886657D01*
X144540849Y-97931028D01*
X144535593Y-97960180D01*
X144533681Y-97975170D01*
X144531630Y-97998028D01*
X144529605Y-98026467D01*
X144527770Y-98058198D01*
X144526436Y-98087212D01*
X144524446Y-98129164D01*
X144521895Y-98162003D01*
X144518281Y-98186778D01*
X144513103Y-98204536D01*
X144505860Y-98216325D01*
X144496050Y-98223193D01*
X144483172Y-98226188D01*
X144466725Y-98226356D01*
X144460060Y-98225944D01*
X144443361Y-98222498D01*
X144431213Y-98213999D01*
X144422523Y-98198966D01*
X144416199Y-98175914D01*
X144413970Y-98163380D01*
X144410949Y-98128415D01*
X144411548Y-98084518D01*
X144415736Y-98032237D01*
X144423486Y-97972122D01*
X144424523Y-97965260D01*
X144429254Y-97934342D01*
X144434457Y-97900291D01*
X144439369Y-97868108D01*
X144441982Y-97850960D01*
X144449315Y-97810971D01*
X144459511Y-97766812D01*
X144471759Y-97721301D01*
X144485245Y-97677258D01*
X144499155Y-97637503D01*
X144512678Y-97604855D01*
X144513400Y-97603310D01*
X144535515Y-97556320D01*
X144573570Y-97556320D01*
X144638535Y-97560462D01*
G36*
X142808969Y-98125664D02*
G01*
X142821650Y-98127688D01*
X142850963Y-98133981D01*
X142877173Y-98142206D01*
X142902106Y-98153375D01*
X142927588Y-98168503D01*
X142955445Y-98188605D01*
X142987504Y-98214694D01*
X143004426Y-98229212D01*
X143044138Y-98262479D01*
X143081285Y-98290629D01*
X143117324Y-98314219D01*
X143153712Y-98333808D01*
X143191906Y-98349954D01*
X143233363Y-98363216D01*
X143279540Y-98374150D01*
X143331895Y-98383317D01*
X143391884Y-98391274D01*
X143441420Y-98396648D01*
X143483482Y-98400611D01*
X143533697Y-98404856D01*
X143590068Y-98409239D01*
X143650595Y-98413616D01*
X143713280Y-98417842D01*
X143776127Y-98421771D01*
X143835009Y-98425145D01*
X143931682Y-98432000D01*
X144034897Y-98442241D01*
X144141764Y-98455474D01*
X144249394Y-98471303D01*
X144354899Y-98489334D01*
X144455389Y-98509172D01*
X144465040Y-98511237D01*
X144489700Y-98516500D01*
X144515090Y-98521828D01*
X144536247Y-98526183D01*
X144538700Y-98526677D01*
X144568356Y-98533623D01*
X144603476Y-98543442D01*
X144642299Y-98555494D01*
X144683065Y-98569139D01*
X144724011Y-98583736D01*
X144763378Y-98598644D01*
X144799404Y-98613223D01*
X144830328Y-98626833D01*
X144854390Y-98638833D01*
X144865772Y-98645639D01*
X144880567Y-98657254D01*
X144892587Y-98669594D01*
X144896705Y-98675498D01*
X144901440Y-98685918D01*
X144899952Y-98692620D01*
X144892467Y-98699628D01*
X144888288Y-98702593D01*
X144883019Y-98704893D01*
X144875421Y-98706610D01*
X144864254Y-98707823D01*
X144848278Y-98708613D01*
X144826254Y-98709062D01*
X144796942Y-98709250D01*
X144759103Y-98709259D01*
X144745147Y-98709237D01*
X144703965Y-98709114D01*
X144671380Y-98708839D01*
X144645831Y-98708299D01*
X144625756Y-98707387D01*
X144609591Y-98705992D01*
X144595776Y-98704003D01*
X144582748Y-98701312D01*
X144568944Y-98697807D01*
X144564100Y-98696494D01*
X144488658Y-98676747D01*
X144412988Y-98658609D01*
X144339049Y-98642486D01*
X144268801Y-98628786D01*
X144204204Y-98617913D01*
X144149371Y-98610519D01*
X144123161Y-98607450D01*
X144089996Y-98603448D01*
X144052997Y-98598893D01*
X144015285Y-98594171D01*
X143987520Y-98590636D01*
X143906202Y-98580753D01*
X143818818Y-98571142D01*
X143728899Y-98562147D01*
X143639975Y-98554112D01*
X143555578Y-98547380D01*
X143512540Y-98544369D01*
X143439114Y-98539198D01*
X143374945Y-98533927D01*
X143319128Y-98528417D01*
X143270762Y-98522529D01*
X143228941Y-98516128D01*
X143192764Y-98509074D01*
X143161325Y-98501230D01*
X143133722Y-98492459D01*
X143109814Y-98482959D01*
X143086832Y-98471269D01*
X143058325Y-98454326D01*
X143026424Y-98433556D01*
X142993259Y-98410387D01*
X142960963Y-98386245D01*
X142938500Y-98368281D01*
X142890219Y-98330145D01*
X142847647Y-98300368D01*
X142810750Y-98278924D01*
X142802404Y-98274860D01*
X142780156Y-98266580D01*
X142757451Y-98262958D01*
X142732165Y-98264080D01*
X142702172Y-98270029D01*
X142667413Y-98280220D01*
X142644137Y-98287404D01*
X142623367Y-98293197D01*
X142607615Y-98296934D01*
X142600150Y-98297999D01*
X142589985Y-98294766D01*
X142574503Y-98285907D01*
X142555855Y-98272685D01*
X142552373Y-98269975D01*
X142531382Y-98253902D01*
X142508680Y-98237286D01*
X142488735Y-98223387D01*
X142486380Y-98221818D01*
X142465875Y-98208174D01*
X142453063Y-98198940D01*
X142447176Y-98192902D01*
X142447444Y-98188847D01*
X142453098Y-98185561D01*
X142461470Y-98182499D01*
X142543946Y-98156158D01*
X142620035Y-98137288D01*
X142689635Y-98125906D01*
X142752647Y-98122026D01*
X142808969Y-98125664D01*
G37*
X142808969Y-98125664D02*
X142821650Y-98127688D01*
X142850963Y-98133981D01*
X142877173Y-98142206D01*
X142902106Y-98153375D01*
X142927588Y-98168503D01*
X142955445Y-98188605D01*
X142987504Y-98214694D01*
X143004426Y-98229212D01*
X143044138Y-98262479D01*
X143081285Y-98290629D01*
X143117324Y-98314219D01*
X143153712Y-98333808D01*
X143191906Y-98349954D01*
X143233363Y-98363216D01*
X143279540Y-98374150D01*
X143331895Y-98383317D01*
X143391884Y-98391274D01*
X143441420Y-98396648D01*
X143483482Y-98400611D01*
X143533697Y-98404856D01*
X143590068Y-98409239D01*
X143650595Y-98413616D01*
X143713280Y-98417842D01*
X143776127Y-98421771D01*
X143835009Y-98425145D01*
X143931682Y-98432000D01*
X144034897Y-98442241D01*
X144141764Y-98455474D01*
X144249394Y-98471303D01*
X144354899Y-98489334D01*
X144455389Y-98509172D01*
X144465040Y-98511237D01*
X144489700Y-98516500D01*
X144515090Y-98521828D01*
X144536247Y-98526183D01*
X144538700Y-98526677D01*
X144568356Y-98533623D01*
X144603476Y-98543442D01*
X144642299Y-98555494D01*
X144683065Y-98569139D01*
X144724011Y-98583736D01*
X144763378Y-98598644D01*
X144799404Y-98613223D01*
X144830328Y-98626833D01*
X144854390Y-98638833D01*
X144865772Y-98645639D01*
X144880567Y-98657254D01*
X144892587Y-98669594D01*
X144896705Y-98675498D01*
X144901440Y-98685918D01*
X144899952Y-98692620D01*
X144892467Y-98699628D01*
X144888288Y-98702593D01*
X144883019Y-98704893D01*
X144875421Y-98706610D01*
X144864254Y-98707823D01*
X144848278Y-98708613D01*
X144826254Y-98709062D01*
X144796942Y-98709250D01*
X144759103Y-98709259D01*
X144745147Y-98709237D01*
X144703965Y-98709114D01*
X144671380Y-98708839D01*
X144645831Y-98708299D01*
X144625756Y-98707387D01*
X144609591Y-98705992D01*
X144595776Y-98704003D01*
X144582748Y-98701312D01*
X144568944Y-98697807D01*
X144564100Y-98696494D01*
X144488658Y-98676747D01*
X144412988Y-98658609D01*
X144339049Y-98642486D01*
X144268801Y-98628786D01*
X144204204Y-98617913D01*
X144149371Y-98610519D01*
X144123161Y-98607450D01*
X144089996Y-98603448D01*
X144052997Y-98598893D01*
X144015285Y-98594171D01*
X143987520Y-98590636D01*
X143906202Y-98580753D01*
X143818818Y-98571142D01*
X143728899Y-98562147D01*
X143639975Y-98554112D01*
X143555578Y-98547380D01*
X143512540Y-98544369D01*
X143439114Y-98539198D01*
X143374945Y-98533927D01*
X143319128Y-98528417D01*
X143270762Y-98522529D01*
X143228941Y-98516128D01*
X143192764Y-98509074D01*
X143161325Y-98501230D01*
X143133722Y-98492459D01*
X143109814Y-98482959D01*
X143086832Y-98471269D01*
X143058325Y-98454326D01*
X143026424Y-98433556D01*
X142993259Y-98410387D01*
X142960963Y-98386245D01*
X142938500Y-98368281D01*
X142890219Y-98330145D01*
X142847647Y-98300368D01*
X142810750Y-98278924D01*
X142802404Y-98274860D01*
X142780156Y-98266580D01*
X142757451Y-98262958D01*
X142732165Y-98264080D01*
X142702172Y-98270029D01*
X142667413Y-98280220D01*
X142644137Y-98287404D01*
X142623367Y-98293197D01*
X142607615Y-98296934D01*
X142600150Y-98297999D01*
X142589985Y-98294766D01*
X142574503Y-98285907D01*
X142555855Y-98272685D01*
X142552373Y-98269975D01*
X142531382Y-98253902D01*
X142508680Y-98237286D01*
X142488735Y-98223387D01*
X142486380Y-98221818D01*
X142465875Y-98208174D01*
X142453063Y-98198940D01*
X142447176Y-98192902D01*
X142447444Y-98188847D01*
X142453098Y-98185561D01*
X142461470Y-98182499D01*
X142543946Y-98156158D01*
X142620035Y-98137288D01*
X142689635Y-98125906D01*
X142752647Y-98122026D01*
X142808969Y-98125664D01*
G36*
X142071575Y-98107122D02*
G01*
X142153465Y-98117119D01*
X142231772Y-98136602D01*
X142306594Y-98165610D01*
X142378034Y-98204182D01*
X142446192Y-98252357D01*
X142511168Y-98310175D01*
X142511698Y-98310700D01*
X142562264Y-98365936D01*
X142606077Y-98424522D01*
X142642386Y-98485163D01*
X142670438Y-98546568D01*
X142689479Y-98607443D01*
X142692512Y-98621269D01*
X142698452Y-98653361D01*
X142701491Y-98676835D01*
X142701652Y-98692803D01*
X142698957Y-98702377D01*
X142694244Y-98706396D01*
X142686185Y-98707612D01*
X142670314Y-98708602D01*
X142648980Y-98709260D01*
X142626208Y-98709480D01*
X142597909Y-98709115D01*
X142578722Y-98707951D01*
X142567621Y-98705884D01*
X142563682Y-98703130D01*
X142543517Y-98652893D01*
X142526204Y-98610959D01*
X142511143Y-98576074D01*
X142497735Y-98546984D01*
X142485381Y-98522435D01*
X142473483Y-98501175D01*
X142461442Y-98481948D01*
X142450321Y-98465812D01*
X142414568Y-98423383D01*
X142370423Y-98383546D01*
X142319571Y-98347609D01*
X142263698Y-98316879D01*
X142250160Y-98310617D01*
X142185747Y-98284625D01*
X142126103Y-98266576D01*
X142069885Y-98256295D01*
X142015751Y-98253609D01*
X141962357Y-98258343D01*
X141918321Y-98267604D01*
X141891276Y-98275889D01*
X141858546Y-98287744D01*
X141823352Y-98301843D01*
X141788911Y-98316861D01*
X141758444Y-98331473D01*
X141742555Y-98339977D01*
X141717031Y-98356237D01*
X141688550Y-98377216D01*
X141659877Y-98400630D01*
X141633775Y-98424191D01*
X141613010Y-98445614D01*
X141608772Y-98450618D01*
X141592958Y-98471093D01*
X141576684Y-98493952D01*
X141561396Y-98516969D01*
X141548535Y-98537918D01*
X141539546Y-98554574D01*
X141536428Y-98562160D01*
X141532060Y-98573621D01*
X141524821Y-98589962D01*
X141518663Y-98602800D01*
X141510127Y-98622146D01*
X141501019Y-98646184D01*
X141493288Y-98669760D01*
X141493185Y-98670110D01*
X141481599Y-98709480D01*
X141417569Y-98708890D01*
X141392311Y-98708479D01*
X141370153Y-98707786D01*
X141353406Y-98706907D01*
X141344378Y-98705937D01*
X141344143Y-98705880D01*
X141338565Y-98703015D01*
X141336635Y-98696456D01*
X141337711Y-98683372D01*
X141338219Y-98679800D01*
X141342512Y-98659204D01*
X141350003Y-98631890D01*
X141359815Y-98600444D01*
X141371072Y-98567457D01*
X141382896Y-98535514D01*
X141394411Y-98507206D01*
X141403017Y-98488500D01*
X141442913Y-98418274D01*
X141489416Y-98353722D01*
X141541724Y-98295533D01*
X141599034Y-98244396D01*
X141660541Y-98201000D01*
X141725444Y-98166036D01*
X141792938Y-98140192D01*
X141816580Y-98133542D01*
X141852494Y-98124612D01*
X141881665Y-98118077D01*
X141907093Y-98113461D01*
X141931782Y-98110285D01*
X141958732Y-98108071D01*
X141986000Y-98106573D01*
X142071575Y-98107122D01*
G37*
X142071575Y-98107122D02*
X142153465Y-98117119D01*
X142231772Y-98136602D01*
X142306594Y-98165610D01*
X142378034Y-98204182D01*
X142446192Y-98252357D01*
X142511168Y-98310175D01*
X142511698Y-98310700D01*
X142562264Y-98365936D01*
X142606077Y-98424522D01*
X142642386Y-98485163D01*
X142670438Y-98546568D01*
X142689479Y-98607443D01*
X142692512Y-98621269D01*
X142698452Y-98653361D01*
X142701491Y-98676835D01*
X142701652Y-98692803D01*
X142698957Y-98702377D01*
X142694244Y-98706396D01*
X142686185Y-98707612D01*
X142670314Y-98708602D01*
X142648980Y-98709260D01*
X142626208Y-98709480D01*
X142597909Y-98709115D01*
X142578722Y-98707951D01*
X142567621Y-98705884D01*
X142563682Y-98703130D01*
X142543517Y-98652893D01*
X142526204Y-98610959D01*
X142511143Y-98576074D01*
X142497735Y-98546984D01*
X142485381Y-98522435D01*
X142473483Y-98501175D01*
X142461442Y-98481948D01*
X142450321Y-98465812D01*
X142414568Y-98423383D01*
X142370423Y-98383546D01*
X142319571Y-98347609D01*
X142263698Y-98316879D01*
X142250160Y-98310617D01*
X142185747Y-98284625D01*
X142126103Y-98266576D01*
X142069885Y-98256295D01*
X142015751Y-98253609D01*
X141962357Y-98258343D01*
X141918321Y-98267604D01*
X141891276Y-98275889D01*
X141858546Y-98287744D01*
X141823352Y-98301843D01*
X141788911Y-98316861D01*
X141758444Y-98331473D01*
X141742555Y-98339977D01*
X141717031Y-98356237D01*
X141688550Y-98377216D01*
X141659877Y-98400630D01*
X141633775Y-98424191D01*
X141613010Y-98445614D01*
X141608772Y-98450618D01*
X141592958Y-98471093D01*
X141576684Y-98493952D01*
X141561396Y-98516969D01*
X141548535Y-98537918D01*
X141539546Y-98554574D01*
X141536428Y-98562160D01*
X141532060Y-98573621D01*
X141524821Y-98589962D01*
X141518663Y-98602800D01*
X141510127Y-98622146D01*
X141501019Y-98646184D01*
X141493288Y-98669760D01*
X141493185Y-98670110D01*
X141481599Y-98709480D01*
X141417569Y-98708890D01*
X141392311Y-98708479D01*
X141370153Y-98707786D01*
X141353406Y-98706907D01*
X141344378Y-98705937D01*
X141344143Y-98705880D01*
X141338565Y-98703015D01*
X141336635Y-98696456D01*
X141337711Y-98683372D01*
X141338219Y-98679800D01*
X141342512Y-98659204D01*
X141350003Y-98631890D01*
X141359815Y-98600444D01*
X141371072Y-98567457D01*
X141382896Y-98535514D01*
X141394411Y-98507206D01*
X141403017Y-98488500D01*
X141442913Y-98418274D01*
X141489416Y-98353722D01*
X141541724Y-98295533D01*
X141599034Y-98244396D01*
X141660541Y-98201000D01*
X141725444Y-98166036D01*
X141792938Y-98140192D01*
X141816580Y-98133542D01*
X141852494Y-98124612D01*
X141881665Y-98118077D01*
X141907093Y-98113461D01*
X141931782Y-98110285D01*
X141958732Y-98108071D01*
X141986000Y-98106573D01*
X142071575Y-98107122D01*
G36*
X141358947Y-98472164D02*
G01*
X141361146Y-98475532D01*
X141361160Y-98475944D01*
X141359018Y-98482932D01*
X141353437Y-98495948D01*
X141346582Y-98510234D01*
X141338247Y-98527729D01*
X141331529Y-98543396D01*
X141328461Y-98552000D01*
X141324917Y-98562652D01*
X141318709Y-98579466D01*
X141311041Y-98599206D01*
X141309222Y-98603758D01*
X141301309Y-98622939D01*
X141295325Y-98634731D01*
X141289491Y-98641205D01*
X141282027Y-98644430D01*
X141272733Y-98646219D01*
X141260027Y-98649258D01*
X141240408Y-98655088D01*
X141216460Y-98662895D01*
X141190770Y-98671868D01*
X141188440Y-98672713D01*
X141161798Y-98682163D01*
X141135789Y-98690973D01*
X141113340Y-98698176D01*
X141097379Y-98702805D01*
X141097000Y-98702902D01*
X141080410Y-98705678D01*
X141055148Y-98708006D01*
X141022692Y-98709852D01*
X140984523Y-98711182D01*
X140942119Y-98711962D01*
X140896959Y-98712157D01*
X140850523Y-98711734D01*
X140804290Y-98710657D01*
X140787120Y-98710071D01*
X140758636Y-98708782D01*
X140733511Y-98707220D01*
X140713593Y-98705533D01*
X140700728Y-98703871D01*
X140696950Y-98702830D01*
X140691443Y-98693866D01*
X140691700Y-98680411D01*
X140697583Y-98666247D01*
X140698312Y-98665169D01*
X140707084Y-98658060D01*
X140724361Y-98649912D01*
X140750530Y-98640587D01*
X140785978Y-98629946D01*
X140828983Y-98618394D01*
X140843268Y-98614558D01*
X140865723Y-98608334D01*
X140894762Y-98600173D01*
X140928799Y-98590522D01*
X140966248Y-98579829D01*
X141005523Y-98568543D01*
X141017098Y-98565203D01*
X141054764Y-98554383D01*
X141089426Y-98544538D01*
X141119845Y-98536013D01*
X141144778Y-98529151D01*
X141162984Y-98524295D01*
X141173223Y-98521789D01*
X141174883Y-98521520D01*
X141181732Y-98520029D01*
X141196462Y-98515909D01*
X141217295Y-98509687D01*
X141242453Y-98501888D01*
X141260606Y-98496120D01*
X141295308Y-98485209D01*
X141321477Y-98477562D01*
X141340129Y-98472975D01*
X141352280Y-98471243D01*
X141358947Y-98472164D01*
G37*
X141358947Y-98472164D02*
X141361146Y-98475532D01*
X141361160Y-98475944D01*
X141359018Y-98482932D01*
X141353437Y-98495948D01*
X141346582Y-98510234D01*
X141338247Y-98527729D01*
X141331529Y-98543396D01*
X141328461Y-98552000D01*
X141324917Y-98562652D01*
X141318709Y-98579466D01*
X141311041Y-98599206D01*
X141309222Y-98603758D01*
X141301309Y-98622939D01*
X141295325Y-98634731D01*
X141289491Y-98641205D01*
X141282027Y-98644430D01*
X141272733Y-98646219D01*
X141260027Y-98649258D01*
X141240408Y-98655088D01*
X141216460Y-98662895D01*
X141190770Y-98671868D01*
X141188440Y-98672713D01*
X141161798Y-98682163D01*
X141135789Y-98690973D01*
X141113340Y-98698176D01*
X141097379Y-98702805D01*
X141097000Y-98702902D01*
X141080410Y-98705678D01*
X141055148Y-98708006D01*
X141022692Y-98709852D01*
X140984523Y-98711182D01*
X140942119Y-98711962D01*
X140896959Y-98712157D01*
X140850523Y-98711734D01*
X140804290Y-98710657D01*
X140787120Y-98710071D01*
X140758636Y-98708782D01*
X140733511Y-98707220D01*
X140713593Y-98705533D01*
X140700728Y-98703871D01*
X140696950Y-98702830D01*
X140691443Y-98693866D01*
X140691700Y-98680411D01*
X140697583Y-98666247D01*
X140698312Y-98665169D01*
X140707084Y-98658060D01*
X140724361Y-98649912D01*
X140750530Y-98640587D01*
X140785978Y-98629946D01*
X140828983Y-98618394D01*
X140843268Y-98614558D01*
X140865723Y-98608334D01*
X140894762Y-98600173D01*
X140928799Y-98590522D01*
X140966248Y-98579829D01*
X141005523Y-98568543D01*
X141017098Y-98565203D01*
X141054764Y-98554383D01*
X141089426Y-98544538D01*
X141119845Y-98536013D01*
X141144778Y-98529151D01*
X141162984Y-98524295D01*
X141173223Y-98521789D01*
X141174883Y-98521520D01*
X141181732Y-98520029D01*
X141196462Y-98515909D01*
X141217295Y-98509687D01*
X141242453Y-98501888D01*
X141260606Y-98496120D01*
X141295308Y-98485209D01*
X141321477Y-98477562D01*
X141340129Y-98472975D01*
X141352280Y-98471243D01*
X141358947Y-98472164D01*
G36*
X138490960Y-98724720D02*
G01*
X138840626Y-98724720D01*
X138856293Y-98704938D01*
X138871959Y-98685157D01*
X138871960Y-98440778D01*
X138871960Y-98196400D01*
X138945523Y-98196400D01*
X138974195Y-98196444D01*
X138994314Y-98196749D01*
X139007484Y-98197568D01*
X139015310Y-98199156D01*
X139019399Y-98201768D01*
X139021357Y-98205658D01*
X139022135Y-98208548D01*
X139022670Y-98215796D01*
X139023102Y-98232236D01*
X139023428Y-98256902D01*
X139023645Y-98288824D01*
X139023749Y-98327036D01*
X139023738Y-98370571D01*
X139023608Y-98418461D01*
X139023355Y-98469739D01*
X139023142Y-98501918D01*
X139022661Y-98563794D01*
X139022171Y-98616351D01*
X139021643Y-98660432D01*
X139021048Y-98696878D01*
X139020357Y-98726531D01*
X139019543Y-98750232D01*
X139018577Y-98768823D01*
X139017429Y-98783145D01*
X139016073Y-98794041D01*
X139014478Y-98802351D01*
X139012743Y-98808540D01*
X139000629Y-98837424D01*
X138985198Y-98862273D01*
X138968155Y-98880536D01*
X138961441Y-98885321D01*
X138958566Y-98886871D01*
X138954964Y-98888247D01*
X138950039Y-98889461D01*
X138943194Y-98890525D01*
X138933834Y-98891450D01*
X138921360Y-98892250D01*
X138905177Y-98892935D01*
X138884689Y-98893518D01*
X138859298Y-98894011D01*
X138828408Y-98894426D01*
X138791422Y-98894774D01*
X138747745Y-98895068D01*
X138696779Y-98895321D01*
X138637928Y-98895543D01*
X138570595Y-98895746D01*
X138494184Y-98895944D01*
X138424920Y-98896108D01*
X138340657Y-98896298D01*
X138265953Y-98896446D01*
X138200203Y-98896545D01*
X138142806Y-98896583D01*
X138093159Y-98896553D01*
X138050661Y-98896445D01*
X138014707Y-98896249D01*
X137984697Y-98895957D01*
X137960027Y-98895559D01*
X137940096Y-98895046D01*
X137924300Y-98894409D01*
X137912037Y-98893638D01*
X137902706Y-98892725D01*
X137895703Y-98891660D01*
X137890425Y-98890433D01*
X137886272Y-98889037D01*
X137883397Y-98887810D01*
X137867260Y-98877825D01*
X137853309Y-98864962D01*
X137850824Y-98861802D01*
X137845438Y-98853893D01*
X137840813Y-98845884D01*
X137836885Y-98836961D01*
X137833592Y-98826314D01*
X137830868Y-98813128D01*
X137828650Y-98796592D01*
X137826874Y-98775893D01*
X137825476Y-98750219D01*
X137824392Y-98718758D01*
X137823558Y-98680696D01*
X137822910Y-98635221D01*
X137822384Y-98581521D01*
X137821917Y-98518784D01*
X137821740Y-98492310D01*
X137819804Y-98196400D01*
X137893622Y-98196399D01*
X137967440Y-98196399D01*
X137968850Y-98444050D01*
X137970260Y-98691700D01*
X137982035Y-98708210D01*
X137993811Y-98724720D01*
X138343548Y-98724720D01*
X138346180Y-98198940D01*
X138418570Y-98197530D01*
X138490960Y-98196121D01*
X138490960Y-98724720D01*
G37*
X138490960Y-98724720D02*
X138840626Y-98724720D01*
X138856293Y-98704938D01*
X138871959Y-98685157D01*
X138871960Y-98440778D01*
X138871960Y-98196400D01*
X138945523Y-98196400D01*
X138974195Y-98196444D01*
X138994314Y-98196749D01*
X139007484Y-98197568D01*
X139015310Y-98199156D01*
X139019399Y-98201768D01*
X139021357Y-98205658D01*
X139022135Y-98208548D01*
X139022670Y-98215796D01*
X139023102Y-98232236D01*
X139023428Y-98256902D01*
X139023645Y-98288824D01*
X139023749Y-98327036D01*
X139023738Y-98370571D01*
X139023608Y-98418461D01*
X139023355Y-98469739D01*
X139023142Y-98501918D01*
X139022661Y-98563794D01*
X139022171Y-98616351D01*
X139021643Y-98660432D01*
X139021048Y-98696878D01*
X139020357Y-98726531D01*
X139019543Y-98750232D01*
X139018577Y-98768823D01*
X139017429Y-98783145D01*
X139016073Y-98794041D01*
X139014478Y-98802351D01*
X139012743Y-98808540D01*
X139000629Y-98837424D01*
X138985198Y-98862273D01*
X138968155Y-98880536D01*
X138961441Y-98885321D01*
X138958566Y-98886871D01*
X138954964Y-98888247D01*
X138950039Y-98889461D01*
X138943194Y-98890525D01*
X138933834Y-98891450D01*
X138921360Y-98892250D01*
X138905177Y-98892935D01*
X138884689Y-98893518D01*
X138859298Y-98894011D01*
X138828408Y-98894426D01*
X138791422Y-98894774D01*
X138747745Y-98895068D01*
X138696779Y-98895321D01*
X138637928Y-98895543D01*
X138570595Y-98895746D01*
X138494184Y-98895944D01*
X138424920Y-98896108D01*
X138340657Y-98896298D01*
X138265953Y-98896446D01*
X138200203Y-98896545D01*
X138142806Y-98896583D01*
X138093159Y-98896553D01*
X138050661Y-98896445D01*
X138014707Y-98896249D01*
X137984697Y-98895957D01*
X137960027Y-98895559D01*
X137940096Y-98895046D01*
X137924300Y-98894409D01*
X137912037Y-98893638D01*
X137902706Y-98892725D01*
X137895703Y-98891660D01*
X137890425Y-98890433D01*
X137886272Y-98889037D01*
X137883397Y-98887810D01*
X137867260Y-98877825D01*
X137853309Y-98864962D01*
X137850824Y-98861802D01*
X137845438Y-98853893D01*
X137840813Y-98845884D01*
X137836885Y-98836961D01*
X137833592Y-98826314D01*
X137830868Y-98813128D01*
X137828650Y-98796592D01*
X137826874Y-98775893D01*
X137825476Y-98750219D01*
X137824392Y-98718758D01*
X137823558Y-98680696D01*
X137822910Y-98635221D01*
X137822384Y-98581521D01*
X137821917Y-98518784D01*
X137821740Y-98492310D01*
X137819804Y-98196400D01*
X137893622Y-98196399D01*
X137967440Y-98196399D01*
X137968850Y-98444050D01*
X137970260Y-98691700D01*
X137982035Y-98708210D01*
X137993811Y-98724720D01*
X138343548Y-98724720D01*
X138346180Y-98198940D01*
X138418570Y-98197530D01*
X138490960Y-98196121D01*
X138490960Y-98724720D01*
G36*
X137158751Y-98196418D02*
G01*
X137239142Y-98196479D01*
X137310420Y-98196588D01*
X137373106Y-98196751D01*
X137427725Y-98196974D01*
X137474800Y-98197265D01*
X137514852Y-98197628D01*
X137548406Y-98198071D01*
X137575984Y-98198599D01*
X137598110Y-98199219D01*
X137615306Y-98199937D01*
X137628096Y-98200759D01*
X137637002Y-98201691D01*
X137642548Y-98202740D01*
X137644112Y-98203263D01*
X137662956Y-98215336D01*
X137680593Y-98233751D01*
X137693897Y-98254876D01*
X137698174Y-98266111D01*
X137699776Y-98276975D01*
X137701173Y-98296362D01*
X137702302Y-98322634D01*
X137703098Y-98354154D01*
X137703497Y-98389285D01*
X137703531Y-98402487D01*
X137703307Y-98447748D01*
X137702446Y-98484182D01*
X137700703Y-98513114D01*
X137697832Y-98535871D01*
X137693587Y-98553777D01*
X137687723Y-98568159D01*
X137679993Y-98580342D01*
X137670152Y-98591652D01*
X137668065Y-98593770D01*
X137648875Y-98612960D01*
X136647080Y-98612960D01*
X136644380Y-98894900D01*
X136509760Y-98897734D01*
X136509760Y-98460560D01*
X136646920Y-98460560D01*
X137535016Y-98460560D01*
X137548168Y-98444930D01*
X137558931Y-98426451D01*
X137559833Y-98407695D01*
X137550860Y-98387742D01*
X137547350Y-98382823D01*
X137533380Y-98364410D01*
X136646920Y-98364040D01*
X136646920Y-98460560D01*
X136509760Y-98460560D01*
X136509760Y-98196400D01*
X137068723Y-98196400D01*
X137158751Y-98196418D01*
G37*
X137158751Y-98196418D02*
X137239142Y-98196479D01*
X137310420Y-98196588D01*
X137373106Y-98196751D01*
X137427725Y-98196974D01*
X137474800Y-98197265D01*
X137514852Y-98197628D01*
X137548406Y-98198071D01*
X137575984Y-98198599D01*
X137598110Y-98199219D01*
X137615306Y-98199937D01*
X137628096Y-98200759D01*
X137637002Y-98201691D01*
X137642548Y-98202740D01*
X137644112Y-98203263D01*
X137662956Y-98215336D01*
X137680593Y-98233751D01*
X137693897Y-98254876D01*
X137698174Y-98266111D01*
X137699776Y-98276975D01*
X137701173Y-98296362D01*
X137702302Y-98322634D01*
X137703098Y-98354154D01*
X137703497Y-98389285D01*
X137703531Y-98402487D01*
X137703307Y-98447748D01*
X137702446Y-98484182D01*
X137700703Y-98513114D01*
X137697832Y-98535871D01*
X137693587Y-98553777D01*
X137687723Y-98568159D01*
X137679993Y-98580342D01*
X137670152Y-98591652D01*
X137668065Y-98593770D01*
X137648875Y-98612960D01*
X136647080Y-98612960D01*
X136644380Y-98894900D01*
X136509760Y-98897734D01*
X136509760Y-98460560D01*
X136646920Y-98460560D01*
X137535016Y-98460560D01*
X137548168Y-98444930D01*
X137558931Y-98426451D01*
X137559833Y-98407695D01*
X137550860Y-98387742D01*
X137547350Y-98382823D01*
X137533380Y-98364410D01*
X136646920Y-98364040D01*
X136646920Y-98460560D01*
X136509760Y-98460560D01*
X136509760Y-98196400D01*
X137068723Y-98196400D01*
X137158751Y-98196418D01*
G36*
X147152360Y-99034600D02*
G01*
X146639280Y-99034600D01*
X146555769Y-99034604D01*
X146481824Y-99034626D01*
X146416851Y-99034676D01*
X146360254Y-99034764D01*
X146311439Y-99034903D01*
X146269812Y-99035102D01*
X146234779Y-99035374D01*
X146205745Y-99035729D01*
X146182115Y-99036178D01*
X146163296Y-99036732D01*
X146148693Y-99037403D01*
X146137710Y-99038201D01*
X146129755Y-99039137D01*
X146124233Y-99040222D01*
X146120548Y-99041468D01*
X146118107Y-99042885D01*
X146116492Y-99044307D01*
X146111747Y-99050975D01*
X146107981Y-99061113D01*
X146105122Y-99075697D01*
X146103095Y-99095704D01*
X146101827Y-99122112D01*
X146101243Y-99155899D01*
X146101271Y-99198040D01*
X146101710Y-99240340D01*
X146102298Y-99279235D01*
X146102965Y-99309301D01*
X146103820Y-99331872D01*
X146104973Y-99348277D01*
X146106530Y-99359850D01*
X146108602Y-99367921D01*
X146111298Y-99373822D01*
X146112814Y-99376230D01*
X146122288Y-99390200D01*
X146978736Y-99390200D01*
X146991888Y-99374570D01*
X146998854Y-99365045D01*
X147002834Y-99355044D01*
X147004629Y-99341318D01*
X147005040Y-99321230D01*
X147005040Y-99283520D01*
X146400520Y-99283520D01*
X146400520Y-99131120D01*
X147152862Y-99131120D01*
X147151341Y-99302707D01*
X147149820Y-99474295D01*
X147132040Y-99509717D01*
X147121503Y-99529229D01*
X147112188Y-99542016D01*
X147101702Y-99550851D01*
X147091593Y-99556570D01*
X147068927Y-99568000D01*
X146553113Y-99567888D01*
X146469274Y-99567864D01*
X146394989Y-99567823D01*
X146329652Y-99567754D01*
X146272657Y-99567646D01*
X146223398Y-99567488D01*
X146181269Y-99567269D01*
X146145664Y-99566978D01*
X146115976Y-99566604D01*
X146091601Y-99566136D01*
X146071932Y-99565564D01*
X146056363Y-99564875D01*
X146044288Y-99564060D01*
X146035100Y-99563106D01*
X146028195Y-99562004D01*
X146022965Y-99560742D01*
X146018806Y-99559310D01*
X146016106Y-99558154D01*
X146002096Y-99550560D01*
X145991409Y-99541022D01*
X145982438Y-99527330D01*
X145973573Y-99507271D01*
X145967829Y-99491800D01*
X145965128Y-99484077D01*
X145962873Y-99476703D01*
X145961025Y-99468722D01*
X145959544Y-99459176D01*
X145958388Y-99447111D01*
X145957517Y-99431569D01*
X145956891Y-99411595D01*
X145956469Y-99386232D01*
X145956212Y-99354525D01*
X145956078Y-99315516D01*
X145956027Y-99268249D01*
X145956020Y-99212400D01*
X145956096Y-99150385D01*
X145956336Y-99097881D01*
X145956755Y-99054237D01*
X145957369Y-99018805D01*
X145958192Y-98990936D01*
X145959240Y-98969981D01*
X145960529Y-98955290D01*
X145962074Y-98946214D01*
X145962359Y-98945197D01*
X145975013Y-98916276D01*
X145993206Y-98891551D01*
X146005921Y-98880127D01*
X146008247Y-98878476D01*
X146010897Y-98877005D01*
X146014442Y-98875701D01*
X146019452Y-98874552D01*
X146026496Y-98873547D01*
X146036144Y-98872674D01*
X146048965Y-98871922D01*
X146065531Y-98871277D01*
X146086409Y-98870730D01*
X146112171Y-98870268D01*
X146143386Y-98869879D01*
X146180624Y-98869551D01*
X146224455Y-98869273D01*
X146275447Y-98869034D01*
X146334172Y-98868820D01*
X146401199Y-98868622D01*
X146477098Y-98868426D01*
X146562439Y-98868221D01*
X146586311Y-98868164D01*
X147152360Y-98866829D01*
X147152360Y-99034600D01*
G37*
X147152360Y-99034600D02*
X146639280Y-99034600D01*
X146555769Y-99034604D01*
X146481824Y-99034626D01*
X146416851Y-99034676D01*
X146360254Y-99034764D01*
X146311439Y-99034903D01*
X146269812Y-99035102D01*
X146234779Y-99035374D01*
X146205745Y-99035729D01*
X146182115Y-99036178D01*
X146163296Y-99036732D01*
X146148693Y-99037403D01*
X146137710Y-99038201D01*
X146129755Y-99039137D01*
X146124233Y-99040222D01*
X146120548Y-99041468D01*
X146118107Y-99042885D01*
X146116492Y-99044307D01*
X146111747Y-99050975D01*
X146107981Y-99061113D01*
X146105122Y-99075697D01*
X146103095Y-99095704D01*
X146101827Y-99122112D01*
X146101243Y-99155899D01*
X146101271Y-99198040D01*
X146101710Y-99240340D01*
X146102298Y-99279235D01*
X146102965Y-99309301D01*
X146103820Y-99331872D01*
X146104973Y-99348277D01*
X146106530Y-99359850D01*
X146108602Y-99367921D01*
X146111298Y-99373822D01*
X146112814Y-99376230D01*
X146122288Y-99390200D01*
X146978736Y-99390200D01*
X146991888Y-99374570D01*
X146998854Y-99365045D01*
X147002834Y-99355044D01*
X147004629Y-99341318D01*
X147005040Y-99321230D01*
X147005040Y-99283520D01*
X146400520Y-99283520D01*
X146400520Y-99131120D01*
X147152862Y-99131120D01*
X147151341Y-99302707D01*
X147149820Y-99474295D01*
X147132040Y-99509717D01*
X147121503Y-99529229D01*
X147112188Y-99542016D01*
X147101702Y-99550851D01*
X147091593Y-99556570D01*
X147068927Y-99568000D01*
X146553113Y-99567888D01*
X146469274Y-99567864D01*
X146394989Y-99567823D01*
X146329652Y-99567754D01*
X146272657Y-99567646D01*
X146223398Y-99567488D01*
X146181269Y-99567269D01*
X146145664Y-99566978D01*
X146115976Y-99566604D01*
X146091601Y-99566136D01*
X146071932Y-99565564D01*
X146056363Y-99564875D01*
X146044288Y-99564060D01*
X146035100Y-99563106D01*
X146028195Y-99562004D01*
X146022965Y-99560742D01*
X146018806Y-99559310D01*
X146016106Y-99558154D01*
X146002096Y-99550560D01*
X145991409Y-99541022D01*
X145982438Y-99527330D01*
X145973573Y-99507271D01*
X145967829Y-99491800D01*
X145965128Y-99484077D01*
X145962873Y-99476703D01*
X145961025Y-99468722D01*
X145959544Y-99459176D01*
X145958388Y-99447111D01*
X145957517Y-99431569D01*
X145956891Y-99411595D01*
X145956469Y-99386232D01*
X145956212Y-99354525D01*
X145956078Y-99315516D01*
X145956027Y-99268249D01*
X145956020Y-99212400D01*
X145956096Y-99150385D01*
X145956336Y-99097881D01*
X145956755Y-99054237D01*
X145957369Y-99018805D01*
X145958192Y-98990936D01*
X145959240Y-98969981D01*
X145960529Y-98955290D01*
X145962074Y-98946214D01*
X145962359Y-98945197D01*
X145975013Y-98916276D01*
X145993206Y-98891551D01*
X146005921Y-98880127D01*
X146008247Y-98878476D01*
X146010897Y-98877005D01*
X146014442Y-98875701D01*
X146019452Y-98874552D01*
X146026496Y-98873547D01*
X146036144Y-98872674D01*
X146048965Y-98871922D01*
X146065531Y-98871277D01*
X146086409Y-98870730D01*
X146112171Y-98870268D01*
X146143386Y-98869879D01*
X146180624Y-98869551D01*
X146224455Y-98869273D01*
X146275447Y-98869034D01*
X146334172Y-98868820D01*
X146401199Y-98868622D01*
X146477098Y-98868426D01*
X146562439Y-98868221D01*
X146586311Y-98868164D01*
X147152360Y-98866829D01*
X147152360Y-99034600D01*
G36*
X145157467Y-98866973D02*
G01*
X145235427Y-98866988D01*
X145327349Y-98867045D01*
X145411213Y-98867203D01*
X145486791Y-98867462D01*
X145553859Y-98867817D01*
X145612188Y-98868268D01*
X145661552Y-98868812D01*
X145701726Y-98869447D01*
X145732481Y-98870170D01*
X145753593Y-98870980D01*
X145764833Y-98871874D01*
X145766162Y-98872133D01*
X145788917Y-98883346D01*
X145808835Y-98903741D01*
X145825964Y-98933000D01*
X145839180Y-98960940D01*
X145839180Y-99565460D01*
X145696940Y-99565460D01*
X145694400Y-99319080D01*
X145693801Y-99269814D01*
X145693066Y-99223523D01*
X145692221Y-99181224D01*
X145691295Y-99143933D01*
X145690317Y-99112667D01*
X145689315Y-99088445D01*
X145688318Y-99072284D01*
X145687354Y-99065200D01*
X145687294Y-99065080D01*
X145680574Y-99055737D01*
X145672438Y-99046030D01*
X145662148Y-99034600D01*
X144822411Y-99034600D01*
X144812121Y-99046030D01*
X144803048Y-99056938D01*
X144797265Y-99065080D01*
X144796304Y-99071549D01*
X144795308Y-99087161D01*
X144794306Y-99110899D01*
X144793325Y-99141744D01*
X144792395Y-99178681D01*
X144791544Y-99220691D01*
X144790801Y-99266757D01*
X144790193Y-99315863D01*
X144790160Y-99319080D01*
X144787620Y-99565460D01*
X144714969Y-99566871D01*
X144642319Y-99568282D01*
X144644188Y-99267151D01*
X144644616Y-99200961D01*
X144645061Y-99144126D01*
X144645589Y-99095841D01*
X144646266Y-99055301D01*
X144647157Y-99021702D01*
X144648329Y-98994239D01*
X144649848Y-98972106D01*
X144651780Y-98954499D01*
X144654189Y-98940614D01*
X144657144Y-98929644D01*
X144660709Y-98920786D01*
X144664950Y-98913234D01*
X144669933Y-98906184D01*
X144674207Y-98900730D01*
X144678312Y-98895338D01*
X144681919Y-98890551D01*
X144685623Y-98886332D01*
X144690018Y-98882646D01*
X144695701Y-98879458D01*
X144703265Y-98876731D01*
X144713307Y-98874429D01*
X144726421Y-98872518D01*
X144743202Y-98870960D01*
X144764246Y-98869721D01*
X144790148Y-98868765D01*
X144821503Y-98868055D01*
X144858905Y-98867556D01*
X144902951Y-98867232D01*
X144954235Y-98867047D01*
X145013352Y-98866967D01*
X145080898Y-98866954D01*
X145157467Y-98866973D01*
G37*
X145157467Y-98866973D02*
X145235427Y-98866988D01*
X145327349Y-98867045D01*
X145411213Y-98867203D01*
X145486791Y-98867462D01*
X145553859Y-98867817D01*
X145612188Y-98868268D01*
X145661552Y-98868812D01*
X145701726Y-98869447D01*
X145732481Y-98870170D01*
X145753593Y-98870980D01*
X145764833Y-98871874D01*
X145766162Y-98872133D01*
X145788917Y-98883346D01*
X145808835Y-98903741D01*
X145825964Y-98933000D01*
X145839180Y-98960940D01*
X145839180Y-99565460D01*
X145696940Y-99565460D01*
X145694400Y-99319080D01*
X145693801Y-99269814D01*
X145693066Y-99223523D01*
X145692221Y-99181224D01*
X145691295Y-99143933D01*
X145690317Y-99112667D01*
X145689315Y-99088445D01*
X145688318Y-99072284D01*
X145687354Y-99065200D01*
X145687294Y-99065080D01*
X145680574Y-99055737D01*
X145672438Y-99046030D01*
X145662148Y-99034600D01*
X144822411Y-99034600D01*
X144812121Y-99046030D01*
X144803048Y-99056938D01*
X144797265Y-99065080D01*
X144796304Y-99071549D01*
X144795308Y-99087161D01*
X144794306Y-99110899D01*
X144793325Y-99141744D01*
X144792395Y-99178681D01*
X144791544Y-99220691D01*
X144790801Y-99266757D01*
X144790193Y-99315863D01*
X144790160Y-99319080D01*
X144787620Y-99565460D01*
X144714969Y-99566871D01*
X144642319Y-99568282D01*
X144644188Y-99267151D01*
X144644616Y-99200961D01*
X144645061Y-99144126D01*
X144645589Y-99095841D01*
X144646266Y-99055301D01*
X144647157Y-99021702D01*
X144648329Y-98994239D01*
X144649848Y-98972106D01*
X144651780Y-98954499D01*
X144654189Y-98940614D01*
X144657144Y-98929644D01*
X144660709Y-98920786D01*
X144664950Y-98913234D01*
X144669933Y-98906184D01*
X144674207Y-98900730D01*
X144678312Y-98895338D01*
X144681919Y-98890551D01*
X144685623Y-98886332D01*
X144690018Y-98882646D01*
X144695701Y-98879458D01*
X144703265Y-98876731D01*
X144713307Y-98874429D01*
X144726421Y-98872518D01*
X144743202Y-98870960D01*
X144764246Y-98869721D01*
X144790148Y-98868765D01*
X144821503Y-98868055D01*
X144858905Y-98867556D01*
X144902951Y-98867232D01*
X144954235Y-98867047D01*
X145013352Y-98866967D01*
X145080898Y-98866954D01*
X145157467Y-98866973D01*
G36*
X144526000Y-99034600D02*
G01*
X143997680Y-99034600D01*
X143997680Y-99385120D01*
X144526234Y-99385120D01*
X144523460Y-99565460D01*
X143925290Y-99566750D01*
X143327120Y-99568041D01*
X143327120Y-99385120D01*
X143850360Y-99385120D01*
X143850360Y-99034600D01*
X143327120Y-99034600D01*
X143327120Y-98872040D01*
X144526000Y-98872040D01*
X144526000Y-99034600D01*
G37*
X144526000Y-99034600D02*
X143997680Y-99034600D01*
X143997680Y-99385120D01*
X144526234Y-99385120D01*
X144523460Y-99565460D01*
X143925290Y-99566750D01*
X143327120Y-99568041D01*
X143327120Y-99385120D01*
X143850360Y-99385120D01*
X143850360Y-99034600D01*
X143327120Y-99034600D01*
X143327120Y-98872040D01*
X144526000Y-98872040D01*
X144526000Y-99034600D01*
G36*
X143210280Y-99039680D02*
G01*
X142180420Y-99039680D01*
X142172110Y-99061439D01*
X142169481Y-99069846D01*
X142167452Y-99080481D01*
X142165951Y-99094660D01*
X142164906Y-99113698D01*
X142164247Y-99138911D01*
X142163902Y-99171612D01*
X142163800Y-99213117D01*
X142163800Y-99214520D01*
X142164056Y-99262372D01*
X142164812Y-99301938D01*
X142166050Y-99332739D01*
X142167751Y-99354300D01*
X142169684Y-99365480D01*
X142175568Y-99385120D01*
X143210280Y-99385120D01*
X143210280Y-99568000D01*
X142655290Y-99567613D01*
X142563232Y-99567523D01*
X142480875Y-99567385D01*
X142407757Y-99567194D01*
X142343420Y-99566944D01*
X142287403Y-99566629D01*
X142239247Y-99566246D01*
X142198491Y-99565787D01*
X142164675Y-99565248D01*
X142137341Y-99564624D01*
X142116027Y-99563908D01*
X142100274Y-99563097D01*
X142089621Y-99562183D01*
X142083610Y-99561163D01*
X142082939Y-99560951D01*
X142062810Y-99548870D01*
X142044358Y-99528811D01*
X142029358Y-99502957D01*
X142023504Y-99487924D01*
X142021298Y-99480598D01*
X142019458Y-99472615D01*
X142017951Y-99463029D01*
X142016744Y-99450894D01*
X142015804Y-99435263D01*
X142015099Y-99415190D01*
X142014595Y-99389729D01*
X142014260Y-99357934D01*
X142014061Y-99318859D01*
X142013965Y-99271558D01*
X142013940Y-99215084D01*
X142013940Y-99212400D01*
X142013960Y-99153315D01*
X142014074Y-99103473D01*
X142014363Y-99061958D01*
X142014906Y-99027853D01*
X142015786Y-99000240D01*
X142017081Y-98978204D01*
X142018873Y-98960827D01*
X142021243Y-98947192D01*
X142024270Y-98936384D01*
X142028035Y-98927484D01*
X142032619Y-98919577D01*
X142038102Y-98911745D01*
X142040649Y-98908317D01*
X142053826Y-98895066D01*
X142070439Y-98883691D01*
X142074310Y-98881758D01*
X142077919Y-98880270D01*
X142082206Y-98878946D01*
X142087751Y-98877776D01*
X142095136Y-98876750D01*
X142104940Y-98875858D01*
X142117744Y-98875092D01*
X142134129Y-98874441D01*
X142154676Y-98873896D01*
X142179965Y-98873447D01*
X142210576Y-98873085D01*
X142247090Y-98872799D01*
X142290088Y-98872580D01*
X142340151Y-98872419D01*
X142397859Y-98872306D01*
X142463792Y-98872231D01*
X142538531Y-98872185D01*
X142622657Y-98872158D01*
X142652750Y-98872151D01*
X143210280Y-98872040D01*
X143210280Y-99039680D01*
G37*
X143210280Y-99039680D02*
X142180420Y-99039680D01*
X142172110Y-99061439D01*
X142169481Y-99069846D01*
X142167452Y-99080481D01*
X142165951Y-99094660D01*
X142164906Y-99113698D01*
X142164247Y-99138911D01*
X142163902Y-99171612D01*
X142163800Y-99213117D01*
X142163800Y-99214520D01*
X142164056Y-99262372D01*
X142164812Y-99301938D01*
X142166050Y-99332739D01*
X142167751Y-99354300D01*
X142169684Y-99365480D01*
X142175568Y-99385120D01*
X143210280Y-99385120D01*
X143210280Y-99568000D01*
X142655290Y-99567613D01*
X142563232Y-99567523D01*
X142480875Y-99567385D01*
X142407757Y-99567194D01*
X142343420Y-99566944D01*
X142287403Y-99566629D01*
X142239247Y-99566246D01*
X142198491Y-99565787D01*
X142164675Y-99565248D01*
X142137341Y-99564624D01*
X142116027Y-99563908D01*
X142100274Y-99563097D01*
X142089621Y-99562183D01*
X142083610Y-99561163D01*
X142082939Y-99560951D01*
X142062810Y-99548870D01*
X142044358Y-99528811D01*
X142029358Y-99502957D01*
X142023504Y-99487924D01*
X142021298Y-99480598D01*
X142019458Y-99472615D01*
X142017951Y-99463029D01*
X142016744Y-99450894D01*
X142015804Y-99435263D01*
X142015099Y-99415190D01*
X142014595Y-99389729D01*
X142014260Y-99357934D01*
X142014061Y-99318859D01*
X142013965Y-99271558D01*
X142013940Y-99215084D01*
X142013940Y-99212400D01*
X142013960Y-99153315D01*
X142014074Y-99103473D01*
X142014363Y-99061958D01*
X142014906Y-99027853D01*
X142015786Y-99000240D01*
X142017081Y-98978204D01*
X142018873Y-98960827D01*
X142021243Y-98947192D01*
X142024270Y-98936384D01*
X142028035Y-98927484D01*
X142032619Y-98919577D01*
X142038102Y-98911745D01*
X142040649Y-98908317D01*
X142053826Y-98895066D01*
X142070439Y-98883691D01*
X142074310Y-98881758D01*
X142077919Y-98880270D01*
X142082206Y-98878946D01*
X142087751Y-98877776D01*
X142095136Y-98876750D01*
X142104940Y-98875858D01*
X142117744Y-98875092D01*
X142134129Y-98874441D01*
X142154676Y-98873896D01*
X142179965Y-98873447D01*
X142210576Y-98873085D01*
X142247090Y-98872799D01*
X142290088Y-98872580D01*
X142340151Y-98872419D01*
X142397859Y-98872306D01*
X142463792Y-98872231D01*
X142538531Y-98872185D01*
X142622657Y-98872158D01*
X142652750Y-98872151D01*
X143210280Y-98872040D01*
X143210280Y-99039680D01*
G36*
X141245708Y-98872035D02*
G01*
X141306348Y-98872040D01*
X141390382Y-98872053D01*
X141464849Y-98872101D01*
X141530343Y-98872192D01*
X141587456Y-98872334D01*
X141636783Y-98872537D01*
X141678916Y-98872809D01*
X141714448Y-98873160D01*
X141743973Y-98873597D01*
X141768084Y-98874130D01*
X141787375Y-98874769D01*
X141802438Y-98875521D01*
X141813866Y-98876395D01*
X141822254Y-98877401D01*
X141828194Y-98878547D01*
X141832280Y-98879843D01*
X141832423Y-98879902D01*
X141857113Y-98894075D01*
X141875745Y-98914311D01*
X141886282Y-98933000D01*
X141888524Y-98937963D01*
X141890437Y-98943183D01*
X141892053Y-98949473D01*
X141893401Y-98957647D01*
X141894512Y-98968519D01*
X141895416Y-98982901D01*
X141896143Y-99001608D01*
X141896724Y-99025452D01*
X141897190Y-99055248D01*
X141897570Y-99091808D01*
X141897895Y-99135947D01*
X141898195Y-99188478D01*
X141898501Y-99250213D01*
X141898557Y-99261930D01*
X141900015Y-99568000D01*
X141752320Y-99568000D01*
X141752320Y-99288600D01*
X140843000Y-99288600D01*
X140843000Y-99568000D01*
X140700760Y-99568000D01*
X140700760Y-99269184D01*
X140700766Y-99203419D01*
X140700837Y-99147009D01*
X140701034Y-99101391D01*
X140843000Y-99101391D01*
X140843000Y-99126040D01*
X141752320Y-99126040D01*
X141752320Y-99101797D01*
X141750679Y-99083465D01*
X141744339Y-99068866D01*
X141736686Y-99058588D01*
X141721052Y-99039622D01*
X141293658Y-99040921D01*
X140866263Y-99042220D01*
X140854631Y-99059481D01*
X140845359Y-99080000D01*
X140843000Y-99101391D01*
X140701034Y-99101391D01*
X140701044Y-99099151D01*
X140701462Y-99059039D01*
X140702166Y-99025870D01*
X140703228Y-98998839D01*
X140704723Y-98977142D01*
X140706725Y-98959975D01*
X140709308Y-98946532D01*
X140712546Y-98936010D01*
X140716512Y-98927605D01*
X140721280Y-98920512D01*
X140726925Y-98913926D01*
X140733521Y-98907044D01*
X140734099Y-98906449D01*
X140739283Y-98900981D01*
X140743997Y-98896125D01*
X140748843Y-98891843D01*
X140754420Y-98888100D01*
X140761330Y-98884859D01*
X140770172Y-98882085D01*
X140781549Y-98879742D01*
X140796060Y-98877792D01*
X140814306Y-98876201D01*
X140836887Y-98874932D01*
X140864405Y-98873948D01*
X140897460Y-98873214D01*
X140936653Y-98872694D01*
X140982585Y-98872352D01*
X141035855Y-98872151D01*
X141097066Y-98872055D01*
X141166816Y-98872028D01*
X141245708Y-98872035D01*
G37*
X141245708Y-98872035D02*
X141306348Y-98872040D01*
X141390382Y-98872053D01*
X141464849Y-98872101D01*
X141530343Y-98872192D01*
X141587456Y-98872334D01*
X141636783Y-98872537D01*
X141678916Y-98872809D01*
X141714448Y-98873160D01*
X141743973Y-98873597D01*
X141768084Y-98874130D01*
X141787375Y-98874769D01*
X141802438Y-98875521D01*
X141813866Y-98876395D01*
X141822254Y-98877401D01*
X141828194Y-98878547D01*
X141832280Y-98879843D01*
X141832423Y-98879902D01*
X141857113Y-98894075D01*
X141875745Y-98914311D01*
X141886282Y-98933000D01*
X141888524Y-98937963D01*
X141890437Y-98943183D01*
X141892053Y-98949473D01*
X141893401Y-98957647D01*
X141894512Y-98968519D01*
X141895416Y-98982901D01*
X141896143Y-99001608D01*
X141896724Y-99025452D01*
X141897190Y-99055248D01*
X141897570Y-99091808D01*
X141897895Y-99135947D01*
X141898195Y-99188478D01*
X141898501Y-99250213D01*
X141898557Y-99261930D01*
X141900015Y-99568000D01*
X141752320Y-99568000D01*
X141752320Y-99288600D01*
X140843000Y-99288600D01*
X140843000Y-99568000D01*
X140700760Y-99568000D01*
X140700760Y-99269184D01*
X140700766Y-99203419D01*
X140700837Y-99147009D01*
X140701034Y-99101391D01*
X140843000Y-99101391D01*
X140843000Y-99126040D01*
X141752320Y-99126040D01*
X141752320Y-99101797D01*
X141750679Y-99083465D01*
X141744339Y-99068866D01*
X141736686Y-99058588D01*
X141721052Y-99039622D01*
X141293658Y-99040921D01*
X140866263Y-99042220D01*
X140854631Y-99059481D01*
X140845359Y-99080000D01*
X140843000Y-99101391D01*
X140701034Y-99101391D01*
X140701044Y-99099151D01*
X140701462Y-99059039D01*
X140702166Y-99025870D01*
X140703228Y-98998839D01*
X140704723Y-98977142D01*
X140706725Y-98959975D01*
X140709308Y-98946532D01*
X140712546Y-98936010D01*
X140716512Y-98927605D01*
X140721280Y-98920512D01*
X140726925Y-98913926D01*
X140733521Y-98907044D01*
X140734099Y-98906449D01*
X140739283Y-98900981D01*
X140743997Y-98896125D01*
X140748843Y-98891843D01*
X140754420Y-98888100D01*
X140761330Y-98884859D01*
X140770172Y-98882085D01*
X140781549Y-98879742D01*
X140796060Y-98877792D01*
X140814306Y-98876201D01*
X140836887Y-98874932D01*
X140864405Y-98873948D01*
X140897460Y-98873214D01*
X140936653Y-98872694D01*
X140982585Y-98872352D01*
X141035855Y-98872151D01*
X141097066Y-98872055D01*
X141166816Y-98872028D01*
X141245708Y-98872035D01*
G36*
X139693650Y-98196428D02*
G01*
X139795776Y-98196483D01*
X139888068Y-98196636D01*
X139970490Y-98196887D01*
X140043009Y-98197237D01*
X140105590Y-98197684D01*
X140158197Y-98198228D01*
X140200796Y-98198869D01*
X140233352Y-98199607D01*
X140255830Y-98200441D01*
X140268197Y-98201371D01*
X140270166Y-98201729D01*
X140289150Y-98211757D01*
X140306575Y-98229659D01*
X140320719Y-98253152D01*
X140329857Y-98279951D01*
X140330122Y-98281193D01*
X140332412Y-98298514D01*
X140333910Y-98323150D01*
X140334666Y-98353163D01*
X140334729Y-98386613D01*
X140334148Y-98421563D01*
X140332972Y-98456074D01*
X140331251Y-98488208D01*
X140329033Y-98516025D01*
X140326368Y-98537589D01*
X140323306Y-98550959D01*
X140323268Y-98551060D01*
X140309095Y-98579918D01*
X140291901Y-98599442D01*
X140271064Y-98610170D01*
X140251906Y-98612779D01*
X140239435Y-98613567D01*
X140234960Y-98616425D01*
X140236039Y-98621850D01*
X140239499Y-98630891D01*
X140245100Y-98646320D01*
X140251674Y-98664918D01*
X140252156Y-98666300D01*
X140259589Y-98687095D01*
X140269157Y-98713118D01*
X140279296Y-98740133D01*
X140284079Y-98752660D01*
X140293705Y-98777949D01*
X140303357Y-98803733D01*
X140311568Y-98826077D01*
X140314845Y-98835210D01*
X140326078Y-98866960D01*
X140418362Y-98866960D01*
X140451587Y-98867043D01*
X140476402Y-98867409D01*
X140494559Y-98868232D01*
X140507807Y-98869686D01*
X140517899Y-98871945D01*
X140526583Y-98875184D01*
X140533285Y-98878390D01*
X140547896Y-98887406D01*
X140558994Y-98899113D01*
X140569583Y-98916802D01*
X140571192Y-98919935D01*
X140576403Y-98930447D01*
X140580295Y-98939676D01*
X140583093Y-98949336D01*
X140585020Y-98961143D01*
X140586301Y-98976812D01*
X140587158Y-98998058D01*
X140587817Y-99026596D01*
X140588259Y-99050700D01*
X140588649Y-99098615D01*
X140587821Y-99137847D01*
X140585603Y-99169820D01*
X140581823Y-99195959D01*
X140576312Y-99217688D01*
X140568897Y-99236429D01*
X140565011Y-99244052D01*
X140552070Y-99264081D01*
X140537909Y-99276515D01*
X140519332Y-99283725D01*
X140508529Y-99285923D01*
X140494978Y-99288984D01*
X140489643Y-99292833D01*
X140490254Y-99297995D01*
X140493472Y-99306275D01*
X140499149Y-99321511D01*
X140506318Y-99341096D01*
X140510302Y-99352100D01*
X140529585Y-99404599D01*
X140552282Y-99464637D01*
X140574401Y-99521979D01*
X140580773Y-99540151D01*
X140584604Y-99554727D01*
X140585263Y-99563162D01*
X140584833Y-99564038D01*
X140578452Y-99565485D01*
X140563888Y-99566513D01*
X140543111Y-99567048D01*
X140518091Y-99567014D01*
X140509857Y-99566878D01*
X140439140Y-99565460D01*
X140415865Y-99507040D01*
X140400927Y-99469032D01*
X140384605Y-99426640D01*
X140368249Y-99383427D01*
X140353208Y-99342954D01*
X140342238Y-99312730D01*
X140333619Y-99288600D01*
X139532523Y-99288600D01*
X139531171Y-99427030D01*
X139529820Y-99565460D01*
X139460953Y-99566866D01*
X139435454Y-99567136D01*
X139413685Y-99566890D01*
X139397621Y-99566188D01*
X139389235Y-99565087D01*
X139388563Y-99564750D01*
X139387970Y-99559203D01*
X139387408Y-99544330D01*
X139386886Y-99520964D01*
X139386412Y-99489941D01*
X139385995Y-99452093D01*
X139385642Y-99408255D01*
X139385363Y-99359260D01*
X139385165Y-99305943D01*
X139385057Y-99249137D01*
X139385040Y-99214093D01*
X139385040Y-99126040D01*
X139532360Y-99126040D01*
X140418165Y-99126040D01*
X140429922Y-99114994D01*
X140439297Y-99099827D01*
X140441590Y-99080972D01*
X140437155Y-99061664D01*
X140426348Y-99045135D01*
X140421800Y-99041111D01*
X140418013Y-99039969D01*
X140409475Y-99038962D01*
X140395684Y-99038083D01*
X140376136Y-99037324D01*
X140350330Y-99036680D01*
X140317762Y-99036142D01*
X140277930Y-99035703D01*
X140230331Y-99035357D01*
X140174464Y-99035097D01*
X140109825Y-99034914D01*
X140035911Y-99034803D01*
X139973050Y-99034761D01*
X139532360Y-99034600D01*
X139532360Y-99126040D01*
X139385040Y-99126040D01*
X139385040Y-98866960D01*
X139778740Y-98866960D01*
X139840990Y-98866928D01*
X139900211Y-98866837D01*
X139955628Y-98866691D01*
X140006470Y-98866495D01*
X140051965Y-98866254D01*
X140091338Y-98865973D01*
X140123818Y-98865657D01*
X140148633Y-98865310D01*
X140165010Y-98864939D01*
X140172175Y-98864547D01*
X140172440Y-98864455D01*
X140170628Y-98858595D01*
X140165450Y-98844313D01*
X140157295Y-98822627D01*
X140146549Y-98794556D01*
X140133600Y-98761118D01*
X140118836Y-98723333D01*
X140116389Y-98717100D01*
X140106997Y-98692694D01*
X140098049Y-98668589D01*
X140090840Y-98648312D01*
X140087946Y-98639630D01*
X140079456Y-98612959D01*
X139278520Y-98612959D01*
X139277170Y-98753930D01*
X139275820Y-98894900D01*
X139136120Y-98897726D01*
X139136120Y-98364040D01*
X139278360Y-98364040D01*
X139278360Y-98455480D01*
X140165588Y-98455480D01*
X140176050Y-98444050D01*
X140184917Y-98431913D01*
X140189860Y-98421562D01*
X140189969Y-98407396D01*
X140184660Y-98390768D01*
X140175846Y-98376254D01*
X140168124Y-98369528D01*
X140161987Y-98368444D01*
X140147720Y-98367486D01*
X140125095Y-98366651D01*
X140093885Y-98365938D01*
X140053865Y-98365342D01*
X140004808Y-98364862D01*
X139946486Y-98364494D01*
X139878674Y-98364237D01*
X139801145Y-98364086D01*
X139718113Y-98364040D01*
X139278360Y-98364040D01*
X139136120Y-98364040D01*
X139136120Y-98196400D01*
X139693650Y-98196428D01*
G37*
X139693650Y-98196428D02*
X139795776Y-98196483D01*
X139888068Y-98196636D01*
X139970490Y-98196887D01*
X140043009Y-98197237D01*
X140105590Y-98197684D01*
X140158197Y-98198228D01*
X140200796Y-98198869D01*
X140233352Y-98199607D01*
X140255830Y-98200441D01*
X140268197Y-98201371D01*
X140270166Y-98201729D01*
X140289150Y-98211757D01*
X140306575Y-98229659D01*
X140320719Y-98253152D01*
X140329857Y-98279951D01*
X140330122Y-98281193D01*
X140332412Y-98298514D01*
X140333910Y-98323150D01*
X140334666Y-98353163D01*
X140334729Y-98386613D01*
X140334148Y-98421563D01*
X140332972Y-98456074D01*
X140331251Y-98488208D01*
X140329033Y-98516025D01*
X140326368Y-98537589D01*
X140323306Y-98550959D01*
X140323268Y-98551060D01*
X140309095Y-98579918D01*
X140291901Y-98599442D01*
X140271064Y-98610170D01*
X140251906Y-98612779D01*
X140239435Y-98613567D01*
X140234960Y-98616425D01*
X140236039Y-98621850D01*
X140239499Y-98630891D01*
X140245100Y-98646320D01*
X140251674Y-98664918D01*
X140252156Y-98666300D01*
X140259589Y-98687095D01*
X140269157Y-98713118D01*
X140279296Y-98740133D01*
X140284079Y-98752660D01*
X140293705Y-98777949D01*
X140303357Y-98803733D01*
X140311568Y-98826077D01*
X140314845Y-98835210D01*
X140326078Y-98866960D01*
X140418362Y-98866960D01*
X140451587Y-98867043D01*
X140476402Y-98867409D01*
X140494559Y-98868232D01*
X140507807Y-98869686D01*
X140517899Y-98871945D01*
X140526583Y-98875184D01*
X140533285Y-98878390D01*
X140547896Y-98887406D01*
X140558994Y-98899113D01*
X140569583Y-98916802D01*
X140571192Y-98919935D01*
X140576403Y-98930447D01*
X140580295Y-98939676D01*
X140583093Y-98949336D01*
X140585020Y-98961143D01*
X140586301Y-98976812D01*
X140587158Y-98998058D01*
X140587817Y-99026596D01*
X140588259Y-99050700D01*
X140588649Y-99098615D01*
X140587821Y-99137847D01*
X140585603Y-99169820D01*
X140581823Y-99195959D01*
X140576312Y-99217688D01*
X140568897Y-99236429D01*
X140565011Y-99244052D01*
X140552070Y-99264081D01*
X140537909Y-99276515D01*
X140519332Y-99283725D01*
X140508529Y-99285923D01*
X140494978Y-99288984D01*
X140489643Y-99292833D01*
X140490254Y-99297995D01*
X140493472Y-99306275D01*
X140499149Y-99321511D01*
X140506318Y-99341096D01*
X140510302Y-99352100D01*
X140529585Y-99404599D01*
X140552282Y-99464637D01*
X140574401Y-99521979D01*
X140580773Y-99540151D01*
X140584604Y-99554727D01*
X140585263Y-99563162D01*
X140584833Y-99564038D01*
X140578452Y-99565485D01*
X140563888Y-99566513D01*
X140543111Y-99567048D01*
X140518091Y-99567014D01*
X140509857Y-99566878D01*
X140439140Y-99565460D01*
X140415865Y-99507040D01*
X140400927Y-99469032D01*
X140384605Y-99426640D01*
X140368249Y-99383427D01*
X140353208Y-99342954D01*
X140342238Y-99312730D01*
X140333619Y-99288600D01*
X139532523Y-99288600D01*
X139531171Y-99427030D01*
X139529820Y-99565460D01*
X139460953Y-99566866D01*
X139435454Y-99567136D01*
X139413685Y-99566890D01*
X139397621Y-99566188D01*
X139389235Y-99565087D01*
X139388563Y-99564750D01*
X139387970Y-99559203D01*
X139387408Y-99544330D01*
X139386886Y-99520964D01*
X139386412Y-99489941D01*
X139385995Y-99452093D01*
X139385642Y-99408255D01*
X139385363Y-99359260D01*
X139385165Y-99305943D01*
X139385057Y-99249137D01*
X139385040Y-99214093D01*
X139385040Y-99126040D01*
X139532360Y-99126040D01*
X140418165Y-99126040D01*
X140429922Y-99114994D01*
X140439297Y-99099827D01*
X140441590Y-99080972D01*
X140437155Y-99061664D01*
X140426348Y-99045135D01*
X140421800Y-99041111D01*
X140418013Y-99039969D01*
X140409475Y-99038962D01*
X140395684Y-99038083D01*
X140376136Y-99037324D01*
X140350330Y-99036680D01*
X140317762Y-99036142D01*
X140277930Y-99035703D01*
X140230331Y-99035357D01*
X140174464Y-99035097D01*
X140109825Y-99034914D01*
X140035911Y-99034803D01*
X139973050Y-99034761D01*
X139532360Y-99034600D01*
X139532360Y-99126040D01*
X139385040Y-99126040D01*
X139385040Y-98866960D01*
X139778740Y-98866960D01*
X139840990Y-98866928D01*
X139900211Y-98866837D01*
X139955628Y-98866691D01*
X140006470Y-98866495D01*
X140051965Y-98866254D01*
X140091338Y-98865973D01*
X140123818Y-98865657D01*
X140148633Y-98865310D01*
X140165010Y-98864939D01*
X140172175Y-98864547D01*
X140172440Y-98864455D01*
X140170628Y-98858595D01*
X140165450Y-98844313D01*
X140157295Y-98822627D01*
X140146549Y-98794556D01*
X140133600Y-98761118D01*
X140118836Y-98723333D01*
X140116389Y-98717100D01*
X140106997Y-98692694D01*
X140098049Y-98668589D01*
X140090840Y-98648312D01*
X140087946Y-98639630D01*
X140079456Y-98612959D01*
X139278520Y-98612959D01*
X139277170Y-98753930D01*
X139275820Y-98894900D01*
X139136120Y-98897726D01*
X139136120Y-98364040D01*
X139278360Y-98364040D01*
X139278360Y-98455480D01*
X140165588Y-98455480D01*
X140176050Y-98444050D01*
X140184917Y-98431913D01*
X140189860Y-98421562D01*
X140189969Y-98407396D01*
X140184660Y-98390768D01*
X140175846Y-98376254D01*
X140168124Y-98369528D01*
X140161987Y-98368444D01*
X140147720Y-98367486D01*
X140125095Y-98366651D01*
X140093885Y-98365938D01*
X140053865Y-98365342D01*
X140004808Y-98364862D01*
X139946486Y-98364494D01*
X139878674Y-98364237D01*
X139801145Y-98364086D01*
X139718113Y-98364040D01*
X139278360Y-98364040D01*
X139136120Y-98364040D01*
X139136120Y-98196400D01*
X139693650Y-98196428D01*
G36*
X146871259Y-99715093D02*
G01*
X146916185Y-99715256D01*
X146959290Y-99715579D01*
X146999375Y-99716060D01*
X147035242Y-99716702D01*
X147065695Y-99717503D01*
X147089533Y-99718464D01*
X147105560Y-99719584D01*
X147112484Y-99720808D01*
X147119703Y-99725527D01*
X147125536Y-99731871D01*
X147130146Y-99740912D01*
X147133696Y-99753722D01*
X147136349Y-99771375D01*
X147138269Y-99794943D01*
X147139619Y-99825499D01*
X147140563Y-99864115D01*
X147141236Y-99909630D01*
X147143015Y-100055680D01*
X147066000Y-100055680D01*
X147066000Y-99939970D01*
X147065898Y-99901459D01*
X147065539Y-99871819D01*
X147064843Y-99849765D01*
X147063731Y-99834010D01*
X147062121Y-99823266D01*
X147059933Y-99816248D01*
X147058091Y-99812970D01*
X147054728Y-99808792D01*
X147050350Y-99805796D01*
X147043370Y-99803786D01*
X147032199Y-99802565D01*
X147015248Y-99801938D01*
X146990928Y-99801709D01*
X146966651Y-99801680D01*
X146883120Y-99801680D01*
X146883120Y-100055680D01*
X146806920Y-100055680D01*
X146806920Y-99801680D01*
X146725928Y-99801680D01*
X146695508Y-99801743D01*
X146673630Y-99802070D01*
X146658675Y-99802865D01*
X146649026Y-99804336D01*
X146643063Y-99806686D01*
X146639170Y-99810123D01*
X146637028Y-99812970D01*
X146634405Y-99818202D01*
X146632415Y-99826292D01*
X146630975Y-99838525D01*
X146630007Y-99856190D01*
X146629430Y-99880571D01*
X146629164Y-99912957D01*
X146629120Y-99939970D01*
X146629120Y-100055680D01*
X146552104Y-100055680D01*
X146553883Y-99909630D01*
X146554590Y-99862292D01*
X146555548Y-99824041D01*
X146556919Y-99793805D01*
X146558867Y-99770511D01*
X146561555Y-99753086D01*
X146565146Y-99740457D01*
X146569805Y-99731553D01*
X146575694Y-99725301D01*
X146582635Y-99720808D01*
X146590043Y-99719535D01*
X146606412Y-99718421D01*
X146630543Y-99717467D01*
X146661239Y-99716673D01*
X146697302Y-99716038D01*
X146737534Y-99715562D01*
X146780736Y-99715246D01*
X146825710Y-99715090D01*
X146871259Y-99715093D01*
G37*
X146871259Y-99715093D02*
X146916185Y-99715256D01*
X146959290Y-99715579D01*
X146999375Y-99716060D01*
X147035242Y-99716702D01*
X147065695Y-99717503D01*
X147089533Y-99718464D01*
X147105560Y-99719584D01*
X147112484Y-99720808D01*
X147119703Y-99725527D01*
X147125536Y-99731871D01*
X147130146Y-99740912D01*
X147133696Y-99753722D01*
X147136349Y-99771375D01*
X147138269Y-99794943D01*
X147139619Y-99825499D01*
X147140563Y-99864115D01*
X147141236Y-99909630D01*
X147143015Y-100055680D01*
X147066000Y-100055680D01*
X147066000Y-99939970D01*
X147065898Y-99901459D01*
X147065539Y-99871819D01*
X147064843Y-99849765D01*
X147063731Y-99834010D01*
X147062121Y-99823266D01*
X147059933Y-99816248D01*
X147058091Y-99812970D01*
X147054728Y-99808792D01*
X147050350Y-99805796D01*
X147043370Y-99803786D01*
X147032199Y-99802565D01*
X147015248Y-99801938D01*
X146990928Y-99801709D01*
X146966651Y-99801680D01*
X146883120Y-99801680D01*
X146883120Y-100055680D01*
X146806920Y-100055680D01*
X146806920Y-99801680D01*
X146725928Y-99801680D01*
X146695508Y-99801743D01*
X146673630Y-99802070D01*
X146658675Y-99802865D01*
X146649026Y-99804336D01*
X146643063Y-99806686D01*
X146639170Y-99810123D01*
X146637028Y-99812970D01*
X146634405Y-99818202D01*
X146632415Y-99826292D01*
X146630975Y-99838525D01*
X146630007Y-99856190D01*
X146629430Y-99880571D01*
X146629164Y-99912957D01*
X146629120Y-99939970D01*
X146629120Y-100055680D01*
X146552104Y-100055680D01*
X146553883Y-99909630D01*
X146554590Y-99862292D01*
X146555548Y-99824041D01*
X146556919Y-99793805D01*
X146558867Y-99770511D01*
X146561555Y-99753086D01*
X146565146Y-99740457D01*
X146569805Y-99731553D01*
X146575694Y-99725301D01*
X146582635Y-99720808D01*
X146590043Y-99719535D01*
X146606412Y-99718421D01*
X146630543Y-99717467D01*
X146661239Y-99716673D01*
X146697302Y-99716038D01*
X146737534Y-99715562D01*
X146780736Y-99715246D01*
X146825710Y-99715090D01*
X146871259Y-99715093D01*
G36*
X146119426Y-99716141D02*
G01*
X146170789Y-99716349D01*
X146218797Y-99716589D01*
X146471415Y-99717860D01*
X146485497Y-99731938D01*
X146499580Y-99746016D01*
X146501060Y-99900848D01*
X146502541Y-100055680D01*
X146425920Y-100055680D01*
X146425920Y-99923600D01*
X145989040Y-99923600D01*
X145989040Y-100055680D01*
X145917486Y-100055680D01*
X145918973Y-99906182D01*
X145919432Y-99863160D01*
X145919874Y-99831881D01*
X145988359Y-99831881D01*
X145990708Y-99835136D01*
X145996597Y-99837634D01*
X146006852Y-99839475D01*
X146022297Y-99840760D01*
X146043759Y-99841588D01*
X146072062Y-99842058D01*
X146108032Y-99842270D01*
X146152494Y-99842324D01*
X146206273Y-99842320D01*
X146425920Y-99842320D01*
X146425920Y-99830635D01*
X146425771Y-99824878D01*
X146424731Y-99820130D01*
X146421906Y-99816293D01*
X146416403Y-99813271D01*
X146407330Y-99810966D01*
X146393794Y-99809282D01*
X146374901Y-99808121D01*
X146349760Y-99807385D01*
X146317477Y-99806978D01*
X146277159Y-99806802D01*
X146227914Y-99806760D01*
X146206642Y-99806760D01*
X146155319Y-99806776D01*
X146113214Y-99806856D01*
X146079387Y-99807041D01*
X146052896Y-99807376D01*
X146032799Y-99807904D01*
X146018156Y-99808669D01*
X146008024Y-99809714D01*
X146001463Y-99811083D01*
X145997531Y-99812820D01*
X145995287Y-99814968D01*
X145994298Y-99816586D01*
X145990979Y-99822706D01*
X145988725Y-99827771D01*
X145988359Y-99831881D01*
X145919874Y-99831881D01*
X145919914Y-99829108D01*
X145920507Y-99802838D01*
X145921301Y-99783160D01*
X145922382Y-99768886D01*
X145923839Y-99758825D01*
X145925760Y-99751789D01*
X145928233Y-99746589D01*
X145931109Y-99742352D01*
X145935589Y-99736386D01*
X145939995Y-99731370D01*
X145945195Y-99727225D01*
X145952057Y-99723875D01*
X145961446Y-99721242D01*
X145974231Y-99719247D01*
X145991277Y-99717814D01*
X146013453Y-99716864D01*
X146041625Y-99716320D01*
X146076660Y-99716105D01*
X146119426Y-99716141D01*
G37*
X146119426Y-99716141D02*
X146170789Y-99716349D01*
X146218797Y-99716589D01*
X146471415Y-99717860D01*
X146485497Y-99731938D01*
X146499580Y-99746016D01*
X146501060Y-99900848D01*
X146502541Y-100055680D01*
X146425920Y-100055680D01*
X146425920Y-99923600D01*
X145989040Y-99923600D01*
X145989040Y-100055680D01*
X145917486Y-100055680D01*
X145918973Y-99906182D01*
X145919432Y-99863160D01*
X145919874Y-99831881D01*
X145988359Y-99831881D01*
X145990708Y-99835136D01*
X145996597Y-99837634D01*
X146006852Y-99839475D01*
X146022297Y-99840760D01*
X146043759Y-99841588D01*
X146072062Y-99842058D01*
X146108032Y-99842270D01*
X146152494Y-99842324D01*
X146206273Y-99842320D01*
X146425920Y-99842320D01*
X146425920Y-99830635D01*
X146425771Y-99824878D01*
X146424731Y-99820130D01*
X146421906Y-99816293D01*
X146416403Y-99813271D01*
X146407330Y-99810966D01*
X146393794Y-99809282D01*
X146374901Y-99808121D01*
X146349760Y-99807385D01*
X146317477Y-99806978D01*
X146277159Y-99806802D01*
X146227914Y-99806760D01*
X146206642Y-99806760D01*
X146155319Y-99806776D01*
X146113214Y-99806856D01*
X146079387Y-99807041D01*
X146052896Y-99807376D01*
X146032799Y-99807904D01*
X146018156Y-99808669D01*
X146008024Y-99809714D01*
X146001463Y-99811083D01*
X145997531Y-99812820D01*
X145995287Y-99814968D01*
X145994298Y-99816586D01*
X145990979Y-99822706D01*
X145988725Y-99827771D01*
X145988359Y-99831881D01*
X145919874Y-99831881D01*
X145919914Y-99829108D01*
X145920507Y-99802838D01*
X145921301Y-99783160D01*
X145922382Y-99768886D01*
X145923839Y-99758825D01*
X145925760Y-99751789D01*
X145928233Y-99746589D01*
X145931109Y-99742352D01*
X145935589Y-99736386D01*
X145939995Y-99731370D01*
X145945195Y-99727225D01*
X145952057Y-99723875D01*
X145961446Y-99721242D01*
X145974231Y-99719247D01*
X145991277Y-99717814D01*
X146013453Y-99716864D01*
X146041625Y-99716320D01*
X146076660Y-99716105D01*
X146119426Y-99716141D01*
G36*
X145864580Y-99717860D02*
G01*
X145867530Y-99801680D01*
X145354040Y-99801680D01*
X145354040Y-99847400D01*
X145867120Y-99847400D01*
X145867120Y-99923600D01*
X145354040Y-99923600D01*
X145354040Y-99964146D01*
X145864580Y-99966780D01*
X145866047Y-100011230D01*
X145867515Y-100055680D01*
X145282920Y-100055680D01*
X145282920Y-99715236D01*
X145864580Y-99717860D01*
G37*
X145864580Y-99717860D02*
X145867530Y-99801680D01*
X145354040Y-99801680D01*
X145354040Y-99847400D01*
X145867120Y-99847400D01*
X145867120Y-99923600D01*
X145354040Y-99923600D01*
X145354040Y-99964146D01*
X145864580Y-99966780D01*
X145866047Y-100011230D01*
X145867515Y-100055680D01*
X145282920Y-100055680D01*
X145282920Y-99715236D01*
X145864580Y-99717860D01*
G36*
X145227040Y-99801680D02*
G01*
X144973040Y-99801680D01*
X144973040Y-100055680D01*
X144896840Y-100055680D01*
X144896840Y-99801680D01*
X144642840Y-99801680D01*
X144642840Y-99715320D01*
X145227040Y-99715320D01*
X145227040Y-99801680D01*
G37*
X145227040Y-99801680D02*
X144973040Y-99801680D01*
X144973040Y-100055680D01*
X144896840Y-100055680D01*
X144896840Y-99801680D01*
X144642840Y-99801680D01*
X144642840Y-99715320D01*
X145227040Y-99715320D01*
X145227040Y-99801680D01*
D12*
%TO.C,C8*%
X162431000Y-89902420D02*
X162431000Y-90183580D01*
X163451000Y-89902420D02*
X163451000Y-90183580D01*
%TO.C,C5*%
X163451000Y-97268420D02*
X163451000Y-97549580D01*
X162431000Y-97268420D02*
X162431000Y-97549580D01*
D10*
%TO.C,U2*%
X160470000Y-97380000D02*
X161895000Y-97380000D01*
X153220000Y-97605000D02*
X153545000Y-97605000D01*
X153220000Y-90355000D02*
X153545000Y-90355000D01*
X160470000Y-90355000D02*
X160145000Y-90355000D01*
X160470000Y-97605000D02*
X160145000Y-97605000D01*
X160470000Y-90355000D02*
X160470000Y-90680000D01*
X153220000Y-90355000D02*
X153220000Y-90680000D01*
X153220000Y-97605000D02*
X153220000Y-97280000D01*
X160470000Y-97605000D02*
X160470000Y-97380000D01*
D12*
%TO.C,U1*%
X147010000Y-88199500D02*
X147010000Y-86739500D01*
X150170000Y-88199500D02*
X150170000Y-86039500D01*
X150170000Y-88199500D02*
X149240000Y-88199500D01*
X147010000Y-88199500D02*
X147940000Y-88199500D01*
%TO.C,C1*%
X142371400Y-88518948D02*
X142371400Y-89941452D01*
X144191400Y-88518948D02*
X144191400Y-89941452D01*
%TO.C,C3*%
X149389220Y-84376800D02*
X149670380Y-84376800D01*
X149389220Y-85396800D02*
X149670380Y-85396800D01*
%TO.C,C6*%
X162431000Y-93231580D02*
X162431000Y-92950420D01*
X163451000Y-93231580D02*
X163451000Y-92950420D01*
%TO.C,C7*%
X150127580Y-90676000D02*
X149846420Y-90676000D01*
X150127580Y-91696000D02*
X149846420Y-91696000D01*
%TO.C,C9*%
X155831000Y-86854420D02*
X155831000Y-87135580D01*
X154811000Y-86854420D02*
X154811000Y-87135580D01*
%TO.C,C10*%
X151993652Y-81513000D02*
X150571148Y-81513000D01*
X151993652Y-83333000D02*
X150571148Y-83333000D01*
%TO.C,C11*%
X154318580Y-84135500D02*
X154037420Y-84135500D01*
X154318580Y-85155500D02*
X154037420Y-85155500D01*
%TO.C,C13*%
X146317580Y-90549000D02*
X146036420Y-90549000D01*
X146317580Y-91569000D02*
X146036420Y-91569000D01*
%TO.C,D1*%
X139733400Y-85827600D02*
X139733400Y-89712600D01*
X142003400Y-85827600D02*
X139733400Y-85827600D01*
X142003400Y-89712600D02*
X142003400Y-85827600D01*
%TO.C,D2*%
X140118220Y-84376800D02*
X140399380Y-84376800D01*
X140118220Y-85396800D02*
X140399380Y-85396800D01*
%TO.C,D3*%
X140118220Y-82802000D02*
X140399380Y-82802000D01*
X140118220Y-83822000D02*
X140399380Y-83822000D01*
%TO.C,D4*%
X142238000Y-96322000D02*
X142238000Y-95392000D01*
X142238000Y-93162000D02*
X142238000Y-94092000D01*
X142238000Y-93162000D02*
X140078000Y-93162000D01*
X142238000Y-96322000D02*
X140778000Y-96322000D01*
%TO.C,J1*%
X139045500Y-96691000D02*
X137985500Y-96691000D01*
X139045500Y-95631000D02*
X139045500Y-96691000D01*
X139045500Y-94631000D02*
X136925500Y-94631000D01*
X136925500Y-94631000D02*
X136925500Y-88571000D01*
X139045500Y-94631000D02*
X139045500Y-88571000D01*
X139045500Y-88571000D02*
X136925500Y-88571000D01*
%TO.C,J2*%
X164890000Y-88055000D02*
X163830000Y-88055000D01*
X164890000Y-86995000D02*
X164890000Y-88055000D01*
X162830000Y-88055000D02*
X160770000Y-88055000D01*
X162830000Y-85995000D02*
X162830000Y-88055000D01*
X164890000Y-85995000D02*
X162830000Y-85995000D01*
X160770000Y-88055000D02*
X160770000Y-81935000D01*
X164890000Y-85995000D02*
X164890000Y-81935000D01*
X164890000Y-81935000D02*
X160770000Y-81935000D01*
%TO.C,L1*%
X146415001Y-87839122D02*
X146415001Y-87039878D01*
X145295001Y-87839122D02*
X145295001Y-87039878D01*
%TO.C,L2*%
X152025778Y-86536600D02*
X152825022Y-86536600D01*
X152025778Y-87656600D02*
X152825022Y-87656600D01*
%TO.C,U4*%
X146939000Y-97302000D02*
X150389000Y-97302000D01*
X146939000Y-97302000D02*
X144989000Y-97302000D01*
X146939000Y-92182000D02*
X148889000Y-92182000D01*
X146939000Y-92182000D02*
X144989000Y-92182000D01*
%TO.C,R1*%
X143531058Y-85409300D02*
X143056542Y-85409300D01*
X143531058Y-84364300D02*
X143056542Y-84364300D01*
%TO.C,R2*%
X143531058Y-82789500D02*
X143056542Y-82789500D01*
X143531058Y-83834500D02*
X143056542Y-83834500D01*
%TO.C,R3*%
X164987500Y-90280258D02*
X164987500Y-89805742D01*
X163942500Y-90280258D02*
X163942500Y-89805742D01*
%TO.C,R4*%
X163942500Y-93328258D02*
X163942500Y-92853742D01*
X164987500Y-93328258D02*
X164987500Y-92853742D01*
%TO.C,U3*%
D10*
X159345380Y-84531104D02*
X160154904Y-84531104D01*
X160250142Y-84483485D01*
X160297761Y-84435866D01*
X160345380Y-84340628D01*
X160345380Y-84150152D01*
X160297761Y-84054914D01*
X160250142Y-84007295D01*
X160154904Y-83959676D01*
X159345380Y-83959676D01*
X159345380Y-83578723D02*
X159345380Y-82959676D01*
X159726333Y-83293009D01*
X159726333Y-83150152D01*
X159773952Y-83054914D01*
X159821571Y-83007295D01*
X159916809Y-82959676D01*
X160154904Y-82959676D01*
X160250142Y-83007295D01*
X160297761Y-83054914D01*
X160345380Y-83150152D01*
X160345380Y-83435866D01*
X160297761Y-83531104D01*
X160250142Y-83578723D01*
%TO.C,C2*%
X144832342Y-84240666D02*
X144879961Y-84288285D01*
X144927580Y-84431142D01*
X144927580Y-84526380D01*
X144879961Y-84669238D01*
X144784723Y-84764476D01*
X144689485Y-84812095D01*
X144499009Y-84859714D01*
X144356152Y-84859714D01*
X144165676Y-84812095D01*
X144070438Y-84764476D01*
X143975200Y-84669238D01*
X143927580Y-84526380D01*
X143927580Y-84431142D01*
X143975200Y-84288285D01*
X144022819Y-84240666D01*
X144022819Y-83859714D02*
X143975200Y-83812095D01*
X143927580Y-83716857D01*
X143927580Y-83478761D01*
X143975200Y-83383523D01*
X144022819Y-83335904D01*
X144118057Y-83288285D01*
X144213295Y-83288285D01*
X144356152Y-83335904D01*
X144927580Y-83907333D01*
X144927580Y-83288285D01*
%TO.C,C8*%
X162180542Y-90184266D02*
X162228161Y-90231885D01*
X162275780Y-90374742D01*
X162275780Y-90469980D01*
X162228161Y-90612838D01*
X162132923Y-90708076D01*
X162037685Y-90755695D01*
X161847209Y-90803314D01*
X161704352Y-90803314D01*
X161513876Y-90755695D01*
X161418638Y-90708076D01*
X161323400Y-90612838D01*
X161275780Y-90469980D01*
X161275780Y-90374742D01*
X161323400Y-90231885D01*
X161371019Y-90184266D01*
X161704352Y-89612838D02*
X161656733Y-89708076D01*
X161609114Y-89755695D01*
X161513876Y-89803314D01*
X161466257Y-89803314D01*
X161371019Y-89755695D01*
X161323400Y-89708076D01*
X161275780Y-89612838D01*
X161275780Y-89422361D01*
X161323400Y-89327123D01*
X161371019Y-89279504D01*
X161466257Y-89231885D01*
X161513876Y-89231885D01*
X161609114Y-89279504D01*
X161656733Y-89327123D01*
X161704352Y-89422361D01*
X161704352Y-89612838D01*
X161751971Y-89708076D01*
X161799590Y-89755695D01*
X161894828Y-89803314D01*
X162085304Y-89803314D01*
X162180542Y-89755695D01*
X162228161Y-89708076D01*
X162275780Y-89612838D01*
X162275780Y-89422361D01*
X162228161Y-89327123D01*
X162180542Y-89279504D01*
X162085304Y-89231885D01*
X161894828Y-89231885D01*
X161799590Y-89279504D01*
X161751971Y-89327123D01*
X161704352Y-89422361D01*
%TO.C,C5*%
X164728142Y-97575666D02*
X164775761Y-97623285D01*
X164823380Y-97766142D01*
X164823380Y-97861380D01*
X164775761Y-98004238D01*
X164680523Y-98099476D01*
X164585285Y-98147095D01*
X164394809Y-98194714D01*
X164251952Y-98194714D01*
X164061476Y-98147095D01*
X163966238Y-98099476D01*
X163871000Y-98004238D01*
X163823380Y-97861380D01*
X163823380Y-97766142D01*
X163871000Y-97623285D01*
X163918619Y-97575666D01*
X163823380Y-96670904D02*
X163823380Y-97147095D01*
X164299571Y-97194714D01*
X164251952Y-97147095D01*
X164204333Y-97051857D01*
X164204333Y-96813761D01*
X164251952Y-96718523D01*
X164299571Y-96670904D01*
X164394809Y-96623285D01*
X164632904Y-96623285D01*
X164728142Y-96670904D01*
X164775761Y-96718523D01*
X164823380Y-96813761D01*
X164823380Y-97051857D01*
X164775761Y-97147095D01*
X164728142Y-97194714D01*
%TO.C,U2*%
X156159295Y-93432380D02*
X156159295Y-94241904D01*
X156206914Y-94337142D01*
X156254533Y-94384761D01*
X156349771Y-94432380D01*
X156540247Y-94432380D01*
X156635485Y-94384761D01*
X156683104Y-94337142D01*
X156730723Y-94241904D01*
X156730723Y-93432380D01*
X157159295Y-93527619D02*
X157206914Y-93480000D01*
X157302152Y-93432380D01*
X157540247Y-93432380D01*
X157635485Y-93480000D01*
X157683104Y-93527619D01*
X157730723Y-93622857D01*
X157730723Y-93718095D01*
X157683104Y-93860952D01*
X157111676Y-94432380D01*
X157730723Y-94432380D01*
%TO.C,U1*%
X148042380Y-87883904D02*
X148851904Y-87883904D01*
X148947142Y-87836285D01*
X148994761Y-87788666D01*
X149042380Y-87693428D01*
X149042380Y-87502952D01*
X148994761Y-87407714D01*
X148947142Y-87360095D01*
X148851904Y-87312476D01*
X148042380Y-87312476D01*
X149042380Y-86312476D02*
X149042380Y-86883904D01*
X149042380Y-86598190D02*
X148042380Y-86598190D01*
X148185238Y-86693428D01*
X148280476Y-86788666D01*
X148328095Y-86883904D01*
%TO.C,C1*%
X145488542Y-89396866D02*
X145536161Y-89444485D01*
X145583780Y-89587342D01*
X145583780Y-89682580D01*
X145536161Y-89825438D01*
X145440923Y-89920676D01*
X145345685Y-89968295D01*
X145155209Y-90015914D01*
X145012352Y-90015914D01*
X144821876Y-89968295D01*
X144726638Y-89920676D01*
X144631400Y-89825438D01*
X144583780Y-89682580D01*
X144583780Y-89587342D01*
X144631400Y-89444485D01*
X144679019Y-89396866D01*
X145583780Y-88444485D02*
X145583780Y-89015914D01*
X145583780Y-88730200D02*
X144583780Y-88730200D01*
X144726638Y-88825438D01*
X144821876Y-88920676D01*
X144869495Y-89015914D01*
%TO.C,C3*%
X149363133Y-83813942D02*
X149315514Y-83861561D01*
X149172657Y-83909180D01*
X149077419Y-83909180D01*
X148934561Y-83861561D01*
X148839323Y-83766323D01*
X148791704Y-83671085D01*
X148744085Y-83480609D01*
X148744085Y-83337752D01*
X148791704Y-83147276D01*
X148839323Y-83052038D01*
X148934561Y-82956800D01*
X149077419Y-82909180D01*
X149172657Y-82909180D01*
X149315514Y-82956800D01*
X149363133Y-83004419D01*
X149696466Y-82909180D02*
X150315514Y-82909180D01*
X149982180Y-83290133D01*
X150125038Y-83290133D01*
X150220276Y-83337752D01*
X150267895Y-83385371D01*
X150315514Y-83480609D01*
X150315514Y-83718704D01*
X150267895Y-83813942D01*
X150220276Y-83861561D01*
X150125038Y-83909180D01*
X149839323Y-83909180D01*
X149744085Y-83861561D01*
X149696466Y-83813942D01*
%TO.C,C6*%
X162155142Y-93257666D02*
X162202761Y-93305285D01*
X162250380Y-93448142D01*
X162250380Y-93543380D01*
X162202761Y-93686238D01*
X162107523Y-93781476D01*
X162012285Y-93829095D01*
X161821809Y-93876714D01*
X161678952Y-93876714D01*
X161488476Y-93829095D01*
X161393238Y-93781476D01*
X161298000Y-93686238D01*
X161250380Y-93543380D01*
X161250380Y-93448142D01*
X161298000Y-93305285D01*
X161345619Y-93257666D01*
X161250380Y-92400523D02*
X161250380Y-92591000D01*
X161298000Y-92686238D01*
X161345619Y-92733857D01*
X161488476Y-92829095D01*
X161678952Y-92876714D01*
X162059904Y-92876714D01*
X162155142Y-92829095D01*
X162202761Y-92781476D01*
X162250380Y-92686238D01*
X162250380Y-92495761D01*
X162202761Y-92400523D01*
X162155142Y-92352904D01*
X162059904Y-92305285D01*
X161821809Y-92305285D01*
X161726571Y-92352904D01*
X161678952Y-92400523D01*
X161631333Y-92495761D01*
X161631333Y-92686238D01*
X161678952Y-92781476D01*
X161726571Y-92829095D01*
X161821809Y-92876714D01*
%TO.C,C7*%
X149820333Y-92973142D02*
X149772714Y-93020761D01*
X149629857Y-93068380D01*
X149534619Y-93068380D01*
X149391761Y-93020761D01*
X149296523Y-92925523D01*
X149248904Y-92830285D01*
X149201285Y-92639809D01*
X149201285Y-92496952D01*
X149248904Y-92306476D01*
X149296523Y-92211238D01*
X149391761Y-92116000D01*
X149534619Y-92068380D01*
X149629857Y-92068380D01*
X149772714Y-92116000D01*
X149820333Y-92163619D01*
X150153666Y-92068380D02*
X150820333Y-92068380D01*
X150391761Y-93068380D01*
%TO.C,C9*%
X157108142Y-87161666D02*
X157155761Y-87209285D01*
X157203380Y-87352142D01*
X157203380Y-87447380D01*
X157155761Y-87590238D01*
X157060523Y-87685476D01*
X156965285Y-87733095D01*
X156774809Y-87780714D01*
X156631952Y-87780714D01*
X156441476Y-87733095D01*
X156346238Y-87685476D01*
X156251000Y-87590238D01*
X156203380Y-87447380D01*
X156203380Y-87352142D01*
X156251000Y-87209285D01*
X156298619Y-87161666D01*
X157203380Y-86685476D02*
X157203380Y-86495000D01*
X157155761Y-86399761D01*
X157108142Y-86352142D01*
X156965285Y-86256904D01*
X156774809Y-86209285D01*
X156393857Y-86209285D01*
X156298619Y-86256904D01*
X156251000Y-86304523D01*
X156203380Y-86399761D01*
X156203380Y-86590238D01*
X156251000Y-86685476D01*
X156298619Y-86733095D01*
X156393857Y-86780714D01*
X156631952Y-86780714D01*
X156727190Y-86733095D01*
X156774809Y-86685476D01*
X156822428Y-86590238D01*
X156822428Y-86399761D01*
X156774809Y-86304523D01*
X156727190Y-86256904D01*
X156631952Y-86209285D01*
%TO.C,C10*%
X150639542Y-84405742D02*
X150591923Y-84453361D01*
X150449066Y-84500980D01*
X150353828Y-84500980D01*
X150210971Y-84453361D01*
X150115733Y-84358123D01*
X150068114Y-84262885D01*
X150020495Y-84072409D01*
X150020495Y-83929552D01*
X150068114Y-83739076D01*
X150115733Y-83643838D01*
X150210971Y-83548600D01*
X150353828Y-83500980D01*
X150449066Y-83500980D01*
X150591923Y-83548600D01*
X150639542Y-83596219D01*
X151591923Y-84500980D02*
X151020495Y-84500980D01*
X151306209Y-84500980D02*
X151306209Y-83500980D01*
X151210971Y-83643838D01*
X151115733Y-83739076D01*
X151020495Y-83786695D01*
X152210971Y-83500980D02*
X152306209Y-83500980D01*
X152401447Y-83548600D01*
X152449066Y-83596219D01*
X152496685Y-83691457D01*
X152544304Y-83881933D01*
X152544304Y-84120028D01*
X152496685Y-84310504D01*
X152449066Y-84405742D01*
X152401447Y-84453361D01*
X152306209Y-84500980D01*
X152210971Y-84500980D01*
X152115733Y-84453361D01*
X152068114Y-84405742D01*
X152020495Y-84310504D01*
X151972876Y-84120028D01*
X151972876Y-83881933D01*
X152020495Y-83691457D01*
X152068114Y-83596219D01*
X152115733Y-83548600D01*
X152210971Y-83500980D01*
%TO.C,C11*%
X154043142Y-83732642D02*
X153995523Y-83780261D01*
X153852666Y-83827880D01*
X153757428Y-83827880D01*
X153614571Y-83780261D01*
X153519333Y-83685023D01*
X153471714Y-83589785D01*
X153424095Y-83399309D01*
X153424095Y-83256452D01*
X153471714Y-83065976D01*
X153519333Y-82970738D01*
X153614571Y-82875500D01*
X153757428Y-82827880D01*
X153852666Y-82827880D01*
X153995523Y-82875500D01*
X154043142Y-82923119D01*
X154995523Y-83827880D02*
X154424095Y-83827880D01*
X154709809Y-83827880D02*
X154709809Y-82827880D01*
X154614571Y-82970738D01*
X154519333Y-83065976D01*
X154424095Y-83113595D01*
X155947904Y-83827880D02*
X155376476Y-83827880D01*
X155662190Y-83827880D02*
X155662190Y-82827880D01*
X155566952Y-82970738D01*
X155471714Y-83065976D01*
X155376476Y-83113595D01*
%TO.C,C13*%
X145534142Y-92846142D02*
X145486523Y-92893761D01*
X145343666Y-92941380D01*
X145248428Y-92941380D01*
X145105571Y-92893761D01*
X145010333Y-92798523D01*
X144962714Y-92703285D01*
X144915095Y-92512809D01*
X144915095Y-92369952D01*
X144962714Y-92179476D01*
X145010333Y-92084238D01*
X145105571Y-91989000D01*
X145248428Y-91941380D01*
X145343666Y-91941380D01*
X145486523Y-91989000D01*
X145534142Y-92036619D01*
X146486523Y-92941380D02*
X145915095Y-92941380D01*
X146200809Y-92941380D02*
X146200809Y-91941380D01*
X146105571Y-92084238D01*
X146010333Y-92179476D01*
X145915095Y-92227095D01*
X146819857Y-91941380D02*
X147438904Y-91941380D01*
X147105571Y-92322333D01*
X147248428Y-92322333D01*
X147343666Y-92369952D01*
X147391285Y-92417571D01*
X147438904Y-92512809D01*
X147438904Y-92750904D01*
X147391285Y-92846142D01*
X147343666Y-92893761D01*
X147248428Y-92941380D01*
X146962714Y-92941380D01*
X146867476Y-92893761D01*
X146819857Y-92846142D01*
%TO.C,D1*%
X143140780Y-88850695D02*
X142140780Y-88850695D01*
X142140780Y-88612600D01*
X142188400Y-88469742D01*
X142283638Y-88374504D01*
X142378876Y-88326885D01*
X142569352Y-88279266D01*
X142712209Y-88279266D01*
X142902685Y-88326885D01*
X142997923Y-88374504D01*
X143093161Y-88469742D01*
X143140780Y-88612600D01*
X143140780Y-88850695D01*
X143140780Y-87326885D02*
X143140780Y-87898314D01*
X143140780Y-87612600D02*
X142140780Y-87612600D01*
X142283638Y-87707838D01*
X142378876Y-87803076D01*
X142426495Y-87898314D01*
%TO.C,D2*%
X137209304Y-85313780D02*
X137209304Y-84313780D01*
X137447400Y-84313780D01*
X137590257Y-84361400D01*
X137685495Y-84456638D01*
X137733114Y-84551876D01*
X137780733Y-84742352D01*
X137780733Y-84885209D01*
X137733114Y-85075685D01*
X137685495Y-85170923D01*
X137590257Y-85266161D01*
X137447400Y-85313780D01*
X137209304Y-85313780D01*
X138161685Y-84409019D02*
X138209304Y-84361400D01*
X138304542Y-84313780D01*
X138542638Y-84313780D01*
X138637876Y-84361400D01*
X138685495Y-84409019D01*
X138733114Y-84504257D01*
X138733114Y-84599495D01*
X138685495Y-84742352D01*
X138114066Y-85313780D01*
X138733114Y-85313780D01*
%TO.C,D3*%
X137234704Y-83789780D02*
X137234704Y-82789780D01*
X137472800Y-82789780D01*
X137615657Y-82837400D01*
X137710895Y-82932638D01*
X137758514Y-83027876D01*
X137806133Y-83218352D01*
X137806133Y-83361209D01*
X137758514Y-83551685D01*
X137710895Y-83646923D01*
X137615657Y-83742161D01*
X137472800Y-83789780D01*
X137234704Y-83789780D01*
X138139466Y-82789780D02*
X138758514Y-82789780D01*
X138425180Y-83170733D01*
X138568038Y-83170733D01*
X138663276Y-83218352D01*
X138710895Y-83265971D01*
X138758514Y-83361209D01*
X138758514Y-83599304D01*
X138710895Y-83694542D01*
X138663276Y-83742161D01*
X138568038Y-83789780D01*
X138282323Y-83789780D01*
X138187085Y-83742161D01*
X138139466Y-83694542D01*
%TO.C,D4*%
X140333504Y-95219780D02*
X140333504Y-94219780D01*
X140571600Y-94219780D01*
X140714457Y-94267400D01*
X140809695Y-94362638D01*
X140857314Y-94457876D01*
X140904933Y-94648352D01*
X140904933Y-94791209D01*
X140857314Y-94981685D01*
X140809695Y-95076923D01*
X140714457Y-95172161D01*
X140571600Y-95219780D01*
X140333504Y-95219780D01*
X141762076Y-94553114D02*
X141762076Y-95219780D01*
X141523980Y-94172161D02*
X141285885Y-94886447D01*
X141904933Y-94886447D01*
%TO.C,J1*%
X137399780Y-88014133D02*
X138114066Y-88014133D01*
X138256923Y-88061752D01*
X138352161Y-88156990D01*
X138399780Y-88299847D01*
X138399780Y-88395085D01*
X138399780Y-87014133D02*
X138399780Y-87585561D01*
X138399780Y-87299847D02*
X137399780Y-87299847D01*
X137542638Y-87395085D01*
X137637876Y-87490323D01*
X137685495Y-87585561D01*
%TO.C,J2*%
X162556866Y-80783180D02*
X162556866Y-81497466D01*
X162509247Y-81640323D01*
X162414009Y-81735561D01*
X162271152Y-81783180D01*
X162175914Y-81783180D01*
X162985438Y-80878419D02*
X163033057Y-80830800D01*
X163128295Y-80783180D01*
X163366390Y-80783180D01*
X163461628Y-80830800D01*
X163509247Y-80878419D01*
X163556866Y-80973657D01*
X163556866Y-81068895D01*
X163509247Y-81211752D01*
X162937819Y-81783180D01*
X163556866Y-81783180D01*
%TO.C,L1*%
X144757381Y-87606166D02*
X144757381Y-88082357D01*
X143757381Y-88082357D01*
X144757381Y-86749023D02*
X144757381Y-87320452D01*
X144757381Y-87034738D02*
X143757381Y-87034738D01*
X143900239Y-87129976D01*
X143995477Y-87225214D01*
X144043096Y-87320452D01*
%TO.C,L2*%
X152258733Y-85998980D02*
X151782542Y-85998980D01*
X151782542Y-84998980D01*
X152544447Y-85094219D02*
X152592066Y-85046600D01*
X152687304Y-84998980D01*
X152925400Y-84998980D01*
X153020638Y-85046600D01*
X153068257Y-85094219D01*
X153115876Y-85189457D01*
X153115876Y-85284695D01*
X153068257Y-85427552D01*
X152496828Y-85998980D01*
X153115876Y-85998980D01*
%TO.C,U4*%
X146227895Y-94295980D02*
X146227895Y-95105504D01*
X146275514Y-95200742D01*
X146323133Y-95248361D01*
X146418371Y-95295980D01*
X146608847Y-95295980D01*
X146704085Y-95248361D01*
X146751704Y-95200742D01*
X146799323Y-95105504D01*
X146799323Y-94295980D01*
X147704085Y-94629314D02*
X147704085Y-95295980D01*
X147465990Y-94248361D02*
X147227895Y-94962647D01*
X147846942Y-94962647D01*
%TO.C,R1*%
X143140133Y-85389980D02*
X142806800Y-84913790D01*
X142568704Y-85389980D02*
X142568704Y-84389980D01*
X142949657Y-84389980D01*
X143044895Y-84437600D01*
X143092514Y-84485219D01*
X143140133Y-84580457D01*
X143140133Y-84723314D01*
X143092514Y-84818552D01*
X143044895Y-84866171D01*
X142949657Y-84913790D01*
X142568704Y-84913790D01*
X144092514Y-85389980D02*
X143521085Y-85389980D01*
X143806800Y-85389980D02*
X143806800Y-84389980D01*
X143711561Y-84532838D01*
X143616323Y-84628076D01*
X143521085Y-84675695D01*
%TO.C,R2*%
X143114733Y-83815180D02*
X142781400Y-83338990D01*
X142543304Y-83815180D02*
X142543304Y-82815180D01*
X142924257Y-82815180D01*
X143019495Y-82862800D01*
X143067114Y-82910419D01*
X143114733Y-83005657D01*
X143114733Y-83148514D01*
X143067114Y-83243752D01*
X143019495Y-83291371D01*
X142924257Y-83338990D01*
X142543304Y-83338990D01*
X143495685Y-82910419D02*
X143543304Y-82862800D01*
X143638542Y-82815180D01*
X143876638Y-82815180D01*
X143971876Y-82862800D01*
X144019495Y-82910419D01*
X144067114Y-83005657D01*
X144067114Y-83100895D01*
X144019495Y-83243752D01*
X143448066Y-83815180D01*
X144067114Y-83815180D01*
%TO.C,R3*%
X166161980Y-90235066D02*
X165685790Y-90568400D01*
X166161980Y-90806495D02*
X165161980Y-90806495D01*
X165161980Y-90425542D01*
X165209600Y-90330304D01*
X165257219Y-90282685D01*
X165352457Y-90235066D01*
X165495314Y-90235066D01*
X165590552Y-90282685D01*
X165638171Y-90330304D01*
X165685790Y-90425542D01*
X165685790Y-90806495D01*
X165161980Y-89901733D02*
X165161980Y-89282685D01*
X165542933Y-89616019D01*
X165542933Y-89473161D01*
X165590552Y-89377923D01*
X165638171Y-89330304D01*
X165733409Y-89282685D01*
X165971504Y-89282685D01*
X166066742Y-89330304D01*
X166114361Y-89377923D01*
X166161980Y-89473161D01*
X166161980Y-89758876D01*
X166114361Y-89854114D01*
X166066742Y-89901733D01*
%TO.C,R4*%
X166111180Y-93333866D02*
X165634990Y-93667200D01*
X166111180Y-93905295D02*
X165111180Y-93905295D01*
X165111180Y-93524342D01*
X165158800Y-93429104D01*
X165206419Y-93381485D01*
X165301657Y-93333866D01*
X165444514Y-93333866D01*
X165539752Y-93381485D01*
X165587371Y-93429104D01*
X165634990Y-93524342D01*
X165634990Y-93905295D01*
X165444514Y-92476723D02*
X166111180Y-92476723D01*
X165063561Y-92714819D02*
X165777847Y-92952914D01*
X165777847Y-92333866D01*
%TD*%
M02*
