%TF.GenerationSoftware,KiCad,Pcbnew,(5.1.9)-1*%
%TF.CreationDate,2021-03-08T23:04:16+01:00*%
%TF.ProjectId,RT12e_ELE_ACC-00,52543132-655f-4454-9c45-5f4143432d30,rev?*%
%TF.SameCoordinates,Original*%
%TF.FileFunction,Legend,Bot*%
%TF.FilePolarity,Positive*%
%FSLAX46Y46*%
G04 Gerber Fmt 4.6, Leading zero omitted, Abs format (unit mm)*
G04 Created by KiCad (PCBNEW (5.1.9)-1) date 2021-03-08 23:04:16*
%MOMM*%
%LPD*%
G01*
G04 APERTURE LIST*
%ADD10C,0.120000*%
%ADD11C,0.150000*%
G04 APERTURE END LIST*
D10*
%TO.C,R5*%
X164149300Y-90280258D02*
X164149300Y-89805742D01*
X163104300Y-90280258D02*
X163104300Y-89805742D01*
%TO.C,R6*%
X159012658Y-87720700D02*
X158538142Y-87720700D01*
X159012658Y-86675700D02*
X158538142Y-86675700D01*
%TO.C,C4*%
X152450748Y-87930400D02*
X153873252Y-87930400D01*
X152450748Y-86110400D02*
X153873252Y-86110400D01*
%TO.C,C12*%
X151667800Y-84048652D02*
X151667800Y-82626148D01*
X153487800Y-84048652D02*
X153487800Y-82626148D01*
%TO.C,L3*%
X154075200Y-83775122D02*
X154075200Y-82975878D01*
X155195200Y-83775122D02*
X155195200Y-82975878D01*
%TO.C,R5*%
D11*
X165509180Y-89876333D02*
X165032990Y-89543000D01*
X165509180Y-89304904D02*
X164509180Y-89304904D01*
X164509180Y-89685857D01*
X164556800Y-89781095D01*
X164604419Y-89828714D01*
X164699657Y-89876333D01*
X164842514Y-89876333D01*
X164937752Y-89828714D01*
X164985371Y-89781095D01*
X165032990Y-89685857D01*
X165032990Y-89304904D01*
X164509180Y-90781095D02*
X164509180Y-90304904D01*
X164985371Y-90257285D01*
X164937752Y-90304904D01*
X164890133Y-90400142D01*
X164890133Y-90638238D01*
X164937752Y-90733476D01*
X164985371Y-90781095D01*
X165080609Y-90828714D01*
X165318704Y-90828714D01*
X165413942Y-90781095D01*
X165461561Y-90733476D01*
X165509180Y-90638238D01*
X165509180Y-90400142D01*
X165461561Y-90304904D01*
X165413942Y-90257285D01*
%TO.C,R6*%
X158942066Y-86220580D02*
X159275400Y-85744390D01*
X159513495Y-86220580D02*
X159513495Y-85220580D01*
X159132542Y-85220580D01*
X159037304Y-85268200D01*
X158989685Y-85315819D01*
X158942066Y-85411057D01*
X158942066Y-85553914D01*
X158989685Y-85649152D01*
X159037304Y-85696771D01*
X159132542Y-85744390D01*
X159513495Y-85744390D01*
X158084923Y-85220580D02*
X158275400Y-85220580D01*
X158370638Y-85268200D01*
X158418257Y-85315819D01*
X158513495Y-85458676D01*
X158561114Y-85649152D01*
X158561114Y-86030104D01*
X158513495Y-86125342D01*
X158465876Y-86172961D01*
X158370638Y-86220580D01*
X158180161Y-86220580D01*
X158084923Y-86172961D01*
X158037304Y-86125342D01*
X157989685Y-86030104D01*
X157989685Y-85792009D01*
X158037304Y-85696771D01*
X158084923Y-85649152D01*
X158180161Y-85601533D01*
X158370638Y-85601533D01*
X158465876Y-85649152D01*
X158513495Y-85696771D01*
X158561114Y-85792009D01*
%TO.C,C4*%
X153328666Y-89227542D02*
X153376285Y-89275161D01*
X153519142Y-89322780D01*
X153614380Y-89322780D01*
X153757238Y-89275161D01*
X153852476Y-89179923D01*
X153900095Y-89084685D01*
X153947714Y-88894209D01*
X153947714Y-88751352D01*
X153900095Y-88560876D01*
X153852476Y-88465638D01*
X153757238Y-88370400D01*
X153614380Y-88322780D01*
X153519142Y-88322780D01*
X153376285Y-88370400D01*
X153328666Y-88418019D01*
X152471523Y-88656114D02*
X152471523Y-89322780D01*
X152709619Y-88275161D02*
X152947714Y-88989447D01*
X152328666Y-88989447D01*
%TO.C,C12*%
X154784942Y-82694542D02*
X154832561Y-82646923D01*
X154880180Y-82504066D01*
X154880180Y-82408828D01*
X154832561Y-82265971D01*
X154737323Y-82170733D01*
X154642085Y-82123114D01*
X154451609Y-82075495D01*
X154308752Y-82075495D01*
X154118276Y-82123114D01*
X154023038Y-82170733D01*
X153927800Y-82265971D01*
X153880180Y-82408828D01*
X153880180Y-82504066D01*
X153927800Y-82646923D01*
X153975419Y-82694542D01*
X154880180Y-83646923D02*
X154880180Y-83075495D01*
X154880180Y-83361209D02*
X153880180Y-83361209D01*
X154023038Y-83265971D01*
X154118276Y-83170733D01*
X154165895Y-83075495D01*
X153975419Y-84027876D02*
X153927800Y-84075495D01*
X153880180Y-84170733D01*
X153880180Y-84408828D01*
X153927800Y-84504066D01*
X153975419Y-84551685D01*
X154070657Y-84599304D01*
X154165895Y-84599304D01*
X154308752Y-84551685D01*
X154880180Y-83980257D01*
X154880180Y-84599304D01*
%TO.C,L3*%
X156637580Y-83208833D02*
X156637580Y-82732642D01*
X155637580Y-82732642D01*
X155637580Y-83446928D02*
X155637580Y-84065976D01*
X156018533Y-83732642D01*
X156018533Y-83875500D01*
X156066152Y-83970738D01*
X156113771Y-84018357D01*
X156209009Y-84065976D01*
X156447104Y-84065976D01*
X156542342Y-84018357D01*
X156589961Y-83970738D01*
X156637580Y-83875500D01*
X156637580Y-83589785D01*
X156589961Y-83494547D01*
X156542342Y-83446928D01*
%TD*%
M02*
